<svg width="223" height="80" viewBox="0 0 223 80" fill="none" xmlns="http://www.w3.org/2000/svg">
<g clip-path="url(#clip0_186_4)">
<path d="M72.9458 12.539V26.238H70.4984L64.0754 17.9279V26.238H61.1221V12.539H63.5901L70.0028 20.8596V12.539H72.9458Z" fill="white"/>
<path d="M83.3547 20.9018L81.2894 15.6289L79.2242 20.9018H83.3547ZM84.2944 23.3063H78.3051L77.1692 26.238H74.0713L79.8128 12.5284H82.7558L88.5282 26.238H85.4303L84.2944 23.3063Z" fill="white"/>
<path d="M90.7276 15.1227H86.6074V12.539H97.8425V15.1227H93.712V26.238H90.7276V15.1227Z" fill="white"/>
<path d="M102.551 12.539H99.5669V26.238H102.551V12.539Z" fill="white"/>
<path d="M113.663 23.2008C114.275 22.8301 114.776 22.2936 115.108 21.6506C115.455 20.9452 115.635 20.167 115.635 19.3779C115.635 18.5889 115.455 17.8107 115.108 17.1053C114.776 16.4623 114.275 15.9258 113.663 15.5551C113.035 15.1849 112.322 14.9899 111.597 14.9899C110.872 14.9899 110.16 15.1849 109.532 15.5551C108.919 15.9258 108.419 16.4623 108.086 17.1053C107.74 17.8107 107.56 18.5889 107.56 19.3779C107.56 20.167 107.74 20.9452 108.086 21.6506C108.419 22.2936 108.919 22.8301 109.532 23.2008C110.16 23.571 110.872 23.766 111.597 23.766C112.322 23.766 113.035 23.571 113.663 23.2008ZM107.983 25.542C106.926 24.9544 106.05 24.078 105.453 23.011C104.839 21.9062 104.525 20.6536 104.544 19.3832C104.523 18.1126 104.837 16.8596 105.453 15.7555C106.05 14.6855 106.926 13.8057 107.983 13.2139C109.097 12.6118 110.337 12.2971 111.597 12.2971C112.857 12.2971 114.098 12.6118 115.212 13.2139C116.264 13.8339 117.131 14.7343 117.721 15.8187C118.324 16.9287 118.64 18.1771 118.64 19.4465C118.64 20.7159 118.324 21.9643 117.721 23.0743C117.119 24.1339 116.249 25.0083 115.201 25.6053C114.088 26.2073 112.847 26.5221 111.587 26.5221C110.327 26.5221 109.086 26.2073 107.973 25.6053" fill="white"/>
<path d="M132.178 12.539V26.238H129.73L123.307 17.9279V26.238H120.354V12.539H122.822L129.235 20.8596V12.539H132.178Z" fill="white"/>
<path d="M142.587 20.9018L140.521 15.6289L138.456 20.9018H142.587ZM143.537 23.3063H137.547L136.411 26.238H133.313L139.055 12.5284H141.998L147.77 26.238H144.673L143.537 23.3063Z" fill="white"/>
<path d="M148.948 12.539H151.932V23.6543H158.572V26.238H148.948V12.539Z" fill="white"/>
<path d="M68.6706 41.0549L66.6054 35.782L64.5401 41.0549H68.6706ZM69.6103 43.4593H63.6314L62.4851 46.4016H59.3872L65.139 32.692H68.1543L73.9164 46.4016H70.8185L69.6103 43.4593Z" fill="white"/>
<path d="M76.6529 46.1907C75.8207 45.9604 75.0392 45.5703 74.3501 45.0412L75.3827 42.6579C75.9754 43.1234 76.6428 43.4802 77.3551 43.7124C78.0894 43.9707 78.8606 44.1025 79.6372 44.1026C80.2881 44.1522 80.9395 44.0133 81.5166 43.7019C81.6999 43.5963 81.8528 43.4432 81.9597 43.258C82.0667 43.0729 82.124 42.8623 82.1259 42.6473C82.1274 42.4932 82.0958 42.3406 82.0334 42.2003C81.9709 42.0601 81.8791 41.9354 81.7644 41.8353C81.4942 41.6032 81.1819 41.4276 80.8454 41.3185C80.4633 41.192 79.9573 41.0443 79.3274 40.8862C78.5077 40.6915 77.7007 40.445 76.911 40.1479C76.2823 39.8995 75.7273 39.4889 75.3001 38.9563C74.8255 38.3312 74.5872 37.5525 74.6289 36.7627C74.6262 36.014 74.838 35.2809 75.2382 34.6536C75.6871 33.9691 76.3225 33.4338 77.0659 33.1139C78.0132 32.709 79.0341 32.5148 80.0606 32.5444C80.8726 32.5437 81.6813 32.6501 82.4666 32.8608C83.198 33.0435 83.8955 33.3463 84.5319 33.7572L83.6438 36.0878C82.5682 35.4128 81.3334 35.0483 80.0709 35.0332C79.4274 34.9828 78.7838 35.1297 78.2225 35.4551C78.036 35.5771 77.8831 35.7458 77.7783 35.9451C77.6734 36.1444 77.6202 36.3678 77.6236 36.594C77.6111 36.8227 77.6719 37.0493 77.7967 37.2395C77.9215 37.4298 78.1036 37.5734 78.3154 37.6486C78.978 37.9491 79.6704 38.1754 80.3807 38.3235C81.2004 38.5225 82.0073 38.7726 82.7971 39.0723C83.4216 39.3185 83.9755 39.721 84.408 40.2429C84.8812 40.8605 85.1196 41.6321 85.0792 42.4153C85.0794 43.1652 84.864 43.8986 84.4596 44.5245C84.0003 45.2076 83.3588 45.7419 82.6112 46.0642C81.6601 46.4684 80.636 46.6624 79.6062 46.6336C78.6057 46.6367 77.6103 46.4874 76.6529 46.1907Z" fill="white"/>
<path d="M88.2598 46.1907C87.4274 45.9612 86.6457 45.571 85.957 45.0412L86.9897 42.6579C87.5799 43.1213 88.2435 43.478 88.9517 43.7124C89.6897 43.9699 90.4642 44.1018 91.2441 44.1026C91.8918 44.1525 92.5399 44.0136 93.1132 43.7019C93.298 43.598 93.452 43.4453 93.5592 43.2597C93.6663 43.0742 93.7227 42.8627 93.7225 42.6473C93.724 42.4932 93.6924 42.3406 93.63 42.2003C93.5675 42.0601 93.4757 41.9354 93.3611 41.8353C93.0922 41.6011 92.7795 41.4253 92.442 41.3185C92.0703 41.192 91.5643 41.0443 90.924 40.8862C90.1077 40.6917 89.3041 40.4452 88.518 40.1479C87.8892 39.8995 87.3343 39.4889 86.9071 38.9563C86.4296 38.3323 86.1877 37.5537 86.2255 36.7627C86.2276 36.0147 86.4389 35.2829 86.8348 34.6536C87.29 33.9708 87.9282 33.4363 88.6729 33.1139C89.6202 32.709 90.641 32.5148 91.6675 32.5444C92.4795 32.5437 93.2882 32.6501 94.0736 32.8608C94.8043 33.0456 95.5014 33.3482 96.1388 33.7572L95.2198 36.1722C94.1435 35.4986 92.9091 35.1342 91.6469 35.1176C91.0034 35.0672 90.3597 35.2141 89.7984 35.5394C89.6119 35.6615 89.459 35.8302 89.3542 36.0295C89.2494 36.2288 89.1961 36.4522 89.1995 36.6784C89.1864 36.9057 89.2457 37.1313 89.3685 37.3214C89.4914 37.5115 89.6712 37.6559 89.8811 37.733C90.5445 38.0309 91.2367 38.2571 91.9463 38.4079C92.7631 38.6052 93.5667 38.8553 94.3524 39.1566C94.9935 39.3533 95.5735 39.7167 96.0356 40.2112C96.5157 40.8251 96.755 41.5995 96.7068 42.3837C96.7059 43.1318 96.4944 43.864 96.0975 44.4928C95.6363 45.1783 94.9908 45.7131 94.2388 46.0325C93.2915 46.4374 92.2706 46.6316 91.2441 46.602C90.2436 46.605 89.2482 46.4558 88.2908 46.1591" fill="white"/>
<path d="M106.775 43.375C107.386 42.9971 107.885 42.4579 108.221 41.8142C108.567 41.1106 108.747 40.3342 108.747 39.5468C108.747 38.7595 108.567 37.9831 108.221 37.2795C107.959 36.8004 107.606 36.3794 107.183 36.0409C106.761 35.7024 106.276 35.4533 105.758 35.308C105.24 35.1628 104.699 35.1243 104.166 35.1948C103.633 35.2653 103.119 35.4434 102.655 35.7187C102.035 36.089 101.531 36.6299 101.199 37.2795C100.853 37.9831 100.672 38.7595 100.672 39.5468C100.672 40.3342 100.853 41.1106 101.199 41.8142C101.528 42.4624 102.029 43.0031 102.644 43.375C103.272 43.7452 103.985 43.9401 104.71 43.9401C105.435 43.9401 106.147 43.7452 106.775 43.375ZM101.095 45.7056C100.042 45.1173 99.1691 44.2409 98.5758 43.1746C97.9727 42.0647 97.6562 40.8162 97.6562 39.5468C97.6562 38.2775 97.9727 37.029 98.5758 35.9191C99.1691 34.8528 100.042 33.9763 101.095 33.3881C102.207 32.7789 103.448 32.46 104.71 32.46C105.971 32.46 107.213 32.7789 108.324 33.3881C109.373 33.9821 110.245 34.8571 110.844 35.9191C111.447 37.029 111.763 38.2775 111.763 39.5468C111.763 40.8162 111.447 42.0647 110.844 43.1746C110.245 44.2366 109.373 45.1116 108.324 45.7056C107.213 46.3148 105.971 46.6337 104.71 46.6337C103.448 46.6337 102.207 46.3148 101.095 45.7056Z" fill="white"/>
<path d="M116.389 45.7161C115.346 45.1402 114.478 44.283 113.879 43.2379C113.283 42.1181 112.97 40.8637 112.97 39.589C112.97 38.3143 113.283 37.0599 113.879 35.9402C114.472 34.8795 115.34 34.0071 116.389 33.4197C117.48 32.7988 118.712 32.4824 119.961 32.5022C121.006 32.4865 122.042 32.7024 122.997 33.135C123.885 33.5367 124.665 34.1518 125.269 34.9278L123.359 36.8155C122.977 36.3094 122.485 35.9005 121.923 35.6206C121.36 35.3407 120.742 35.1974 120.116 35.202C119.367 35.1869 118.629 35.3801 117.979 35.7609C117.357 36.1314 116.849 36.672 116.512 37.3217C116.166 38.0252 115.986 38.8017 115.986 39.589C115.986 40.3764 116.166 41.1528 116.512 41.8564C116.849 42.506 117.357 43.0466 117.979 43.4171C118.629 43.798 119.367 43.9912 120.116 43.9761C120.743 43.9786 121.361 43.8333 121.924 43.5516C122.486 43.2699 122.977 42.8594 123.359 42.352L125.269 44.2292C124.667 45.0169 123.883 45.6401 122.987 46.0431C122.032 46.4756 120.996 46.6915 119.951 46.6758C118.705 46.6953 117.476 46.3788 116.389 45.7583" fill="white"/>
<path d="M129.947 32.7026H126.963V46.4016H129.947V32.7026Z" fill="white"/>
<path d="M140.542 41.0549L138.477 35.782L136.412 41.0549H140.542ZM141.482 43.4593H135.493L134.346 46.4016H131.249L137 32.692H139.943L145.705 46.4016H142.608L141.482 43.4593Z" fill="white"/>
<path d="M147.915 35.2863H143.795V32.7026H155.03V35.2863H150.899V46.3911H147.915V35.2863Z" fill="white"/>
<path d="M159.739 32.7026H156.754V46.4016H159.739V32.7026Z" fill="white"/>
<path d="M170.85 43.375C171.461 42.9971 171.96 42.4579 172.296 41.8142C172.636 41.1087 172.812 40.333 172.812 39.5468C172.812 38.7606 172.636 37.9849 172.296 37.2795C171.96 36.6358 171.461 36.0965 170.85 35.7187C170.222 35.3485 169.51 35.1535 168.785 35.1535C168.06 35.1535 167.348 35.3485 166.72 35.7187C166.109 36.0965 165.609 36.6358 165.274 37.2795C164.928 37.983 164.748 38.7595 164.748 39.5468C164.748 40.3342 164.928 41.1106 165.274 41.8142C165.609 42.4579 166.109 42.9971 166.72 43.375C167.348 43.7452 168.06 43.9401 168.785 43.9401C169.51 43.9401 170.222 43.7452 170.85 43.375ZM165.16 45.7056C164.108 45.1146 163.237 44.2389 162.641 43.1746C162.044 42.0625 161.731 40.8149 161.731 39.5468C161.731 38.2788 162.044 37.0312 162.641 35.9191C163.237 34.8548 164.108 33.979 165.16 33.3881C166.27 32.7638 167.518 32.444 168.785 32.46C170.045 32.4433 171.287 32.7632 172.389 33.3881C173.441 33.9818 174.316 34.8567 174.919 35.9191C175.522 37.029 175.838 38.2775 175.838 39.5468C175.838 40.8162 175.522 42.0647 174.919 43.1746C174.316 44.2369 173.441 45.1118 172.389 45.7056C171.289 46.3346 170.045 46.6548 168.785 46.6336C167.518 46.6541 166.268 46.334 165.16 45.7056Z" fill="white"/>
<path d="M189.365 32.7026V46.3911H186.918L180.485 38.081V46.3911H177.542V32.7026H180.01L186.422 41.0127V32.7026H189.365Z" fill="white"/>
<path d="M205.402 43.375C206.016 43.0005 206.516 42.4604 206.848 41.8142C207.194 41.1106 207.374 40.3342 207.374 39.5468C207.374 38.7595 207.194 37.9831 206.848 37.2795C206.516 36.6333 206.016 36.0932 205.402 35.7187C204.774 35.3485 204.062 35.1536 203.337 35.1536C202.612 35.1536 201.9 35.3485 201.272 35.7187C200.658 36.0932 200.158 36.6333 199.826 37.2795C199.48 37.9831 199.3 38.7595 199.3 39.5468C199.3 40.3342 199.48 41.1106 199.826 41.8142C200.158 42.4604 200.658 43.0005 201.272 43.375C201.9 43.7452 202.612 43.9401 203.337 43.9401C204.062 43.9401 204.774 43.7452 205.402 43.375ZM199.723 45.7056C198.671 45.1147 197.799 44.2389 197.203 43.1746C196.6 42.0647 196.284 40.8162 196.284 39.5468C196.284 38.2775 196.6 37.029 197.203 35.9191C197.799 34.8548 198.671 33.979 199.723 33.3881C200.834 32.7789 202.076 32.46 203.337 32.46C204.598 32.46 205.84 32.7789 206.951 33.3881C208.001 33.9821 208.872 34.8571 209.471 35.9191C210.083 37.0261 210.404 38.2757 210.404 39.5468C210.404 40.818 210.083 42.0676 209.471 43.1746C208.872 44.2366 208.001 45.1116 206.951 45.7056C205.84 46.3148 204.598 46.6337 203.337 46.6337C202.076 46.6337 200.834 46.3148 199.723 45.7056Z" fill="white"/>
<path d="M215.264 35.2441V38.8614H221.222V41.4029H215.264V46.3911H212.28V32.7026H222.018V35.2441H215.264Z" fill="white"/>
<path d="M68.588 56.051C67.9932 55.6019 67.2606 55.3849 66.5228 55.4394H64.1064V60.2166H66.5434C67.2846 60.2719 68.0197 60.0467 68.6087 59.5839C69.0526 59.1075 69.3001 58.4751 69.3001 57.8175C69.3001 57.1599 69.0526 56.5275 68.6087 56.051M69.3625 66.5969L66.8739 62.7793H64.1064V66.5969H61.1221V52.8873H66.7086C67.7323 52.8619 68.7485 53.0709 69.6827 53.499C70.4818 53.8635 71.1574 54.4617 71.624 55.2179C72.0772 56.0195 72.3157 56.9288 72.3157 57.8544C72.3157 58.78 72.0772 59.6893 71.624 60.4908C71.1477 61.239 70.4649 61.8262 69.662 62.1782L72.5534 66.5863L69.3625 66.5969Z" fill="#0E6CB6"/>
<path d="M84.3875 64.0131V66.5547H74.4019V52.8557H84.1396V55.3972H77.3655V58.3711H83.3548V60.8388H77.3655V64.0131H84.3875Z" fill="#0E6CB6"/>
<path d="M94.4763 61.1658L92.411 55.8929L90.3457 61.1658H94.4763ZM95.416 63.5702H89.437L88.2908 66.5547H85.1929L90.9447 52.8451H93.9703L99.7324 66.5547H96.6345L95.416 63.5702Z" fill="#0E6CB6"/>
<path d="M100.848 52.8557H103.832V63.971H110.296V66.5547H100.848V52.8557Z" fill="#0E6CB6"/>
<path d="M112.795 55.4394H108.665V52.8557H119.9V55.4394H115.779V66.5547H112.795V55.4394Z" fill="#0E6CB6"/>
<path d="M129.328 63.528C129.943 63.1604 130.444 62.6231 130.773 61.9778C131.119 61.2724 131.3 60.4942 131.3 59.7052C131.3 58.9161 131.119 58.138 130.773 57.4326C130.444 56.7873 129.943 56.25 129.328 55.8823C128.7 55.5121 127.987 55.3172 127.262 55.3172C126.537 55.3172 125.825 55.5121 125.197 55.8823C124.582 56.25 124.081 56.7873 123.751 57.4326C123.405 58.138 123.225 58.9161 123.225 59.7052C123.225 60.4942 123.405 61.2724 123.751 61.9778C124.081 62.6231 124.582 63.1604 125.197 63.528C125.825 63.8983 126.537 64.0932 127.262 64.0932C127.987 64.0932 128.7 63.8983 129.328 63.528ZM123.648 65.8692C122.594 65.2772 121.721 64.3972 121.128 63.3277C120.532 62.2156 120.219 60.968 120.219 59.6999C120.219 58.4319 120.532 57.1842 121.128 56.0721C121.724 55.0079 122.596 54.1321 123.648 53.5411C124.758 52.9201 126.007 52.6039 127.273 52.6237C128.532 52.6037 129.774 52.92 130.877 53.5411C131.928 54.1321 132.8 55.0079 133.396 56.0721C134.008 57.1792 134.329 58.4288 134.329 59.6999C134.329 60.971 134.008 62.2206 133.396 63.3277C132.804 64.3972 131.931 65.2772 130.877 65.8692C129.774 66.4904 128.532 66.8067 127.273 66.7867C126.007 66.8065 124.758 66.4903 123.648 65.8692Z" fill="#0E6CB6"/>
<path d="M143.661 56.0511C143.068 55.5967 142.334 55.3791 141.595 55.4394H139.169V60.2167H141.595C142.337 60.276 143.074 60.0503 143.661 59.5839C144.112 59.1113 144.364 58.4774 144.364 57.8175C144.364 57.1575 144.112 56.5237 143.661 56.0511ZM144.415 66.5969L141.926 62.7793H139.189V66.5969H136.205V52.8873H141.781C142.805 52.8597 143.822 53.0688 144.755 53.499C145.557 53.8602 146.233 54.4591 146.697 55.2179C147.165 56.0126 147.401 56.9272 147.378 57.8544C147.405 58.7834 147.164 59.6999 146.686 60.4908C146.212 61.2411 145.529 61.8289 144.724 62.1782L147.616 66.5863L144.415 66.5969Z" fill="#0E6CB6"/>
<path d="M150.827 66.3438C150.001 66.1111 149.224 65.725 148.535 65.2048L149.567 62.8109C150.165 63.2679 150.831 63.624 151.54 63.8655C152.276 64.1171 153.046 64.2488 153.822 64.2557C154.472 64.3003 155.122 64.1617 155.701 63.855C155.885 63.7502 156.039 63.5973 156.146 63.412C156.253 63.2266 156.31 63.0156 156.31 62.8004C156.312 62.6463 156.28 62.4937 156.218 62.3534C156.155 62.2131 156.064 62.0885 155.949 61.9884C155.679 61.7527 155.367 61.5736 155.03 61.4611C154.658 61.3345 154.152 61.1869 153.512 61.0392C152.692 60.8402 151.885 60.5902 151.096 60.2905C150.456 60.0316 149.893 59.6062 149.464 59.0566C148.993 58.4298 148.755 57.6524 148.793 56.8631C148.797 56.1153 149.008 55.384 149.402 54.7539C149.853 54.0692 150.492 53.5368 151.24 53.2248C152.184 52.8192 153.201 52.625 154.225 52.6553C155.039 52.6556 155.851 52.7583 156.641 52.9611C157.372 53.1494 158.069 53.4556 158.706 53.8681L157.787 56.2725C156.711 55.5989 155.476 55.2346 154.214 55.2179C153.566 55.1718 152.92 55.3222 152.355 55.6503C152.171 55.7722 152.02 55.9393 151.915 56.1365C151.81 56.3336 151.756 56.5545 151.757 56.7787C151.755 57.0051 151.82 57.2267 151.943 57.4148C152.067 57.6029 152.243 57.7487 152.448 57.8333C153.13 58.13 153.839 58.3561 154.565 58.5082C155.382 58.7026 156.185 58.9492 156.971 59.2464C157.595 59.4947 158.148 59.8968 158.582 60.417C159.062 61.0309 159.302 61.8053 159.253 62.5895C159.254 63.3378 159.042 64.0703 158.644 64.6986C158.187 65.3879 157.54 65.9237 156.785 66.2383C155.838 66.6432 154.817 66.8374 153.791 66.8078C152.787 66.81 151.788 66.6608 150.827 66.3649" fill="#0E6CB6"/>
<path d="M164.427 56.0932C164.637 56.1033 164.845 56.0401 165.016 55.9139C165.085 55.8508 165.14 55.7725 165.175 55.6849C165.211 55.5972 165.227 55.5025 165.222 55.4077C165.226 55.3115 165.21 55.2154 165.175 55.1261C165.139 55.0369 165.085 54.9567 165.016 54.891C164.845 54.7648 164.637 54.7016 164.427 54.7117H163.797V56.0932H164.427ZM166.121 56.2303C165.98 56.4669 165.776 56.6573 165.532 56.7787L166.441 58.2551H165.325L164.541 56.9474H163.807V58.2235H162.692V53.8364H164.499C164.979 53.8057 165.453 53.9558 165.831 54.2582C165.992 54.4004 166.118 54.5775 166.202 54.7765C166.286 54.9755 166.325 55.1912 166.317 55.4077C166.326 55.695 166.258 55.9794 166.121 56.2303ZM165.883 58.8879C166.348 58.5968 166.729 58.1857 166.988 57.6962C167.259 57.181 167.397 56.6041 167.391 56.0194C167.397 55.4394 167.262 54.8668 166.998 54.3532C166.75 53.8682 166.374 53.463 165.914 53.1826C165.562 52.9672 165.171 52.8269 164.764 52.7704C164.357 52.7138 163.943 52.7421 163.548 52.8535C163.152 52.9649 162.782 53.1571 162.461 53.4185C162.14 53.6798 161.875 54.005 161.68 54.3742C161.411 54.8861 161.272 55.4593 161.277 56.0405C161.27 56.622 161.408 57.1957 161.68 57.7067C161.934 58.1937 162.308 58.6045 162.764 58.8984C163.235 59.1872 163.775 59.3369 164.324 59.3308C164.874 59.3366 165.415 59.183 165.883 58.8879ZM166.265 52.5604C166.84 52.9063 167.311 53.4059 167.628 54.0051C167.957 54.6328 168.129 55.3338 168.129 56.0458C168.129 56.7577 167.957 57.4587 167.628 58.0864C167.302 58.6824 166.828 59.1806 166.255 59.5312C165.673 59.8829 165.01 60.0684 164.334 60.0684C163.658 60.0684 162.995 59.8829 162.413 59.5312C161.856 59.1724 161.4 58.6706 161.092 58.0758C160.761 57.4508 160.591 56.7507 160.596 56.0405C160.588 55.3333 160.759 54.636 161.092 54.0157C161.409 53.4076 161.884 52.9005 162.465 52.5498C163.05 52.1978 163.717 52.0155 164.396 52.0225C165.071 52.0121 165.735 52.1908 166.317 52.5393" fill="#0E6CB6"/>
<path d="M47.6356 12.4968H0V66.6496H47.6356V12.4968ZM20.3327 59.1621H6.79476V19.6258H20.3636L20.3327 59.1621ZM30.8243 19.668C32.1325 19.6444 33.4318 19.8926 34.6433 20.3976C35.8547 20.9026 36.953 21.6538 37.8714 22.6056C38.7899 23.5573 39.5093 24.6898 39.986 25.9343C40.4628 27.1787 40.6868 28.5091 40.6447 29.8447C40.6447 37.7119 33.9738 39.4625 30.7933 39.4203H25.5062V19.6785L30.8243 19.668ZM25.5062 59.257V39.6734L44.0937 59.257H25.5062Z" fill="white"/>
</g>
<defs>
<clipPath id="clip0_186_4">
<rect width="222.017" height="79.0937" fill="white"/>
</clipPath>
</defs>
</svg>
