<svg width="210" height="77" viewBox="0 0 210 77" fill="none" xmlns="http://www.w3.org/2000/svg">
<path d="M52.7639 17.9142C52.265 17.8918 51.9099 18.0134 51.6988 18.2789C51.5933 18.41 51.6173 18.5092 51.7708 18.5763C52.2346 18.7778 52.6536 18.765 53.0278 18.5379L63.1177 18.7155C63.4344 18.7219 63.4664 18.8178 63.2137 19.0033L47.8701 30.3551C47.7692 30.431 47.6946 30.5365 47.6567 30.657C47.6188 30.7775 47.6196 30.9068 47.659 31.0268L53.6755 49.3402C53.6892 49.381 53.6896 49.425 53.6765 49.466C53.6633 49.5069 53.6375 49.5426 53.6026 49.5678C53.5678 49.593 53.5258 49.6063 53.4828 49.606C53.4398 49.6056 53.3981 49.5915 53.3637 49.5657L37.9817 38.1708C37.8378 38.0684 37.6955 38.0684 37.5547 38.1708L22.0576 49.4362C21.7826 49.6409 21.6994 49.5801 21.8081 49.2538C23.7721 43.4228 25.7232 37.5247 27.6615 31.5593C28.1173 30.1584 27.2009 29.5011 25.9871 30.2639C14.0692 37.7822 1.7147 51.1682 9.89505 66.2239C12.1085 70.3021 15.0799 73.8141 18.8095 76.76C18.9406 76.8655 18.923 76.9279 18.7567 76.9471C18.584 76.9663 18.4416 76.9231 18.3297 76.8176C18.205 76.7024 18.1298 76.6352 18.1042 76.616C12.9609 73.104 8.17263 68.9347 4.74695 63.681C-5.53966 47.8913 6.97316 33.5648 19.9754 25.6148C20.0244 25.5845 20.0655 25.5429 20.0951 25.4935C20.1246 25.4441 20.1418 25.3884 20.1451 25.3313C20.1484 25.2741 20.1378 25.2172 20.114 25.1655C20.0903 25.1137 20.0542 25.0687 20.0089 25.0342L11.9389 18.7922C11.9243 18.7812 11.9132 18.7657 11.9074 18.748C11.9016 18.7304 11.9014 18.7116 11.9068 18.6943C11.9122 18.6771 11.9229 18.6623 11.9373 18.6523C11.9518 18.6423 11.9692 18.6375 11.9869 18.6387L31.2887 18.6483C31.3795 18.6481 31.468 18.6188 31.5413 18.5644C31.6147 18.5101 31.669 18.4336 31.6965 18.346L37.5787 0.315661C37.5905 0.281789 37.6126 0.252428 37.6418 0.231649C37.671 0.210871 37.706 0.199707 37.7418 0.199707C37.7777 0.199707 37.8127 0.210871 37.8419 0.231649C37.8711 0.252428 37.8932 0.281789 37.905 0.315661L42.2998 14.3062C42.4022 14.6357 42.6149 14.7396 42.9379 14.6181C55.1437 10.0025 67.7509 6.62645 80.7595 4.4898C116.547 -1.38278 154.359 -0.0729647 189.397 9.55634C196.262 11.4435 202.798 13.7849 209.006 16.5804C209.796 16.9387 209.776 16.993 208.944 16.7435C196.473 12.998 183.645 10.3112 170.46 8.68313C139.159 4.81286 108.023 5.73245 77.0507 11.4419C77.0002 11.4516 76.9523 11.472 76.9104 11.5017C76.8684 11.5314 76.8335 11.5697 76.8079 11.6139C76.7824 11.6582 76.7668 11.7074 76.7624 11.758C76.7579 11.8087 76.7646 11.8596 76.782 11.9073C82.5779 27.8554 88.6567 43.6867 95.0187 59.4013C96.3717 62.7454 98.9625 62.8846 102.072 62.9517C103.738 62.9901 105.224 62.4528 106.529 61.3397C106.654 61.2341 106.719 61.0998 106.725 60.9366C107.429 44.448 107.442 29.4323 106.764 15.8895C106.596 12.5838 101.937 12.8477 99.6726 12.8189C99.4359 12.8157 99.316 12.6941 99.3128 12.4542L99.3032 11.1108C99.3024 11.0544 99.3133 10.9984 99.3353 10.9463C99.3573 10.8943 99.3898 10.8474 99.4308 10.8086C99.4719 10.7698 99.5205 10.74 99.5737 10.721C99.6269 10.702 99.6835 10.6942 99.7398 10.6982C108.29 11.2596 118.24 10.1609 127.15 10.9717C128.66 11.1092 130.389 11.5682 132.336 12.3487C141.121 15.8703 141.975 27.3228 134.404 32.6389C132.336 34.0878 129.4 35.0714 126.867 35.9446C126.793 35.9689 126.729 36.0164 126.684 36.0801C126.64 36.1438 126.617 36.2203 126.619 36.2985C126.621 36.3767 126.648 36.4525 126.696 36.5149C126.744 36.5772 126.811 36.6228 126.886 36.6451C127.51 36.8322 128.172 37.0817 128.844 37.2016C134.822 38.2619 140.622 42.4313 141.548 48.7165C143.064 58.9887 134.803 65.1012 125.356 65.0628C110.391 65.01 95.3881 64.7509 80.438 65.1779C80.2909 65.1811 80.1725 65.1252 80.083 65.01C79.7279 64.5462 79.6719 64.0536 79.915 63.5323C79.9918 63.366 80.1198 63.2652 80.2989 63.23C82.8561 62.7406 88.1146 64.0744 86.608 59.5069C85.0631 54.8242 83.3199 50.2166 81.3784 45.6842C81.308 45.5147 81.1817 45.43 80.9994 45.43L64.0341 45.2572C63.7245 45.2529 63.4212 45.3454 63.1666 45.5217C62.912 45.698 62.7188 45.9494 62.6139 46.2408C61.0498 50.5397 59.5961 54.1285 58.3774 59.0415C57.7201 61.6707 58.9484 62.7838 61.4625 62.8318C63.1193 62.8606 64.7634 62.9965 66.3947 63.2396C66.4651 63.25 66.5326 63.276 66.5923 63.3158C66.652 63.3556 66.7024 63.4082 66.7401 63.4699C67.0632 64.0009 67.0552 64.5174 66.7161 65.0196C66.633 65.1412 66.5178 65.2019 66.3707 65.2019L49.5494 65.0244C49.3775 65.022 49.2097 64.9705 49.066 64.8759C48.9224 64.7814 48.8089 64.6477 48.7391 64.491C48.6693 64.3343 48.6462 64.161 48.6725 63.9919C48.6987 63.8227 48.7733 63.6649 48.8873 63.5371C50.4514 61.7715 53.522 64.3143 54.9854 60.2985C60.7428 44.528 66.3851 28.671 72.5455 13.1259C72.5743 13.0531 72.5828 12.9738 72.57 12.8965C72.5572 12.8193 72.5236 12.7469 72.4728 12.6873C72.422 12.6276 72.356 12.5829 72.2817 12.5579C72.2075 12.5329 72.1279 12.5286 72.0514 12.5454C65.6094 13.9272 59.1803 15.7168 52.7639 17.9142ZM131.166 26.0082C131.78 20.2844 129.227 14.3734 122.981 13.3275C120.946 12.9868 114.834 11.9745 114.819 15.4385C114.791 21.9764 114.787 28.5143 114.81 35.0522C114.81 35.2153 114.891 35.3017 115.055 35.3113C122.501 35.7383 130.158 35.3496 131.166 26.0082ZM49.2951 19.2C49.7653 19.2288 50.0947 19.1265 50.2835 18.893C50.4018 18.749 50.3842 18.6243 50.2307 18.5187C49.9652 18.33 49.6901 18.3428 49.4054 18.5571L43.7967 18.5331C43.7317 18.5334 43.6681 18.5121 43.6154 18.4724C43.5627 18.4326 43.5236 18.3765 43.5041 18.3124L42.6884 15.5105C42.6706 15.4481 42.6402 15.39 42.5991 15.3398C42.5579 15.2895 42.5069 15.2481 42.449 15.2181C42.3912 15.188 42.3277 15.17 42.2625 15.165C42.1973 15.16 42.1316 15.1682 42.0695 15.189C34.7895 17.6903 27.8822 20.9737 21.3475 25.039C21.2754 25.0834 21.2156 25.1451 21.1737 25.2186C21.1318 25.2922 21.1091 25.3751 21.1076 25.4597C21.1062 25.5443 21.1261 25.628 21.1655 25.7029C21.2049 25.7778 21.2626 25.8415 21.3332 25.8883L26.2606 29.194C26.4198 29.3003 26.606 29.3594 26.7978 29.3645C26.9897 29.3696 27.1793 29.3205 27.3449 29.2228C34.321 25.0742 41.6377 21.7333 49.2951 19.2ZM71.562 21.1432C69.0831 27.5051 66.7993 33.9471 64.7106 40.469C64.5331 41.0159 64.0917 41.7788 64.4467 42.4169C64.5267 42.5608 64.6498 42.6328 64.8162 42.6328H79.7759C80.0126 42.6328 80.0893 42.5224 80.0062 42.3017L72.296 21.2871C72.3952 21.204 72.4528 21.1 72.4688 20.9753C72.4749 20.9322 72.4706 20.8884 72.4564 20.8473C72.4421 20.8063 72.4183 20.7692 72.3869 20.7392C72.3555 20.7092 72.3173 20.6871 72.2757 20.6747C72.234 20.6624 72.19 20.6601 72.1473 20.6682L71.6531 20.7641C71.5508 20.7833 71.5092 20.8441 71.5284 20.9465L71.562 21.1432ZM124.578 62.2752C131.521 60.5096 134.26 54.3684 133.071 47.6801C131.444 38.5402 122.597 37.1584 114.959 37.691C114.85 37.6974 114.794 37.7566 114.791 37.8685C114.776 45.4491 114.608 53.1017 115.074 60.6871C115.27 63.8825 122.669 62.7598 124.578 62.2752Z" fill="white"/>
<path d="M155.563 61.5747C157.472 63.2684 160.721 62.803 163.139 63.0621C163.215 63.0698 163.287 63.1044 163.34 63.1597C163.394 63.215 163.426 63.2875 163.431 63.3643L163.518 64.7653C163.531 64.9316 163.452 65.0148 163.283 65.0148L139.773 65.082C139.671 65.0831 139.572 65.0502 139.491 64.9885C139.41 64.9268 139.353 64.8398 139.327 64.7413C139.061 63.737 139.321 63.2092 140.104 63.158C142.949 62.9661 146.653 63.3116 146.754 59.8427C147.186 45.3084 147.143 30.7757 146.624 16.2445C146.495 12.603 142.282 12.91 139.716 12.8908C139.636 12.8894 139.558 12.8663 139.492 12.8239C139.425 12.7816 139.371 12.7217 139.337 12.6509C139.084 12.1104 139.066 11.5682 139.284 11.0245C139.351 10.8581 139.474 10.7782 139.653 10.7846C145.804 11.0213 151.952 11.0069 158.096 10.7414C163.364 10.5111 168.815 10.5975 173.684 12.8045C180.379 15.8399 182.896 20.9864 181.236 28.244C179.936 33.9247 174.217 36.9713 168.915 39.1016C168.855 39.1262 168.8 39.1633 168.755 39.2105C168.71 39.2576 168.675 39.3137 168.653 39.3749C168.632 39.4362 168.623 39.5013 168.629 39.5658C168.634 39.6304 168.653 39.6929 168.685 39.7493C172.28 46.2456 176.528 52.2797 181.428 57.8516C184.46 61.3061 185.943 63.3691 190.323 63.1484C190.49 63.1388 190.602 63.2108 190.659 63.3643C190.99 64.2088 190.664 65.3459 189.522 65.2451C185.636 64.914 181.447 65.1251 177.518 65.0292C177.361 65.026 177.232 64.962 177.129 64.8373C172.562 59.1182 168.719 52.7563 164.684 46.6486C162.443 43.2565 159.315 40.349 154.925 40.7616C154.742 40.7776 154.646 40.8784 154.637 41.0639C154.384 47.5186 154.501 53.9701 154.987 60.4184C155.021 60.8642 155.227 61.2792 155.563 61.5747ZM156.239 13.6153C155.371 13.8552 154.877 15.0787 154.858 15.8559C154.669 23.2606 154.59 30.6733 154.622 38.094C154.622 38.1616 154.648 38.2266 154.693 38.2757C154.739 38.3248 154.801 38.3542 154.867 38.3579C162.342 38.8137 170.407 38.8425 172.782 30.1775C175.867 18.9122 167.514 10.5111 156.239 13.6153Z" fill="white"/>
<path d="M191.634 17.2191C191.634 18.3694 191.177 19.4726 190.363 20.286C189.55 21.0994 188.447 21.5563 187.296 21.5563C186.146 21.5563 185.043 21.0994 184.229 20.286C183.416 19.4726 182.959 18.3694 182.959 17.2191C182.959 16.0688 183.416 14.9656 184.229 14.1522C185.043 13.3388 186.146 12.8818 187.296 12.8818C188.447 12.8818 189.55 13.3388 190.363 14.1522C191.177 14.9656 191.634 16.0688 191.634 17.2191ZM190.842 17.2287C190.842 16.2769 190.464 15.364 189.791 14.691C189.118 14.018 188.205 13.6399 187.253 13.6399C186.301 13.6399 185.388 14.018 184.715 14.691C184.042 15.364 183.664 16.2769 183.664 17.2287C183.664 17.7 183.757 18.1666 183.937 18.602C184.118 19.0375 184.382 19.4331 184.715 19.7663C185.049 20.0996 185.444 20.3639 185.88 20.5443C186.315 20.7246 186.782 20.8175 187.253 20.8175C187.724 20.8175 188.191 20.7246 188.626 20.5443C189.062 20.3639 189.457 20.0996 189.791 19.7663C190.124 19.4331 190.388 19.0375 190.569 18.602C190.749 18.1666 190.842 17.7 190.842 17.2287Z" fill="white"/>
<path d="M186.217 17.8187L186.087 19.3588C186.075 19.5219 185.988 19.6035 185.828 19.6035C185.78 19.6035 185.735 19.6035 185.694 19.6035C185.662 19.6041 185.63 19.5984 185.601 19.5866C185.571 19.5748 185.544 19.5573 185.521 19.5349C185.498 19.5126 185.48 19.4859 185.468 19.4565C185.456 19.4271 185.449 19.3955 185.449 19.3636V15.4006C185.449 15.1927 185.553 15.0807 185.761 15.0647C186.985 14.9783 188.928 14.7049 189.153 16.3697C189.178 16.5554 189.13 16.7437 189.02 16.8955C188.909 17.0474 188.744 17.1512 188.558 17.1854C188.245 17.2429 188.085 17.4269 188.078 17.7371C188.075 17.8982 188.13 18.0548 188.232 18.1785L189.072 19.1957C189.099 19.2293 189.116 19.2697 189.122 19.3124C189.128 19.3551 189.122 19.3987 189.106 19.4385C189.089 19.4782 189.062 19.5128 189.027 19.5385C188.992 19.5641 188.951 19.58 188.908 19.5843C188.213 19.6371 187.555 17.929 186.692 17.5356C186.401 17.4045 186.242 17.4988 186.217 17.8187ZM188.145 16.3789C188.142 16.1906 188.031 16.0121 187.837 15.8826C187.642 15.7532 187.381 15.6834 187.11 15.6886C186.839 15.6938 186.581 15.7736 186.392 15.9104C186.202 16.0472 186.098 16.2298 186.102 16.4181C186.106 16.6064 186.217 16.7849 186.411 16.9144C186.605 17.0438 186.866 17.1137 187.137 17.1085C187.408 17.1033 187.667 17.0235 187.856 16.8866C188.045 16.7498 188.149 16.5672 188.145 16.3789Z" fill="white"/>
<path d="M52.7639 17.9147C52.8247 18.1802 52.9126 18.3881 53.0278 18.5384C52.6536 18.7655 52.2346 18.7783 51.7708 18.5768C51.6172 18.5096 51.5932 18.4105 51.6988 18.2793C51.9099 18.0139 52.2649 17.8923 52.7639 17.9147Z" fill="#7D8084"/>
<path d="M49.2954 19.2C49.4329 19.1137 49.4698 18.8994 49.4058 18.5571C49.6905 18.3428 49.9655 18.33 50.231 18.5187C50.3845 18.6243 50.4021 18.749 50.2838 18.893C50.0951 19.1265 49.7656 19.2288 49.2954 19.2Z" fill="#7D8084"/>
<path d="M72.2959 21.2868C72.2127 21.1812 71.968 21.1332 71.5618 21.1428L71.5282 20.9461C71.509 20.8438 71.5506 20.783 71.653 20.7638L72.1471 20.6679C72.1898 20.6598 72.2339 20.662 72.2755 20.6744C72.3172 20.6867 72.3553 20.7088 72.3867 20.7388C72.4182 20.7689 72.442 20.8059 72.4562 20.847C72.4704 20.888 72.4747 20.9319 72.4686 20.9749C72.4526 21.0997 72.395 21.2036 72.2959 21.2868Z" fill="#7D8084"/>
</svg>
