<svg width="176" height="92" viewBox="0 0 176 92" fill="none" xmlns="http://www.w3.org/2000/svg">
<path d="M69.5447 43.7529L122.516 43.3305C122.593 43.3305 122.653 43.363 122.697 43.428L127.151 50.3163C127.195 50.3844 127.176 50.4184 127.096 50.4184L49.2598 50.676C49.2507 50.6766 49.2416 50.6744 49.2339 50.6696C49.2261 50.6648 49.22 50.6577 49.2164 50.6493C49.2128 50.6409 49.212 50.6315 49.2139 50.6226C49.2159 50.6137 49.2205 50.6056 49.2273 50.5995L89.3739 9.11153C89.3847 9.1003 89.3977 9.09137 89.4121 9.08527C89.4265 9.07916 89.442 9.07602 89.4576 9.07602C89.4732 9.07602 89.4887 9.07916 89.503 9.08527C89.5174 9.09137 89.5304 9.1003 89.5413 9.11153L115.406 36.0963C115.465 36.1582 115.452 36.1892 115.366 36.1892L100.724 36.2774C100.65 36.2789 100.587 36.2534 100.536 36.2008L88.6787 24.3295C88.5935 24.2444 88.509 24.2444 88.4253 24.3295L69.5145 43.6786C69.4649 43.7297 69.475 43.7544 69.5447 43.7529Z" fill="white"/>
<path d="M58.7657 54.7606C60.0821 54.9721 60.8413 56.2072 60.6672 57.456C60.6579 57.5197 60.6207 57.5515 60.5557 57.5515H57.2079C57.112 57.5515 57.0679 57.5053 57.0756 57.4128C57.1731 56.0844 54.1759 56.4438 53.5513 56.6008C52.5461 56.8555 52.8247 59.1074 52.8734 59.8785C52.9268 60.7314 53.1915 60.9589 54.0528 61.084C54.9327 61.2091 57.3124 61.4252 57.0617 60.0286C57.0431 59.9315 57.0841 59.883 57.1847 59.883H60.5534C60.606 59.883 60.6354 59.9088 60.6416 59.9604C60.9156 62.235 59.056 62.9151 57.0802 63.0152C54.9861 63.1243 49.2749 63.6339 49.2563 60.322C49.2447 57.961 48.6968 55.3224 51.8473 54.8038C54.2169 54.4156 56.523 54.4012 58.7657 54.7606Z" fill="white"/>
<path d="M105.358 62.905C102.39 62.5661 102.802 60.0749 102.8 57.8493C102.797 55.4612 104.157 54.9071 106.274 54.6506C107.829 54.4613 109.386 54.4522 110.945 54.6231C112.726 54.8178 113.945 55.3879 113.752 57.4303C113.743 57.5219 113.694 57.5677 113.604 57.5677H110.524C110.434 57.5677 110.384 57.5227 110.374 57.4326C110.323 56.9487 110.061 56.664 109.587 56.5785C108.38 56.361 106.256 56.1206 106.218 57.8127C106.187 59.1338 106.084 59.9581 106.55 60.8213C106.587 60.889 106.648 60.9391 106.72 60.961C107.565 61.2175 110.401 61.6983 110.381 60.0154C110.381 59.9482 110.413 59.9146 110.479 59.9146H113.651C113.711 59.9146 113.745 59.9444 113.752 60.0039C114.025 62.1974 112.377 62.8912 110.596 63.0355C108.987 63.1652 107.241 63.1217 105.358 62.905Z" fill="white"/>
<path d="M116.187 62.1377C114.953 61.1855 115.256 59.724 115.235 58.3634C115.223 57.623 115.269 57.0869 115.372 56.755C116.168 54.2265 120.146 54.4674 122.421 54.5454C124.401 54.6143 127.139 54.9493 127.116 57.5213C127.098 59.5473 127.764 62.0712 125.005 62.6838C122.903 63.1519 117.986 63.5259 116.187 62.1377ZM123.579 60.0062L123.569 57.6246C123.569 57.4754 123.539 57.3279 123.48 57.1903C123.422 57.0527 123.337 56.9279 123.231 56.8228C123.124 56.7178 122.997 56.6346 122.858 56.5781C122.719 56.5216 122.569 56.4928 122.419 56.4934L120.203 56.5026C119.838 56.504 119.487 56.6292 119.229 56.8508C118.972 57.0724 118.827 57.3722 118.828 57.6842L118.838 59.9833C118.839 60.2951 118.986 60.5935 119.246 60.8129C119.505 61.0323 119.856 61.1548 120.222 61.1534L122.437 61.1465C122.588 61.1459 122.737 61.116 122.876 61.0583C123.014 61.0007 123.14 60.9165 123.246 60.8106C123.352 60.7047 123.436 60.5792 123.493 60.4412C123.55 60.3032 123.579 60.1553 123.579 60.0062Z" fill="white"/>
<path d="M69.9415 61.6446H65.3818C65.3668 61.6449 65.3522 61.6498 65.3399 61.6585C65.3276 61.6673 65.3181 61.6796 65.3127 61.6938L64.7707 63.0592C64.7652 63.0734 64.7557 63.0857 64.7434 63.0944C64.7311 63.1032 64.7165 63.108 64.7015 63.1084H61.2465C61.2337 63.1084 61.2211 63.1052 61.2098 63.0989C61.1986 63.0927 61.189 63.0836 61.1821 63.0727C61.1752 63.0617 61.1712 63.0491 61.1703 63.0361C61.1695 63.0231 61.1719 63.0101 61.1774 62.9983L65.0267 54.5459C65.0328 54.5326 65.0426 54.5213 65.0549 54.5134C65.0671 54.5055 65.0813 54.5014 65.0959 54.5014H70.1745C70.189 54.5014 70.2032 54.5055 70.2154 54.5134C70.2277 54.5213 70.2375 54.5326 70.2436 54.5459L74.0768 62.9983C74.0822 63.0101 74.0847 63.0231 74.0838 63.0361C74.083 63.0491 74.0789 63.0617 74.072 63.0727C74.0651 63.0836 74.0556 63.0927 74.0443 63.0989C74.0331 63.1052 74.0204 63.1084 74.0076 63.1084H70.6842C70.6694 63.1082 70.655 63.1037 70.6427 63.0954C70.6304 63.0871 70.6208 63.0753 70.615 63.0615L70.0107 61.6914C70.0049 61.6777 69.9952 61.6659 69.983 61.6576C69.9707 61.6493 69.9563 61.6447 69.9415 61.6446ZM66.1614 59.86C66.1568 59.8711 66.155 59.8832 66.1562 59.8952C66.1573 59.9072 66.1614 59.9187 66.168 59.9287C66.1747 59.9387 66.1837 59.9468 66.1942 59.9524C66.2047 59.958 66.2164 59.9608 66.2283 59.9607L69.1896 59.9349C69.2016 59.9349 69.2134 59.9318 69.2239 59.9259C69.2343 59.92 69.2432 59.9116 69.2496 59.9013C69.2561 59.891 69.2598 59.8793 69.2606 59.8672C69.2614 59.855 69.2592 59.8429 69.2542 59.8319L67.7436 56.4195C67.7378 56.4066 67.7285 56.3956 67.7166 56.388C67.7048 56.3803 67.6911 56.3764 67.6771 56.3767C67.6631 56.3769 67.6494 56.3813 67.6379 56.3894C67.6263 56.3974 67.6174 56.4087 67.6121 56.4219L66.1614 59.86Z" fill="white"/>
<path d="M78.4808 63.1084H75.1167C75.0965 63.1084 75.0771 63.1005 75.0628 63.0864C75.0486 63.0724 75.0405 63.0533 75.0405 63.0334V54.5764C75.0405 54.5565 75.0486 54.5374 75.0628 54.5234C75.0771 54.5093 75.0965 54.5014 75.1167 54.5014H80.995C81.008 54.5017 81.0208 54.5053 81.0321 54.5119C81.0434 54.5185 81.0527 54.5278 81.0592 54.5389L84.7781 60.8834C84.7863 60.8981 84.7993 60.9096 84.8149 60.9161C84.8306 60.9227 84.848 60.9239 84.8644 60.9196C84.8808 60.9153 84.8953 60.9057 84.9055 60.8923C84.9158 60.879 84.9212 60.8627 84.9209 60.846V54.5764C84.9209 54.5565 84.929 54.5374 84.9432 54.5234C84.9575 54.5093 84.9769 54.5014 84.9971 54.5014H88.3565C88.3767 54.5014 88.396 54.5093 88.4103 54.5234C88.4246 54.5374 88.4326 54.5565 88.4326 54.5764V63.0334C88.4326 63.0533 88.4246 63.0724 88.4103 63.0864C88.396 63.1005 88.3767 63.1084 88.3565 63.1084H82.4496C82.4366 63.1081 82.4238 63.1045 82.4125 63.0979C82.4013 63.0913 82.3919 63.082 82.3854 63.0709L78.7522 56.9043C78.744 56.8897 78.731 56.8782 78.7154 56.8717C78.6998 56.8651 78.6823 56.8639 78.6659 56.8682C78.6495 56.8725 78.635 56.8821 78.6248 56.8954C78.6145 56.9088 78.6091 56.9251 78.6094 56.9418L78.557 63.0334C78.557 63.0433 78.555 63.053 78.5512 63.0621C78.5474 63.0712 78.5418 63.0794 78.5347 63.0864C78.5276 63.0934 78.5192 63.0989 78.51 63.1027C78.5007 63.1064 78.4908 63.1084 78.4808 63.1084Z" fill="white"/>
<path d="M93.0883 61.6867L92.4829 63.0662C92.4772 63.0787 92.4681 63.0894 92.4566 63.0968C92.4451 63.1043 92.4318 63.1083 92.4182 63.1084H88.9822C88.9702 63.1083 88.9584 63.1052 88.9479 63.0993C88.9374 63.0934 88.9285 63.085 88.9221 63.0747C88.9156 63.0645 88.9119 63.0527 88.911 63.0406C88.9102 63.0285 88.9125 63.0163 88.9175 63.0053L92.744 54.5436C92.7497 54.5311 92.7588 54.5204 92.7703 54.513C92.7818 54.5055 92.7951 54.5015 92.8087 54.5014H97.9361C97.9498 54.5015 97.9631 54.5055 97.9745 54.513C97.986 54.5204 97.9951 54.5311 98.0008 54.5436L101.818 63.0053C101.823 63.0163 101.825 63.0285 101.825 63.0406C101.824 63.0527 101.82 63.0645 101.814 63.0747C101.807 63.085 101.798 63.0934 101.788 63.0993C101.777 63.1052 101.765 63.1083 101.753 63.1084H98.4607C98.4477 63.1081 98.435 63.1042 98.424 63.0972C98.413 63.0902 98.4041 63.0803 98.3983 63.0685L97.7305 61.6844C97.7246 61.6727 97.7157 61.6628 97.7047 61.6557C97.6938 61.6487 97.6811 61.6449 97.6681 61.6446H93.153C93.1394 61.6447 93.1261 61.6487 93.1146 61.6561C93.1031 61.6636 93.094 61.6742 93.0883 61.6867ZM96.9449 59.9607C96.9545 59.9607 96.9639 59.9583 96.9724 59.9537C96.9809 59.9491 96.9881 59.9424 96.9933 59.9343C96.9986 59.9261 97.0018 59.9168 97.0026 59.9071C97.0034 59.8974 97.0018 59.8876 96.998 59.8787L95.466 56.361C95.4598 56.3482 95.4502 56.3374 95.4382 56.3299C95.4262 56.3225 95.4123 56.3186 95.3983 56.3189C95.3842 56.3191 95.3705 56.3234 95.3587 56.3313C95.347 56.3392 95.3377 56.3503 95.332 56.3633L93.897 59.8811C93.877 59.9295 93.8924 59.9537 93.9433 59.9537L96.9449 59.9607Z" fill="white"/>
<path d="M57.572 70.1259C57.7455 69.8016 57.7463 69.4788 57.5743 69.1575C57.5551 69.1205 57.5267 69.0888 57.4917 69.0656C57.4567 69.0424 57.4164 69.0285 57.3745 69.0251C55.3156 68.8492 51.4395 69.3288 52.1738 65.8711C52.3891 64.857 53.0073 64.2945 54.0282 64.1833C55.1994 64.0554 58.4341 63.8476 59.3149 64.7063C59.792 65.1722 59.981 65.7812 59.8819 66.5334C59.8741 66.5928 59.8401 66.6225 59.7796 66.6225H57.6231C57.5834 66.6225 57.5451 66.6077 57.5162 66.5809C57.4873 66.5542 57.4698 66.5176 57.4674 66.4786C57.407 65.4052 54.4093 65.5057 54.6208 66.5859C54.9647 68.3262 60.4907 65.6016 60.2026 69.9067C60.1189 71.1925 59.4752 71.8297 58.1576 71.9987C56.1289 72.2567 52.032 72.7478 52.0971 69.6646C52.0987 69.5778 52.1436 69.5344 52.2319 69.5344H54.3163C54.4062 69.5344 54.4581 69.5778 54.472 69.6646C54.6487 70.7745 56.768 70.4799 57.3954 70.2744C57.4714 70.2494 57.5348 70.1961 57.572 70.1259Z" fill="white"/>
<path d="M64.2223 65.9168V67.223C64.2223 67.2436 64.2306 67.2634 64.2454 67.2779C64.2602 67.2925 64.2803 67.3007 64.3012 67.3007H68.3663C68.3769 67.3007 68.3873 67.3027 68.3971 67.3068C68.4068 67.3108 68.4156 67.3168 68.423 67.3242C68.4303 67.3317 68.4361 67.3405 68.4399 67.3502C68.4437 67.3599 68.4455 67.3703 68.4452 67.3807L68.4213 68.7551C68.4207 68.7753 68.4121 68.7944 68.3974 68.8085C68.3826 68.8226 68.3629 68.8304 68.3424 68.8304H64.3012C64.2803 68.8304 64.2602 68.8386 64.2454 68.8531C64.2306 68.8677 64.2223 68.8875 64.2223 68.9081V70.3719C64.2223 70.3925 64.2306 70.4123 64.2454 70.4268C64.2602 70.4414 64.2803 70.4496 64.3012 70.4496L68.7439 70.4519C68.7648 70.4519 68.7849 70.4601 68.7997 70.4747C68.8145 70.4892 68.8228 70.509 68.8228 70.5296V72.1158C68.8228 72.1364 68.8145 72.1561 68.7997 72.1707C68.7849 72.1853 68.7648 72.1935 68.7439 72.1935L61.7273 72.1793C61.7169 72.1793 61.7067 72.1773 61.6971 72.1734C61.6876 72.1695 61.6789 72.1638 61.6715 72.1566C61.6642 72.1494 61.6584 72.1408 61.6544 72.1314C61.6505 72.122 61.6484 72.1119 61.6484 72.1017L61.6556 64.1424C61.6556 64.1218 61.6639 64.102 61.6787 64.0874C61.6935 64.0729 61.7136 64.0647 61.7345 64.0647H68.6842C68.7051 64.0647 68.7252 64.0729 68.7399 64.0874C68.7547 64.102 68.763 64.1218 68.763 64.1424V65.7309C68.763 65.7515 68.7547 65.7713 68.7399 65.7858C68.7252 65.8004 68.7051 65.8086 68.6842 65.8086L64.3012 65.8392C64.2803 65.8392 64.2602 65.8474 64.2454 65.8619C64.2306 65.8765 64.2223 65.8963 64.2223 65.9168Z" fill="white"/>
<path d="M97.0429 64.4863L93.8644 69.2797C93.8551 69.2934 93.8502 69.3097 93.8504 69.3263V72.1119C93.8504 72.1228 93.8482 72.1336 93.8439 72.1437C93.8397 72.1537 93.8335 72.1628 93.8256 72.1704C93.8178 72.178 93.8085 72.1839 93.7984 72.1879C93.7882 72.1919 93.7773 72.1937 93.7664 72.1934L91.3644 72.1305C91.3432 72.1299 91.323 72.1211 91.3082 72.1059C91.2934 72.0906 91.2851 72.0702 91.2851 72.049V69.2843C91.2853 69.2677 91.2804 69.2515 91.2711 69.2378L88.3001 64.7891C88.2916 64.7766 88.2799 64.7667 88.2661 64.7605C88.2523 64.7543 88.2371 64.752 88.2221 64.7539C88.2071 64.7559 88.1929 64.7619 88.1812 64.7714C88.1694 64.7809 88.1605 64.7935 88.1555 64.8077L85.6043 72.1212C85.5985 72.137 85.588 72.1506 85.5743 72.1602C85.5605 72.1697 85.5441 72.1749 85.5273 72.1748H81.7191C81.7023 72.1749 81.6859 72.1697 81.6721 72.1602C81.6584 72.1506 81.6479 72.137 81.6421 72.1212L78.8717 64.1742C78.8671 64.1617 78.8656 64.1482 78.8675 64.135C78.8693 64.1218 78.8744 64.1092 78.8822 64.0984C78.89 64.0876 78.9004 64.0789 78.9124 64.073C78.9244 64.0672 78.9376 64.0643 78.951 64.0647L81.3623 64.088C81.3791 64.088 81.3955 64.0931 81.4092 64.1027C81.423 64.1123 81.4335 64.1259 81.4392 64.1416L83.5497 70.1228C83.5554 70.1387 83.5658 70.1525 83.5796 70.1622C83.5933 70.172 83.6098 70.1772 83.6267 70.1772C83.6436 70.1772 83.66 70.172 83.6738 70.1622C83.6876 70.1525 83.698 70.1387 83.7037 70.1228L85.7512 64.1416C85.7565 64.1254 85.7669 64.1113 85.7807 64.1013C85.7945 64.0913 85.8111 64.0858 85.8281 64.0857L90.6788 64.0694C90.6929 64.0694 90.7067 64.0731 90.719 64.08C90.7312 64.0869 90.7415 64.0969 90.7487 64.109L92.5538 67.1555C92.5612 67.1674 92.5716 67.1773 92.584 67.184C92.5964 67.1907 92.6103 67.1941 92.6244 67.1939C92.6385 67.1936 92.6522 67.1898 92.6644 67.1826C92.6765 67.1755 92.6866 67.1654 92.6937 67.1532L94.3471 64.1253C94.3542 64.1125 94.3647 64.1018 94.3775 64.0944C94.3902 64.087 94.4047 64.0832 94.4194 64.0834L104.613 64.0787C104.634 64.0787 104.655 64.0873 104.67 64.1026C104.686 64.1179 104.694 64.1386 104.694 64.1602V65.8046C104.694 65.8153 104.692 65.8259 104.688 65.8358C104.684 65.8457 104.678 65.8547 104.67 65.8622C104.663 65.8698 104.654 65.8758 104.644 65.8799C104.634 65.884 104.623 65.8861 104.613 65.8861H102.269C102.247 65.8861 102.227 65.8947 102.211 65.91C102.196 65.9253 102.187 65.946 102.187 65.9676V72.0746C102.187 72.0855 102.185 72.0963 102.181 72.1064C102.177 72.1164 102.171 72.1255 102.163 72.1331C102.155 72.1407 102.146 72.1467 102.135 72.1506C102.125 72.1546 102.114 72.1565 102.103 72.1562L99.7528 72.1003C99.7315 72.0997 99.7114 72.0908 99.6965 72.0756C99.6817 72.0604 99.6735 72.04 99.6735 72.0187L99.6828 65.9676C99.6828 65.946 99.6742 65.9253 99.6589 65.91C99.6436 65.8947 99.6228 65.8861 99.6012 65.8861H97.2481C97.2372 65.8861 97.2264 65.8839 97.2164 65.8797C97.2063 65.8755 97.1972 65.8693 97.1896 65.8614C97.182 65.8536 97.176 65.8443 97.1721 65.8342C97.1681 65.824 97.1662 65.8132 97.1665 65.8023L97.1922 64.5329C97.1924 64.5154 97.1869 64.4982 97.1766 64.484C97.1663 64.4699 97.1517 64.4594 97.1349 64.4541C97.1182 64.4489 97.1002 64.4492 97.0836 64.455C97.067 64.4608 97.0528 64.4718 97.0429 64.4863Z" fill="white"/>
<path d="M76.4836 69.059C76.4912 69.0809 76.498 69.1029 76.5041 69.1248C76.5087 69.1389 76.5186 69.1459 76.5339 69.1459C78.4149 69.2 78.3349 70.6262 78.2435 72.0548C78.2374 72.1457 78.1909 72.1903 78.1041 72.1888L75.855 72.1747C75.7849 72.1747 75.7491 72.1378 75.7476 72.0642C75.7362 71.5215 75.9076 70.4876 75.3545 70.1892C74.7991 69.8908 73.5374 69.9801 72.9203 70.0177C72.8718 70.0207 72.8263 70.0432 72.7935 70.0805C72.7606 70.1177 72.743 70.1668 72.7443 70.2174L72.7832 72.0971C72.7835 72.1097 72.7813 72.1221 72.7769 72.1338C72.7724 72.1455 72.7657 72.1561 72.7572 72.1651C72.7487 72.1741 72.7385 72.1812 72.7273 72.1861C72.716 72.191 72.7039 72.1935 72.6917 72.1935L70.3673 72.1723C70.2941 72.1723 70.2576 72.1339 70.2576 72.0572V64.1952C70.2576 64.1216 70.2934 64.084 70.365 64.0824C72.2377 64.0605 74.105 64.0589 75.967 64.0777C77.1388 64.0902 77.8862 64.6001 78.2092 65.6073C78.6595 67.0124 78.3166 68.8193 76.5499 68.9603C76.4889 68.965 76.4668 68.9979 76.4836 69.059ZM72.7763 66.042L72.7489 68.0392C72.7486 68.055 72.7513 68.0706 72.7569 68.0853C72.7625 68.0999 72.7708 68.1133 72.7814 68.1247C72.792 68.136 72.8047 68.1451 72.8187 68.1514C72.8328 68.1577 72.8479 68.1611 72.8632 68.1614L74.8951 68.1896C75.0051 68.1914 75.1143 68.1736 75.2164 68.1375C75.3186 68.1013 75.4117 68.0474 75.4905 67.9789C75.5693 67.9104 75.6321 67.8286 75.6754 67.7381C75.7188 67.6477 75.7417 67.5504 75.743 67.4518L75.7522 66.714C75.7548 66.5155 75.6694 66.3238 75.5147 66.181C75.36 66.0383 75.1487 65.9562 74.9271 65.9527L72.8952 65.9245C72.8799 65.9242 72.8646 65.927 72.8504 65.9328C72.8361 65.9385 72.8231 65.9471 72.8121 65.958C72.801 65.9689 72.7922 65.9819 72.7861 65.9963C72.7799 66.0108 72.7766 66.0263 72.7763 66.042Z" fill="white"/>
<path d="M110.611 72.1161C108.86 72.2642 105.196 72.4724 105.179 69.8603C105.166 67.9678 105.175 66.0714 105.205 64.1711C105.205 64.1002 105.243 64.0647 105.317 64.0647H107.656C107.749 64.0647 107.796 64.1087 107.797 64.1966L107.834 69.5341C107.835 69.7168 107.91 69.8922 108.044 70.0239C108.178 70.1557 108.36 70.2338 108.553 70.2421C109.164 70.2699 110.916 70.4804 111.064 69.6752C111.068 69.6567 111.072 69.3976 111.079 68.8979C111.1 67.3277 111.104 65.7575 111.091 64.1873C111.091 64.1056 111.134 64.0647 111.22 64.0647H113.649C113.729 64.0647 113.769 64.1025 113.771 64.1781C113.784 66.9884 113.786 68.7814 113.776 69.5573C113.749 71.4544 112.419 71.9634 110.611 72.1161Z" fill="white"/>
<path d="M121.605 69.0694C123.535 69.5755 123.204 70.1562 123.291 71.9077C123.293 71.939 123.288 71.9705 123.278 72C123.267 72.0295 123.25 72.0565 123.229 72.0792C123.207 72.102 123.181 72.12 123.152 72.1323C123.123 72.1445 123.092 72.1506 123.061 72.1502L120.856 72.1246C120.77 72.1246 120.728 72.081 120.729 71.994C120.743 71.1591 120.959 70.1073 119.809 69.9743C119.411 69.9277 118.759 69.9292 117.855 69.979C117.787 69.9836 117.753 70.0194 117.753 70.0863V71.9823C117.753 72.0538 117.72 72.1044 117.655 72.1339C117.471 72.2163 117.279 72.2132 117.08 72.1246C117.054 72.1123 117.026 72.1067 116.999 72.1082L115.405 72.1922C115.278 72.1984 115.215 72.137 115.217 72.008L115.228 64.1859C115.228 64.1144 115.264 64.0778 115.334 64.0763C117.198 64.0576 119.056 64.0615 120.906 64.0879C122.385 64.1089 123.206 64.7619 123.321 66.2965C123.457 68.0783 123.105 68.4141 121.601 68.9272C121.443 68.98 121.444 69.0275 121.605 69.0694ZM117.76 66.0306L117.742 68.0176C117.742 68.0334 117.744 68.0492 117.75 68.0639C117.756 68.0786 117.765 68.092 117.775 68.1033C117.786 68.1145 117.799 68.1235 117.814 68.1296C117.828 68.1358 117.844 68.1389 117.859 68.1389L119.904 68.1576C120.123 68.1594 120.334 68.0707 120.491 67.9111C120.648 67.7515 120.737 67.5339 120.738 67.3063L120.743 66.7979C120.744 66.6852 120.723 66.5734 120.683 66.4689C120.642 66.3644 120.582 66.2693 120.505 66.1889C120.429 66.1086 120.338 66.0446 120.238 66.0006C120.138 65.9567 120.031 65.9336 119.922 65.9327L117.878 65.914C117.847 65.914 117.817 65.9262 117.795 65.948C117.774 65.9698 117.761 65.9995 117.76 66.0306Z" fill="white"/>
<path d="M67.1931 80.255C66.1722 80.1837 65.2146 79.4202 65.0975 78.3945C64.9734 77.3366 64.8095 74.7471 65.6548 73.9468C66.6967 72.9579 68.9703 73.0384 70.1949 73.3925C72.0329 73.9261 71.6606 76.0119 71.6629 77.4102C71.6676 80.5011 69.6493 80.4275 67.1931 80.255ZM69.6636 75.5659C69.6634 75.4695 69.6439 75.3742 69.6062 75.2852C69.5685 75.1963 69.5134 75.1155 69.4439 75.0475C69.3744 74.9795 69.292 74.9256 69.2013 74.8889C69.1106 74.8522 69.0134 74.8334 68.9153 74.8336L67.8383 74.8354C67.7402 74.8356 67.6431 74.8547 67.5525 74.8917C67.462 74.9288 67.3797 74.9829 67.3105 75.0512C67.2413 75.1194 67.1864 75.2004 67.149 75.2895C67.1116 75.3785 67.0925 75.474 67.0927 75.5703L67.0969 77.939C67.097 78.0354 67.1165 78.1307 67.1542 78.2197C67.1919 78.3086 67.2471 78.3894 67.3166 78.4574C67.3861 78.5254 67.4685 78.5793 67.5592 78.616C67.6499 78.6527 67.747 78.6715 67.8451 78.6714L68.9222 78.6695C69.0203 78.6694 69.1174 78.6502 69.2079 78.6132C69.2985 78.5762 69.3807 78.522 69.45 78.4537C69.5192 78.3855 69.5741 78.3045 69.6114 78.2155C69.6488 78.1264 69.668 78.031 69.6678 77.9346L69.6636 75.5659Z" fill="white"/>
<path d="M76.7613 78.647C77.2595 77.9658 76.9353 77.5248 76.1416 77.5109C75.2788 77.494 74.5662 77.4216 74.0037 77.2939C72.4902 76.9498 72.4592 75.1672 72.8834 74.0819C73.3244 72.9551 75.9414 73.1098 76.9711 73.2391C78.2105 73.3931 78.7761 74.0673 78.6681 75.2619C78.6601 75.3496 78.6109 75.3935 78.5203 75.3935H76.9854C76.8996 75.3935 76.8447 75.3542 76.8209 75.2757L76.7041 74.9063C76.6803 74.8324 76.6294 74.787 76.5516 74.77C76.1392 74.6869 74.7211 74.4906 74.5948 75.1372C74.4923 75.6613 74.7926 75.8969 75.3122 75.9315C77.3762 76.07 78.9732 75.7445 78.8611 78.4184C78.7682 80.6513 76.635 80.3164 74.8259 80.2887C73.3561 80.2656 72.6403 79.5429 72.6785 78.1205C72.68 78.0343 72.7261 77.9912 72.8167 77.9912H74.3683C74.4589 77.9912 74.5066 78.0351 74.5113 78.1228C74.5471 79.0742 76.0153 78.8917 76.5849 78.7624C76.658 78.7455 76.7168 78.707 76.7613 78.647Z" fill="white"/>
<path d="M86.5612 80.3178C84.6694 80.3039 82.8029 80.6063 82.7433 77.9819C82.7067 76.373 82.4227 74.1756 83.7533 73.5386C84.784 73.0469 86.5658 73.0631 87.7384 73.3562C88.7439 73.6078 88.934 74.6234 88.9088 75.5952C88.9073 75.6629 88.8729 75.6967 88.8057 75.6967H87.0857C87.0486 75.6969 87.0127 75.6832 86.9848 75.6581C86.9569 75.633 86.939 75.5982 86.9345 75.5605L86.8887 75.1566C86.8765 75.0535 86.8223 74.985 86.7261 74.9512C86.2749 74.7896 84.8206 74.5888 84.7198 75.3667C84.5435 76.7331 84.1656 79.653 86.7009 78.5866C86.7758 78.5558 86.8231 78.5004 86.8429 78.4204L87.0078 77.7487C87.0231 77.6887 87.0613 77.6587 87.1224 77.6587H88.7462C88.8256 77.6587 88.8691 77.698 88.8767 77.7764C89.0622 79.466 88.1438 80.3293 86.5612 80.3178Z" fill="white"/>
<path d="M108.232 80.2289C105.943 80.5032 103.819 80.3203 103.779 77.6189C103.757 76.2773 103.575 74.9517 104.202 74.0809C105.065 72.8811 108.019 73.0433 109.147 73.4501C110.691 74.0032 110.431 76.2956 110.396 77.8954C110.366 79.2804 109.644 80.0583 108.232 80.2289ZM108.39 75.5459C108.39 75.4505 108.371 75.356 108.333 75.2678C108.295 75.1796 108.24 75.0995 108.17 75.032C108.1 74.9645 108.017 74.911 107.926 74.8745C107.835 74.8379 107.737 74.8192 107.638 74.8192H106.489C106.289 74.8192 106.098 74.8957 105.957 75.032C105.816 75.1683 105.737 75.3532 105.737 75.5459V77.9046C105.737 78 105.756 78.0945 105.794 78.1827C105.832 78.2709 105.887 78.351 105.957 78.4185C106.027 78.486 106.11 78.5395 106.201 78.576C106.292 78.6125 106.39 78.6313 106.489 78.6313H107.638C107.737 78.6313 107.835 78.6125 107.926 78.576C108.017 78.5395 108.1 78.486 108.17 78.4185C108.24 78.351 108.295 78.2709 108.333 78.1827C108.371 78.0945 108.39 78 108.39 77.9046V75.5459Z" fill="white"/>
<path d="M115.039 78.6343C115.216 78.31 115.218 77.9857 115.047 77.6614C115.026 77.6236 114.996 77.5919 114.959 77.5696C114.922 77.5472 114.88 77.5351 114.837 77.5346C113.752 77.513 112.887 77.4354 112.244 77.3017C110.785 77.002 110.871 75.8054 110.955 74.5581C111.069 72.8428 114.377 73.0895 115.502 73.2947C116.665 73.5068 116.917 74.2469 116.886 75.2867C116.885 75.3635 116.844 75.4019 116.765 75.4019H115.211C115.095 75.4019 115.04 75.3466 115.047 75.2359C115.085 74.4659 113.161 74.5535 112.854 75.0676C112.697 75.332 112.775 75.5841 113.09 75.8239C113.145 75.8654 113.208 75.8899 113.278 75.8976C114.448 76.0175 116.753 75.7916 117.039 77.2879C117.346 78.9017 116.929 80.285 114.982 80.2943C113.2 80.3035 110.771 80.7046 110.919 78.1363C110.924 78.0625 110.964 78.0233 111.04 78.0187C111.838 77.968 112.36 77.9611 112.606 77.998C112.773 78.0226 112.825 78.1248 112.763 78.3046C112.75 78.3447 112.748 78.3877 112.758 78.4289C112.768 78.47 112.79 78.5076 112.821 78.5375C113.266 78.9709 114.363 78.8625 114.865 78.7611C114.902 78.7539 114.936 78.7388 114.966 78.7169C114.997 78.6949 115.021 78.6667 115.039 78.6343Z" fill="white"/>
<path d="M64.9963 78.7781V80.2335C64.9963 80.2571 64.9872 80.2796 64.971 80.2962C64.9547 80.3128 64.9327 80.3222 64.9098 80.3222H60.2998C60.2769 80.3222 60.2549 80.3128 60.2387 80.2962C60.2225 80.2796 60.2134 80.2571 60.2134 80.2335L60.2202 73.2384C60.2202 73.2149 60.2293 73.1923 60.2455 73.1757C60.2617 73.1591 60.2837 73.1497 60.3067 73.1497H61.9404C61.9518 73.1497 61.963 73.152 61.9735 73.1565C61.984 73.161 61.9935 73.1675 62.0016 73.1757C62.0096 73.1839 62.0159 73.1937 62.0203 73.2045C62.0246 73.2152 62.0269 73.2267 62.0269 73.2384L62.0974 78.6008C62.0974 78.6243 62.1065 78.6469 62.1227 78.6635C62.139 78.6801 62.1609 78.6894 62.1839 78.6894H64.9098C64.9327 78.6894 64.9547 78.6988 64.971 78.7154C64.9872 78.732 64.9963 78.7546 64.9963 78.7781Z" fill="white"/>
<path d="M94.2039 79.0393H91.8052C91.7764 79.0393 91.7484 79.0486 91.7254 79.0659C91.7025 79.0832 91.6859 79.1074 91.6782 79.1349L91.3725 80.2266C91.3647 80.2541 91.3481 80.2783 91.3252 80.2956C91.3023 80.3129 91.2743 80.3222 91.2455 80.3222H89.5193C89.4989 80.3219 89.4789 80.317 89.4607 80.3078C89.4426 80.2986 89.4269 80.2853 89.4148 80.269C89.4027 80.2527 89.3946 80.2339 89.3911 80.214C89.3876 80.1941 89.3888 80.1736 89.3947 80.1542L91.4877 73.2431C91.4958 73.216 91.5126 73.1922 91.5355 73.1754C91.5584 73.1586 91.5862 73.1496 91.6147 73.1498H94.3333C94.3618 73.1496 94.3896 73.1586 94.4125 73.1754C94.4354 73.1922 94.4521 73.216 94.4603 73.2431L96.558 80.1542C96.5638 80.1736 96.5651 80.1941 96.5616 80.214C96.5581 80.2339 96.55 80.2527 96.5379 80.269C96.5258 80.2853 96.5101 80.2986 96.4919 80.3078C96.4738 80.317 96.4538 80.3219 96.4334 80.3222H94.7825C94.754 80.3224 94.7262 80.3134 94.7033 80.2965C94.6804 80.2797 94.6636 80.256 94.6555 80.2289L94.3309 79.1326C94.3228 79.1055 94.306 79.0818 94.2831 79.065C94.2602 79.0481 94.2324 79.0391 94.2039 79.0393ZM92.1579 77.5092C92.154 77.5236 92.1534 77.5387 92.1563 77.5534C92.1591 77.5681 92.1653 77.5819 92.1744 77.5939C92.1835 77.6058 92.1952 77.6155 92.2087 77.6223C92.2221 77.629 92.2369 77.6326 92.252 77.6328L93.7171 77.6445C93.7324 77.6446 93.7475 77.6413 93.7612 77.6347C93.775 77.6281 93.787 77.6184 93.7964 77.6065C93.8057 77.5945 93.8121 77.5805 93.8151 77.5657C93.8181 77.5508 93.8176 77.5355 93.8135 77.5209L93.101 74.8525C93.0952 74.8318 93.0828 74.8135 93.0656 74.8005C93.0484 74.7875 93.0274 74.7805 93.0057 74.7805C92.9841 74.7805 92.9631 74.7875 92.9458 74.8005C92.9286 74.8135 92.9162 74.8318 92.9105 74.8525L92.1579 77.5092Z" fill="white"/>
<path d="M102.014 76.612C102.001 76.6185 101.991 76.6292 101.985 76.6422C101.979 76.6552 101.978 76.6698 101.981 76.6837C101.985 76.6975 101.993 76.7097 102.005 76.7183C102.017 76.727 102.031 76.7315 102.045 76.7311C103.402 76.6681 103.362 78.3572 103.145 79.196C102.933 80.0161 102.25 80.2637 101.473 80.2847C100.023 80.3237 98.6198 80.3323 97.2636 80.3104C97.2039 80.3092 97.1471 80.2852 97.1056 80.2437C97.0641 80.2021 97.0411 80.1463 97.0418 80.0885L97.0489 73.306C97.0489 73.2172 97.0942 73.1721 97.1849 73.1705C99.3679 73.1285 100.949 73.1503 101.928 73.2359C103.333 73.3598 103.207 75.1144 103.002 76.0396C102.996 76.0674 102.984 76.0934 102.966 76.1156C102.949 76.1379 102.927 76.1558 102.902 76.1681L102.014 76.612ZM98.9545 74.799V75.9064C98.9545 75.9299 98.964 75.9525 98.981 75.9692C98.998 75.9858 99.0211 75.9952 99.0451 75.9952L100.56 75.9928C100.646 75.9928 100.731 75.9779 100.811 75.9488C100.891 75.9198 100.963 75.8772 101.024 75.8236C101.085 75.77 101.133 75.7064 101.166 75.6364C101.199 75.5664 101.216 75.4914 101.215 75.4158V75.2803C101.215 75.1282 101.145 74.9826 101.022 74.8753C100.9 74.768 100.733 74.7078 100.56 74.7078L99.0451 74.7102C99.0211 74.7102 98.998 74.7195 98.981 74.7362C98.964 74.7528 98.9545 74.7754 98.9545 74.799ZM98.9521 77.4788V78.5956C98.9521 78.6334 98.9674 78.6696 98.9947 78.6963C99.022 78.7231 99.059 78.7381 99.0976 78.7381H100.638C100.825 78.7381 101.004 78.6733 101.136 78.5581C101.268 78.4429 101.342 78.2866 101.342 78.1236V77.9507C101.342 77.7878 101.268 77.6315 101.136 77.5162C101.004 77.401 100.825 77.3363 100.638 77.3363H99.0976C99.059 77.3363 99.022 77.3513 98.9947 77.378C98.9674 77.4047 98.9521 77.441 98.9521 77.4788Z" fill="white"/>
</svg>
