<?xml version="1.0" encoding="utf-8"?>
<!-- Generator: Adobe Illustrator 24.2.1, SVG Export Plug-In . SVG Version: 6.00 Build 0)  -->
<svg version="1.1" id="Layer_1" xmlns="http://www.w3.org/2000/svg" xmlns:xlink="http://www.w3.org/1999/xlink" x="0px" y="0px"
	 viewBox="0 0 1366 768" style="enable-background:new 0 0 1366 768;" xml:space="preserve">
<style type="text/css">
	.st0{fill:#FFFFFF;}
	.st1{fill:#BFBA86;}
</style>
<g>
	<g>
		<path class="st0" d="M734.08,423.91c0,1.12-0.9,2.02-2.03,2.02c-1.11,0-2.01-0.9-2.01-2.02c0-1.11,0.9-2.01,2.01-2.01
			C733.18,421.91,734.08,422.8,734.08,423.91z M733.8,423.91c0-0.95-0.78-1.73-1.75-1.73c-0.95,0-1.73,0.78-1.73,1.73
			c0,0.96,0.78,1.75,1.73,1.75C733.01,425.66,733.8,424.87,733.8,423.91z M732.53,424.21l0.64,0.76h-0.57l-0.56-0.72h-0.36v0.72
			h-0.48v-2.24h0.94c0.62,0,1,0.29,1,0.76C733.13,423.86,732.91,424.11,732.53,424.21z M731.67,423.12v0.77h0.46
			c0.33,0,0.52-0.13,0.52-0.39c0-0.25-0.2-0.38-0.52-0.38H731.67z"/>
	</g>
	<g>
		<g>
			<path class="st1" d="M707.03,366.95c1.92,0.29,3.62,0.38,4.99,0.38c0,0,0,0,0,0c3.15,0,5.21-0.46,5.43-0.51
				c1.45-0.34,2.61-1.45,3.01-2.89c4.11-14.77-1.06-26.61-1.28-27.11c-0.59-1.32-1.83-2.23-3.26-2.4c-1.46-0.17-2.92-0.26-4.36-0.26
				c-1.4,0-2.76,0.08-4.05,0.23c2.72-3.62,3.9-6.58,4.01-6.85c0.55-1.43,0.26-3.05-0.75-4.19c-9.58-10.86-22.67-13.12-23.22-13.21
				c-0.22-0.04-0.44-0.05-0.67-0.05c-1.35,0-2.63,0.67-3.4,1.81c-1.88,2.8-3.25,5.56-4.23,8.22c-1.89-5.25-4.4-8.39-4.61-8.64
				c-0.79-0.96-1.96-1.5-3.17-1.5c-0.31,0-0.62,0.04-0.93,0.11c-14.52,3.4-22.56,12.57-22.9,12.95c-1.01,1.17-1.27,2.8-0.69,4.23
				c1.36,3.32,3.13,6.12,5.07,8.48c-2.5-0.46-4.71-0.59-6.43-0.59c-2.23,0-3.66,0.23-3.81,0.25c-1.45,0.24-2.66,1.24-3.17,2.62
				c-4.86,13.12-1,25.58-0.83,26.1c0.48,1.51,1.8,2.61,3.37,2.82c1.68,0.22,3.37,0.33,5.03,0.33c1.96,0,3.81-0.15,5.55-0.42
				c-4.02,5.09-5.52,9.73-5.63,10.09c-0.43,1.38-0.11,2.88,0.85,3.95c9.37,10.51,21.43,13.04,21.94,13.14
				c0.27,0.05,0.54,0.08,0.81,0.08c1.21,0,2.37-0.53,3.16-1.48c2.86-3.45,4.74-7.04,5.95-10.52c2.6,6.74,6.46,10.59,6.75,10.87
				c0.77,0.75,1.8,1.16,2.86,1.16c0.33,0,0.67-0.04,1-0.12c14.01-3.53,21.9-13.27,22.23-13.69c0.91-1.14,1.14-2.67,0.62-4.02
				C710.85,372.61,709.04,369.53,707.03,366.95z M715.44,338.5c0,0,4.84,10.83,1.07,24.34c0,0-13.7,3.23-25.96-8.52
				c0,0,1.46-1.93,2.35-2.81c9.5,9.36,20.7,7.99,20.7,7.99c1.96-8.61-0.8-17.55-0.8-17.55c-12.67-0.84-20.99,8.42-20.99,8.42
				s-1.42,1.54-2.37,2.83c0,0-1.37,2.05-2.31,3.79c-1.98-0.5-3.75-0.7-3.75-0.7c0.99-2.13,2.22-4.12,3.65-5.95
				c0,0,1.56-1.93,2.49-2.87C689.52,347.47,699.08,336.55,715.44,338.5z M697.95,350.5c2.58-1.84,6.62-4.03,11.6-4.43
				c0.43,2.31,0.86,5.74,0.55,9.31C707.12,355.09,702.48,354.03,697.95,350.5z M686.89,314.19c0,0,12.08,1.99,20.81,11.88
				c0,0-4.83,12.46-18.99,16.98c0,0-1.02-2.47-1.26-3.43c10.61-2.97,15.86-12.95,15.86-12.95c-6.17-6.03-14.73-8.34-14.73-8.34
				c-6.32,10.32-2.58,21.64-2.58,21.64s0.69,2.2,1.31,3.49c0,0,0.64,1.44,1.42,2.78c0,0-1.02,0.84-2.61,2.78
				c-0.99-1.51-1.85-3.11-2.56-4.79c-0.59-1.3-1.17-3.56-1.17-3.56S677.66,327.89,686.89,314.19z M690.6,323.4
				c2.01,0.83,4.72,2.14,7.28,4.03c-1.72,2.22-4.65,5.31-8.73,7.21C688.85,331.71,688.91,327.56,690.6,323.4z M650.75,325.71
				c0,0,7.34-8.51,20.73-11.64c0,0,8.34,10.2,4.97,25.07c-1.08-0.06-3.6-0.68-3.6-0.68c2.69-11.56-3.01-20.19-3.01-20.19
				c-8.69,2.26-14.68,8.15-14.68,8.15c6.43,11.43,17.29,13.56,17.29,13.56s1.87,0.45,3.62,0.67c0,0,2.5,0.25,4.72,0.16
				c0.22,0.87,1.19,3.61,1.19,3.61c-0.9,0.09-1.81,0.14-2.74,0.14c-1.52,0-3-0.15-4.46-0.36c-1.82-0.22-3.62-0.78-3.62-0.78
				S656.59,339.97,650.75,325.71z M669.36,334.52c-2.54-1.24-5.9-3.44-8.77-7.26c1.71-1.25,4.19-2.82,7.17-4
				C668.75,325.74,669.84,329.71,669.36,334.52z M641.69,362.87c0,0-3.66-11.48,0.77-23.43c0,0,13.27-2.21,24.36,8.17
				c-0.84,1.17-2.36,2.8-2.36,2.8c-8.63-8.21-19.36-7.47-19.36-7.47c-2.45,7.95-0.51,16.59-0.51,16.59
				c13.59,0.48,20.96-8.02,20.96-8.02s1.39-1.47,2.42-2.77c0,0,1.46-2.03,2.48-3.89c0.85,0.25,3.66,0.82,3.66,0.82
				c-1.04,2.14-2.32,4.14-3.8,5.98c-0.68,0.88-2.42,2.69-2.42,2.69S658.49,365.07,641.69,362.87z M659.3,351.44
				c-2.41,1.61-6.16,3.44-11.17,3.9c-0.2-2.16-0.29-5.13,0.19-8.16C651.09,347.53,655.28,348.54,659.3,351.44z M669.71,390.01
				c0,0-11.13-2.25-19.69-11.85c0,0,4.25-13.58,18.91-18.88c0.67,1.38,1.34,3.41,1.34,3.41c-11.73,4.15-15.98,14.65-15.98,14.65
				c6.22,6.36,13.97,8.51,13.97,8.51c7.97-11.04,3.56-23.65,3.56-23.65c-0.39-1.39-1.33-3.43-1.33-3.43s-0.93-1.75-1.76-3.13
				c0,0,1.97-1.89,2.52-2.68c1.09,1.59,2.04,3.28,2.82,5.07c0,0,0.56,1.11,1.35,3.41C675.41,361.43,680.53,376.94,669.71,390.01z
				 M666.55,380.82c-1.92-0.85-4.58-2.26-7.15-4.37c1.54-2.44,4.51-6.18,9.4-8.68C669.17,371.11,669.05,376,666.55,380.82z
				 M688.42,390.03c0,0-10.54-10.26-7.19-27.18c0,0,1.97,0.18,3.64,0.52c-2.95,14.29,4.88,22.52,4.88,22.52
				c10.12-3.4,14.37-8.95,14.37-8.95c-6.19-13.09-18.89-15.14-18.89-15.14c-1.2-0.27-3.65-0.55-3.65-0.55s-2.41-0.23-4.74-0.02
				c-0.34-1.32-1.22-3.45-1.22-3.45c1.18-0.15,2.39-0.24,3.61-0.24c1.18,0,2.35,0.08,3.5,0.21c0,0,2.18,0.28,3.75,0.57
				c0,0,15.6,2.9,21.96,19.43C708.45,377.77,701.26,386.8,688.42,390.03z M688.44,367.09c3.1,1.33,7.44,4,10.63,9.12
				c-1.55,1.32-4.12,3.16-7.85,4.75C689.74,378.44,687.76,373.72,688.44,367.09z"/>
			<path class="st1" d="M678.2,312.95c0.42,0.93,1.73,0.94,2.16,0.01c0.82-1.8,2.06-4.28,3.5-6.48c0.49-0.75,0.04-1.76-0.86-1.85
				c-1.02-0.1-2.37-0.19-3.88-0.19c-1.41,0-2.67,0.06-3.67,0.13c-0.92,0.07-1.41,1.12-0.87,1.87
				C676.1,308.55,677.36,311.09,678.2,312.95z"/>
			<path class="st1" d="M680.35,391.14c-0.42-0.93-1.74-0.92-2.16,0.01c-0.83,1.85-2.1,4.4-3.61,6.51c-0.54,0.75-0.05,1.8,0.87,1.87
				c0.99,0.07,2.26,0.14,3.67,0.13c1.51,0,2.86-0.09,3.88-0.19c0.9-0.09,1.35-1.09,0.86-1.85
				C682.41,395.42,681.18,392.94,680.35,391.14z"/>
			<path class="st1" d="M637.53,332.28c2.59-0.2,5.42,0.03,7.44,0.28c1.01,0.12,1.7-1,1.13-1.84c-1.12-1.64-2.6-3.97-3.74-6.35
				c-0.39-0.81-1.48-0.94-2.02-0.22c-0.61,0.82-1.39,1.93-2.17,3.22c-0.73,1.2-1.33,2.32-1.78,3.21
				C635.96,331.39,636.61,332.35,637.53,332.28z"/>
			<path class="st1" d="M720.99,369.94c-2.63,0.2-5.39,0.08-7.37-0.08c-1.02-0.08-1.65,1.08-1.03,1.89
				c1.22,1.63,2.83,3.96,3.94,6.31c0.4,0.83,1.55,0.92,2.05,0.14c0.54-0.83,1.21-1.91,1.89-3.14c0.73-1.32,1.3-2.54,1.71-3.49
				C722.55,370.76,721.89,369.87,720.99,369.94z"/>
			<path class="st1" d="M712.76,332.62c2.02-0.25,4.85-0.47,7.44-0.27c0.92,0.07,1.57-0.89,1.15-1.71c-0.45-0.89-1.05-2-1.78-3.21
				c-0.78-1.29-1.55-2.4-2.17-3.22c-0.54-0.72-1.63-0.59-2.02,0.22c-1.14,2.38-2.63,4.71-3.75,6.35
				C711.06,331.62,711.75,332.74,712.76,332.62z"/>
			<path class="st1" d="M644.21,370.2c-2.03,0.16-4.86,0.26-7.44-0.06c-0.92-0.11-1.61,0.82-1.22,1.66
				c0.41,0.91,0.96,2.05,1.63,3.28c0.72,1.33,1.45,2.47,2.02,3.32c0.5,0.74,1.61,0.66,2.03-0.13c1.24-2.33,2.83-4.59,4.02-6.18
				C645.87,371.27,645.23,370.12,644.21,370.2z"/>
		</g>
		<g>
			<path class="st0" d="M637.6,463.42l-2.25-3.05h-1.74v3.05h-1.68v-9.12h3.76c2.45,0,3.91,1.11,3.91,3.05
				c0,1.46-0.82,2.44-2.29,2.83l2.42,3.24H637.6z M633.6,455.78v3.11h2.03c1.45,0,2.28-0.39,2.28-1.52c0-1.11-0.83-1.59-2.27-1.59
				H633.6z"/>
			<path class="st0" d="M643.36,461.93h5.61v1.48h-7.27v-9.12h7.14v1.48h-5.48v2.19h4.91v1.49h-4.91V461.93z"/>
			<path class="st0" d="M658.33,463.42l-0.72-1.68h-4.88l-0.72,1.68h-1.77l3.89-9.12h2.07l3.91,9.12H658.33z M653.37,460.24h3.61
				l-1.8-4.25L653.37,460.24z"/>
			<path class="st0" d="M661.92,463.42v-9.12h1.67v7.63h4.99v1.48H661.92z"/>
			<path class="st0" d="M676.13,461.93h5.61v1.48h-7.27v-9.12h7.14v1.48h-5.48v2.19h4.91v1.49h-4.91V461.93z"/>
			<path class="st0" d="M683.33,462.74l0.16-1.52c1.06,0.56,2.55,0.82,3.61,0.82c1.11,0,2.08-0.17,2.08-1.13
				c0-0.94-0.77-1.12-2.2-1.42c-2.24-0.4-3.44-1.08-3.44-2.63c0-1.81,1.71-2.7,3.69-2.7c1.12,0,2.17,0.21,3.16,0.69l-0.29,1.54
				c-1.07-0.49-1.94-0.7-2.88-0.7c-1.08,0-1.9,0.18-1.9,1.11c0,0.73,0.6,0.91,2.08,1.22c2.27,0.42,3.56,1.15,3.56,2.83
				c0,1.82-1.82,2.72-3.84,2.72C685.62,463.56,684.26,463.29,683.33,462.74z"/>
			<path class="st0" d="M699.69,454.3v1.48h-3.06v7.63h-1.69v-7.63h-3.05v-1.48H699.69z"/>
			<path class="st0" d="M707.47,463.42l-0.72-1.68h-4.88l-0.72,1.68h-1.77l3.89-9.12h2.07l3.91,9.12H707.47z M702.51,460.24h3.61
				l-1.8-4.25L702.51,460.24z"/>
			<path class="st0" d="M716.76,454.3v1.48h-3.06v7.63h-1.69v-7.63h-3.05v-1.48H716.76z"/>
			<path class="st0" d="M720.34,461.93h5.61v1.48h-7.27v-9.12h7.14v1.48h-5.48v2.19h4.91v1.49h-4.91V461.93z"/>
		</g>
		<g>
			<path class="st0" d="M653.89,443.3h-7.94l-5.35-7.03c-0.6-0.8-1.87-0.37-1.87,0.63v6.43h-6.82l0.03-21.79h6.78v6.07
				c0,0.99,1.26,1.42,1.86,0.63l5.11-6.73h7.94l-8.34,10.68L653.89,443.3z"/>
			<path class="st0" d="M654.95,443.33v-21.79h6.72v16.18h10.43v5.6H654.95z"/>
			<path class="st0" d="M680.58,437.98h12.14v5.35h-18.77v-21.79h18.49v5.35h-11.86v2.93h10.33v4.89h-10.33V437.98z"/>
			<path class="st0" d="M694.65,443.33v-21.79h6.78v21.79H694.65z"/>
			<path class="st0" d="M704.2,443.33v-21.79h6.23l7.24,8.97c0.62,0.76,1.85,0.33,1.85-0.65v-8.32h6.82v21.79h-6.04l-7.43-9.21
				c-0.63-0.78-1.88-0.33-1.88,0.66v8.55H704.2z"/>
		</g>
	</g>
</g>
</svg>
