<svg width="103" height="160" viewBox="0 0 103 160" fill="none" xmlns="http://www.w3.org/2000/svg">
<path d="M102.17 119.47C102.17 120.59 101.27 121.49 100.14 121.49C99.03 121.49 98.13 120.59 98.13 119.47C98.13 118.36 99.03 117.46 100.14 117.46C101.27 117.47 102.17 118.36 102.17 119.47ZM101.89 119.47C101.89 118.52 101.11 117.74 100.14 117.74C99.19 117.74 98.41 118.52 98.41 119.47C98.41 120.43 99.19 121.22 100.14 121.22C101.1 121.22 101.89 120.43 101.89 119.47ZM100.62 119.77L101.26 120.53H100.69L100.13 119.81H99.77V120.53H99.29V118.29H100.23C100.85 118.29 101.23 118.58 101.23 119.05C101.22 119.42 101 119.67 100.62 119.77ZM99.76 118.68V119.45H100.22C100.55 119.45 100.74 119.32 100.74 119.06C100.74 118.81 100.54 118.68 100.22 118.68H99.76Z" fill="#0B3B60"/>
<path d="M75.1201 62.51C77.0401 62.8 78.7401 62.89 80.1101 62.89C83.2601 62.89 85.3201 62.43 85.5401 62.38C86.9901 62.04 88.1501 60.93 88.5501 59.49C92.6601 44.72 87.4901 32.88 87.2701 32.38C86.6801 31.06 85.4401 30.15 84.0101 29.98C82.5501 29.81 81.0901 29.72 79.6501 29.72C78.2501 29.72 76.8901 29.8 75.6001 29.95C78.3201 26.33 79.5001 23.37 79.6101 23.1C80.1601 21.67 79.8701 20.05 78.8601 18.91C69.2801 8.05003 56.1901 5.79004 55.6401 5.70004C55.4201 5.66004 55.2001 5.65002 54.9701 5.65002C53.6201 5.65002 52.3401 6.32002 51.5701 7.46002C49.6901 10.26 48.3201 13.02 47.3401 15.68C45.4501 10.43 42.9401 7.29004 42.7301 7.04004C41.9401 6.08004 40.77 5.54004 39.56 5.54004C39.25 5.54004 38.9401 5.58002 38.6301 5.65002C24.1101 9.05002 16.0701 18.22 15.7301 18.6C14.7201 19.77 14.4601 21.4 15.0401 22.83C16.4001 26.15 18.1701 28.95 20.1101 31.31C17.6101 30.85 15.4001 30.72 13.6801 30.72C11.4501 30.72 10.0201 30.95 9.87011 30.97C8.42011 31.21 7.21006 32.21 6.70006 33.59C1.84006 46.71 5.70011 59.17 5.87011 59.69C6.35011 61.2 7.6701 62.3 9.2401 62.51C10.9201 62.73 12.6101 62.84 14.2701 62.84C16.2301 62.84 18.0801 62.69 19.8201 62.42C15.8001 67.51 14.3001 72.15 14.1901 72.51C13.7601 73.89 14.0801 75.39 15.0401 76.46C24.4101 86.97 36.4701 89.5 36.9801 89.6C37.2501 89.65 37.5201 89.68 37.7901 89.68C39.0001 89.68 40.1601 89.15 40.9501 88.2C43.8101 84.75 45.6901 81.16 46.9001 77.68C49.5001 84.42 53.3601 88.27 53.6501 88.55C54.4201 89.3 55.4501 89.71 56.5101 89.71C56.8401 89.71 57.1801 89.67 57.5101 89.59C71.5201 86.06 79.4101 76.32 79.7401 75.9C80.6501 74.76 80.8801 73.23 80.3601 71.88C78.9401 68.17 77.1301 65.09 75.1201 62.51ZM83.5301 34.06C83.5301 34.06 88.3701 44.89 84.6001 58.4C84.6001 58.4 70.9001 61.63 58.6401 49.88C58.6401 49.88 60.1001 47.95 60.9901 47.07C70.4901 56.43 81.6901 55.06 81.6901 55.06C83.6501 46.45 80.8901 37.51 80.8901 37.51C68.2201 36.67 59.9001 45.93 59.9001 45.93C59.9001 45.93 58.4801 47.47 57.5301 48.76C57.5301 48.76 56.1601 50.81 55.2201 52.55C53.2401 52.05 51.4701 51.85 51.4701 51.85C52.4601 49.72 53.6901 47.73 55.1201 45.9C55.1201 45.9 56.6801 43.97 57.6101 43.03C57.6101 43.03 67.1701 32.11 83.5301 34.06ZM66.0401 46.06C68.6201 44.22 72.6601 42.03 77.6401 41.63C78.0701 43.94 78.5001 47.37 78.1901 50.94C75.2101 50.65 70.5701 49.59 66.0401 46.06ZM54.9801 9.75003C54.9801 9.75003 67.0601 11.74 75.7901 21.63C75.7901 21.63 70.9601 34.09 56.8001 38.61C56.8001 38.61 55.7801 36.14 55.5401 35.18C66.1501 32.21 71.4001 22.23 71.4001 22.23C65.2301 16.2 56.6701 13.89 56.6701 13.89C50.3501 24.21 54.0901 35.53 54.0901 35.53C54.0901 35.53 54.7801 37.73 55.4001 39.02C55.4001 39.02 56.0401 40.46 56.8201 41.8C56.8201 41.8 55.8001 42.64 54.2101 44.58C53.2201 43.07 52.3601 41.47 51.6501 39.79C51.0601 38.49 50.4801 36.23 50.4801 36.23C50.4801 36.23 45.7501 23.45 54.9801 9.75003ZM58.6901 18.96C60.7001 19.79 63.4101 21.1 65.9701 22.99C64.2501 25.21 61.3201 28.3 57.2401 30.2C56.9401 27.27 57.0001 23.12 58.6901 18.96ZM18.8401 21.27C18.8401 21.27 26.1801 12.76 39.5701 9.63004C39.5701 9.63004 47.9101 19.83 44.5401 34.7C43.4601 34.64 40.9401 34.02 40.9401 34.02C43.6301 22.46 37.9301 13.83 37.9301 13.83C29.2401 16.09 23.25 21.98 23.25 21.98C29.68 33.41 40.5401 35.54 40.5401 35.54C40.5401 35.54 42.4101 35.99 44.1601 36.21C44.1601 36.21 46.6601 36.46 48.8801 36.37C49.1001 37.24 50.0701 39.98 50.0701 39.98C49.1701 40.07 48.2601 40.12 47.3301 40.12C45.8101 40.12 44.3301 39.97 42.8701 39.76C41.0501 39.54 39.25 38.98 39.25 38.98C39.25 38.98 24.6801 35.53 18.8401 21.27ZM37.4501 30.08C34.9101 28.84 31.5501 26.64 28.6801 22.82C30.3901 21.57 32.8701 20 35.8501 18.82C36.8401 21.3 37.9301 25.27 37.4501 30.08ZM9.78008 58.43C9.78008 58.43 6.1201 46.95 10.5501 35C10.5501 35 23.8201 32.79 34.9101 43.17C34.0701 44.34 32.5501 45.97 32.5501 45.97C23.9201 37.76 13.1901 38.5 13.1901 38.5C10.7401 46.45 12.6801 55.09 12.6801 55.09C26.2701 55.57 33.6401 47.07 33.6401 47.07C33.6401 47.07 35.03 45.6 36.06 44.3C36.06 44.3 37.5201 42.27 38.5401 40.41C39.3901 40.66 42.2001 41.23 42.2001 41.23C41.1601 43.37 39.8801 45.37 38.4001 47.21C37.7201 48.09 35.9801 49.9 35.9801 49.9C35.9801 49.9 26.5801 60.63 9.78008 58.43ZM27.3901 47C24.9801 48.61 21.2301 50.44 16.2201 50.9C16.0201 48.74 15.9301 45.77 16.4101 42.74C19.1801 43.09 23.3701 44.1 27.3901 47ZM37.8001 85.57C37.8001 85.57 26.6701 83.32 18.1101 73.72C18.1101 73.72 22.3601 60.14 37.0201 54.84C37.6901 56.22 38.3601 58.25 38.3601 58.25C26.6301 62.4 22.3801 72.9 22.3801 72.9C28.6001 79.26 36.3501 81.41 36.3501 81.41C44.3201 70.37 39.9101 57.76 39.9101 57.76C39.5201 56.37 38.5801 54.33 38.5801 54.33C38.5801 54.33 37.6501 52.58 36.8201 51.2C36.8201 51.2 38.7901 49.31 39.3401 48.52C40.4301 50.11 41.3801 51.8 42.1601 53.59C42.1601 53.59 42.7201 54.7 43.5101 57C43.5001 56.99 48.6201 72.5 37.8001 85.57ZM34.6401 76.38C32.7201 75.53 30.0601 74.12 27.4901 72.01C29.0301 69.57 32.0001 65.83 36.8901 63.33C37.2601 66.67 37.1401 71.56 34.6401 76.38ZM56.5101 85.59C56.5101 85.59 45.9701 75.33 49.3201 58.41C49.3201 58.41 51.2901 58.59 52.9601 58.93C50.0101 73.22 57.8401 81.45 57.8401 81.45C67.9601 78.05 72.2101 72.5 72.2101 72.5C66.0201 59.41 53.3201 57.36 53.3201 57.36C52.1201 57.09 49.6701 56.81 49.6701 56.81C49.6701 56.81 47.2601 56.58 44.9301 56.79C44.5901 55.47 43.7101 53.34 43.7101 53.34C44.8901 53.19 46.1001 53.1 47.3201 53.1C48.5001 53.1 49.6701 53.18 50.8201 53.31C50.8201 53.31 53.0001 53.59 54.5701 53.88C54.5701 53.88 70.1701 56.78 76.5301 73.31C76.5401 73.33 69.3501 82.36 56.5101 85.59ZM56.5301 62.65C59.6301 63.98 63.9701 66.65 67.1601 71.77C65.6101 73.09 63.04 74.93 59.31 76.52C57.83 74 55.8501 69.28 56.5301 62.65Z" fill="#BFBA86"/>
<path d="M46.2902 8.51001C46.7102 9.44001 48.0201 9.44999 48.4501 8.51999C49.2701 6.71999 50.5101 4.24001 51.9501 2.04001C52.4401 1.29001 51.9901 0.280002 51.0901 0.190002C50.0701 0.0900024 48.7201 0 47.2101 0C45.8001 0 44.5402 0.0600049 43.5402 0.130005C42.6202 0.200005 42.1302 1.25 42.6702 2C44.1902 4.11 45.4502 6.65001 46.2902 8.51001Z" fill="#BFBA86"/>
<path d="M48.4401 86.7001C48.0201 85.7701 46.7001 85.7801 46.2801 86.7101C45.4501 88.5601 44.1802 91.1101 42.6702 93.2201C42.1302 93.9701 42.6202 95.0201 43.5402 95.0901C44.5302 95.1601 45.8001 95.2301 47.2101 95.2201C48.7201 95.2201 50.0701 95.1301 51.0901 95.0301C51.9901 94.9401 52.4401 93.9401 51.9501 93.1801C50.5001 90.9801 49.2701 88.5001 48.4401 86.7001Z" fill="#BFBA86"/>
<path d="M5.62013 27.84C8.21013 27.64 11.0401 27.87 13.0601 28.12C14.0701 28.24 14.7601 27.12 14.1901 26.28C13.0701 24.64 11.5901 22.31 10.4501 19.93C10.0601 19.12 8.97013 18.99 8.43013 19.71C7.82013 20.53 7.04009 21.64 6.26009 22.93C5.53009 24.13 4.93012 25.25 4.48012 26.14C4.05012 26.95 4.70013 27.91 5.62013 27.84Z" fill="#BFBA86"/>
<path d="M89.0801 65.5C86.4501 65.7 83.6901 65.5799 81.7101 65.4199C80.6901 65.3399 80.0601 66.5 80.6801 67.31C81.9001 68.94 83.5101 71.27 84.6201 73.62C85.0201 74.45 86.1701 74.54 86.6701 73.76C87.2101 72.93 87.8801 71.85 88.5601 70.62C89.2901 69.3 89.8601 68.08 90.2701 67.13C90.6401 66.32 89.9801 65.43 89.0801 65.5Z" fill="#BFBA86"/>
<path d="M80.8501 28.1801C82.8701 27.9301 85.7001 27.7101 88.2901 27.9101C89.2101 27.9801 89.8601 27.0201 89.4401 26.2001C88.9901 25.3101 88.3901 24.2001 87.6601 22.9901C86.8801 21.7001 86.1101 20.5901 85.4901 19.7701C84.9501 19.0501 83.8601 19.1801 83.4701 19.9901C82.3301 22.3701 80.8401 24.7001 79.7201 26.3401C79.1501 27.1801 79.8401 28.3001 80.8501 28.1801Z" fill="#BFBA86"/>
<path d="M12.3001 65.7601C10.2701 65.9201 7.44009 66.0201 4.86009 65.7001C3.94009 65.5901 3.25006 66.52 3.64006 67.36C4.05006 68.27 4.60006 69.41 5.27006 70.64C5.99006 71.97 6.72008 73.11 7.29008 73.96C7.79008 74.7 8.90005 74.62 9.32005 73.83C10.5601 71.5 12.1501 69.24 13.3401 67.65C13.9601 66.83 13.3201 65.6801 12.3001 65.7601Z" fill="#BFBA86"/>
<path d="M5.69 158.98L3.44 155.93H1.70001V158.98H0.0200195V149.86H3.78003C6.23003 149.86 7.69 150.97 7.69 152.91C7.69 154.37 6.87002 155.35 5.40002 155.74L7.82001 158.98H5.69ZM1.69 151.34V154.45H3.72003C5.17003 154.45 6 154.06 6 152.93C6 151.82 5.17004 151.34 3.73004 151.34H1.69Z" fill="#0B3B60"/>
<path d="M11.45 157.49H17.06V158.97H9.79004V149.85H16.9301V151.33H11.45V153.52H16.36V155.01H11.45V157.49Z" fill="#0B3B60"/>
<path d="M26.4201 158.98L25.7001 157.3H20.8201L20.1001 158.98H18.3301L22.2201 149.86H24.2901L28.2001 158.98H26.4201ZM21.4601 155.8H25.0701L23.2701 151.55L21.4601 155.8Z" fill="#0B3B60"/>
<path d="M30.01 158.98V149.86H31.6801V157.49H36.67V158.97H30.01V158.98Z" fill="#0B3B60"/>
<path d="M44.2201 157.49H49.8301V158.97H42.5601V149.85H49.7001V151.33H44.2201V153.52H49.1301V155.01H44.2201V157.49Z" fill="#0B3B60"/>
<path d="M51.42 158.3L51.58 156.78C52.64 157.34 54.13 157.6 55.19 157.6C56.3 157.6 57.27 157.43 57.27 156.47C57.27 155.53 56.5 155.35 55.07 155.05C52.83 154.65 51.63 153.97 51.63 152.42C51.63 150.61 53.34 149.72 55.32 149.72C56.44 149.72 57.49 149.93 58.48 150.41L58.19 151.95C57.12 151.46 56.25 151.25 55.31 151.25C54.23 151.25 53.41 151.43 53.41 152.36C53.41 153.09 54.0101 153.27 55.4901 153.58C57.7601 154 59.05 154.73 59.05 156.41C59.05 158.23 57.23 159.13 55.21 159.13C53.71 159.12 52.35 158.85 51.42 158.3Z" fill="#0B3B60"/>
<path d="M67.78 149.86V151.34H64.72V158.97H63.03V151.34H59.98V149.86H67.78Z" fill="#0B3B60"/>
<path d="M75.5599 158.98L74.84 157.3H69.96L69.24 158.98H67.47L71.36 149.86H73.43L77.34 158.98H75.5599ZM70.6 155.8H74.21L72.41 151.55L70.6 155.8Z" fill="#0B3B60"/>
<path d="M84.85 149.86V151.34H81.79V158.97H80.1V151.34H77.05V149.86H84.85Z" fill="#0B3B60"/>
<path d="M88.4301 157.49H94.04V158.97H86.77V149.85H93.91V151.33H88.4301V153.52H93.34V155.01H88.4301V157.49Z" fill="#0B3B60"/>
<path d="M21.98 138.86H14.04L8.69 131.83C8.09 131.03 6.82001 131.46 6.82001 132.46V138.89H0L0.0300293 117.1H6.81V123.17C6.81 124.16 8.07004 124.59 8.67004 123.8L13.78 117.07H21.72L13.38 127.75L21.98 138.86Z" fill="#0B3B60"/>
<path d="M23.04 138.89V117.1H29.76V133.28H40.19V138.88H23.04V138.89Z" fill="#0B3B60"/>
<path d="M48.67 133.54H60.81V138.89H42.04V117.1H60.53V122.45H48.67V125.38H59V130.27H48.67V133.54Z" fill="#0B3B60"/>
<path d="M62.74 138.89V117.1H69.52V138.89H62.74Z" fill="#0B3B60"/>
<path d="M72.29 138.89V117.1H78.52L85.76 126.07C86.38 126.83 87.61 126.4 87.61 125.42V117.1H94.4301V138.89H88.39L80.96 129.68C80.33 128.9 79.08 129.35 79.08 130.34V138.89H72.29Z" fill="#0B3B60"/>
</svg>
