<svg width="183" height="76" viewBox="0 0 183 76" fill="none" xmlns="http://www.w3.org/2000/svg">
<path d="M56.5551 49.3801C58.0718 49.6092 59.4147 49.6803 60.497 49.6803C62.9854 49.6803 64.6127 49.3169 64.7865 49.2774C65.9319 49.0088 66.8483 48.132 67.1643 46.9944C70.411 35.3267 66.3269 25.9735 66.1531 25.5786C65.687 24.5358 64.7075 23.8169 63.5778 23.6827C62.4245 23.5484 61.2711 23.4773 60.1336 23.4773C59.0276 23.4773 57.9533 23.5405 56.9342 23.659C59.0829 20.7993 60.0151 18.461 60.102 18.2477C60.5365 17.1181 60.3074 15.8383 59.5095 14.9378C51.9417 6.35878 41.6011 4.57347 41.1666 4.50237C40.9928 4.47077 40.819 4.46286 40.6373 4.46286C39.5709 4.46286 38.5597 4.99213 37.9514 5.89269C36.4663 8.10458 35.3841 10.2849 34.6099 12.3862C33.1169 8.23888 31.1341 5.75841 30.9682 5.56092C30.3441 4.80256 29.4198 4.37598 28.464 4.37598C28.2191 4.37598 27.9742 4.40756 27.7293 4.46286C16.2591 7.14873 9.9078 14.3927 9.63921 14.6929C8.84135 15.6171 8.63596 16.9048 9.09414 18.0344C10.1685 20.6571 11.5667 22.869 13.0993 24.7333C11.1243 24.3699 9.37853 24.2672 8.0198 24.2672C6.25818 24.2672 5.12854 24.4489 5.01005 24.4647C3.8646 24.6543 2.90871 25.4443 2.50583 26.5344C-1.33339 36.8987 1.7159 46.7416 1.8502 47.1524C2.22938 48.3453 3.27212 49.2142 4.51237 49.3801C5.8395 49.5539 7.17451 49.6408 8.48585 49.6408C10.0342 49.6408 11.4956 49.5223 12.8701 49.309C9.69448 53.3299 8.50954 56.9954 8.42264 57.2797C8.08296 58.3699 8.33577 59.5548 9.09414 60.4001C16.4961 68.7026 26.023 70.7012 26.4259 70.7802C26.6392 70.8197 26.8525 70.8434 27.0658 70.8434C28.0216 70.8434 28.938 70.4247 29.562 69.6743C31.8213 66.9489 33.3065 64.1129 34.2623 61.3638C36.3162 66.6882 39.3655 69.7295 39.5946 69.9507C40.2028 70.5432 41.0165 70.8671 41.8538 70.8671C42.1145 70.8671 42.3831 70.8355 42.6438 70.7723C53.7112 67.9837 59.944 60.2895 60.2047 59.9577C60.9236 59.0571 61.1053 57.8485 60.6945 56.7821C59.5727 53.8513 58.1429 51.4182 56.5551 49.3801ZM63.1986 26.9057C63.1986 26.9057 67.0221 35.461 64.0439 46.1334C64.0439 46.1334 53.2214 48.685 43.5365 39.4029C43.5365 39.4029 44.6898 37.8783 45.3929 37.1831C52.8975 44.5772 61.7451 43.4949 61.7451 43.4949C63.2934 36.6933 61.1131 29.6311 61.1131 29.6311C51.1043 28.9675 44.5318 36.2825 44.5318 36.2825C44.5318 36.2825 43.4101 37.4991 42.6596 38.5181C42.6596 38.5181 41.5774 40.1375 40.8348 41.5121C39.2707 41.1171 37.8725 40.9591 37.8725 40.9591C38.6545 39.2765 39.6262 37.7045 40.7558 36.2588C40.7558 36.2588 41.9882 34.7342 42.7228 33.9917C42.7228 33.9917 50.2749 25.3653 63.1986 26.9057ZM49.3822 36.3852C51.4203 34.9317 54.6117 33.2017 58.5458 32.8857C58.8854 34.7105 59.2251 37.4201 58.9802 40.2403C56.6261 40.0112 52.9607 39.1738 49.3822 36.3852ZM40.6452 7.70171C40.6452 7.70171 50.188 9.27374 57.0843 17.0865C57.0843 17.0865 53.2688 26.9294 42.083 30.5C42.083 30.5 41.2772 28.5488 41.0876 27.7904C49.4691 25.4443 53.6164 17.5604 53.6164 17.5604C48.7423 12.797 41.9803 10.9721 41.9803 10.9721C36.9877 19.1246 39.9421 28.0669 39.9421 28.0669C39.9421 28.0669 40.4872 29.8048 40.977 30.8239C40.977 30.8239 41.4826 31.9614 42.0987 33.02C42.0987 33.02 41.293 33.6836 40.0369 35.2161C39.2549 34.0232 38.5755 32.7593 38.0146 31.4322C37.5486 30.4052 37.0904 28.6199 37.0904 28.6199C37.0904 28.6199 33.3539 18.5242 40.6452 7.70171ZM43.576 14.9773C45.1638 15.6329 47.3046 16.6678 49.3269 18.1608C47.9682 19.9145 45.6536 22.3555 42.4305 23.8564C42.1936 21.5419 42.2409 18.2635 43.576 14.9773ZM12.096 16.8021C12.096 16.8021 17.8943 10.0795 28.4719 7.60692C28.4719 7.60692 35.0602 15.6645 32.398 27.4113C31.5449 27.3639 29.5541 26.8741 29.5541 26.8741C31.6791 17.7421 27.1764 10.9247 27.1764 10.9247C20.3116 12.7101 15.5797 17.363 15.5797 17.363C20.6592 26.3922 29.2382 28.0748 29.2382 28.0748C29.2382 28.0748 30.7154 28.4303 32.0978 28.6041C32.0978 28.6041 34.0727 28.8016 35.8264 28.7305C36.0002 29.4178 36.7665 31.5823 36.7665 31.5823C36.0555 31.6534 35.3367 31.6929 34.602 31.6929C33.4013 31.6929 32.2321 31.5744 31.0788 31.4085C29.6411 31.2347 28.2191 30.7923 28.2191 30.7923C28.2191 30.7923 16.7094 28.0669 12.096 16.8021ZM26.7972 23.7616C24.7907 22.7821 22.1364 21.0442 19.8692 18.0265C21.2201 17.0391 23.1792 15.7988 25.5332 14.8667C26.3153 16.8258 27.1763 19.9619 26.7972 23.7616ZM4.93893 46.1571C4.93893 46.1571 2.04768 37.0883 5.54721 27.6483C5.54721 27.6483 16.03 25.9024 24.7907 34.1022C24.1271 35.0265 22.9264 36.3141 22.9264 36.3141C16.109 29.8286 7.63268 30.4131 7.63268 30.4131C5.69727 36.6933 7.22984 43.5186 7.22984 43.5186C17.9654 43.8978 23.7874 37.1831 23.7874 37.1831C23.7874 37.1831 24.8854 36.0218 25.6991 34.9949C25.6991 34.9949 26.8525 33.3913 27.6582 31.922C28.3297 32.1194 30.5495 32.5697 30.5495 32.5697C29.7279 34.2602 28.7168 35.8402 27.5476 37.2937C27.0105 37.9889 25.6359 39.4187 25.6359 39.4187C25.6359 39.4187 18.2103 47.895 4.93893 46.1571ZM18.8501 37.1278C16.9463 38.3996 13.984 39.8453 10.0263 40.2086C9.86829 38.5023 9.7972 36.1561 10.1764 33.7626C12.3646 34.039 15.6745 34.8369 18.8501 37.1278ZM27.0737 67.5966C27.0737 67.5966 18.2814 65.8192 11.5193 58.2356C11.5193 58.2356 14.8766 47.5079 26.4575 43.3211C26.9868 44.4112 27.5161 46.0149 27.5161 46.0149C18.2498 49.2932 14.8924 57.5878 14.8924 57.5878C19.806 62.612 25.9282 64.3104 25.9282 64.3104C32.2242 55.5892 28.7405 45.6278 28.7405 45.6278C28.4324 44.5298 27.6898 42.9182 27.6898 42.9182C27.6898 42.9182 26.9552 41.5358 26.2995 40.4457C26.2995 40.4457 27.8557 38.9526 28.2902 38.3285C29.1513 39.5846 29.9017 40.9196 30.5179 42.3336C30.5179 42.3336 30.9603 43.2105 31.5843 45.0274C31.5764 45.0195 35.6211 57.2718 27.0737 67.5966ZM24.5774 60.3369C23.0606 59.6654 20.9594 58.5516 18.9292 56.8848C20.1457 54.9573 22.4919 52.0028 26.3548 50.0279C26.6471 52.6663 26.5523 56.5293 24.5774 60.3369ZM41.8538 67.6124C41.8538 67.6124 33.5276 59.5074 36.174 46.1413C36.174 46.1413 37.7303 46.2835 39.0495 46.552C36.7191 57.8406 42.9045 64.342 42.9045 64.342C50.8989 61.6561 54.2563 57.2718 54.2563 57.2718C49.3664 46.9312 39.3339 45.3118 39.3339 45.3118C38.3859 45.0985 36.4505 44.8773 36.4505 44.8773C36.4505 44.8773 34.5467 44.6956 32.7061 44.8615C32.4375 43.8188 31.7423 42.1362 31.7423 42.1362C32.6745 42.0177 33.6303 41.9466 34.5941 41.9466C35.5262 41.9466 36.4505 42.0098 37.359 42.1125C37.359 42.1125 39.0811 42.3337 40.3213 42.5627C40.3213 42.5627 52.6447 44.8536 57.6689 57.9117C57.6768 57.9275 51.997 65.0609 41.8538 67.6124ZM41.8697 49.4907C44.3185 50.5414 47.747 52.6505 50.267 56.6952C49.0425 57.7379 47.0123 59.1914 44.0657 60.4475C42.8966 58.4568 41.3325 54.7282 41.8697 49.4907Z" fill="white"/>
<path d="M33.7803 6.72259C34.112 7.45725 35.1469 7.46513 35.4866 6.73047C36.1343 5.30854 37.1139 3.34945 38.2514 1.61153C38.6385 1.01906 38.283 0.221191 37.5721 0.150095C36.7663 0.0710985 35.6998 0 34.507 0C33.3932 0 32.3978 0.0474016 31.6079 0.102699C30.8811 0.157996 30.494 0.987453 30.9206 1.57992C32.1213 3.24674 33.1167 5.25326 33.7803 6.72259Z" fill="white"/>
<path d="M35.4786 68.4904C35.1469 67.7558 34.1041 67.7637 33.7723 68.4983C33.1167 69.9597 32.1134 71.9742 30.9206 73.641C30.494 74.2334 30.8811 75.0629 31.6079 75.1182C32.3899 75.1735 33.3932 75.2288 34.507 75.2209C35.6998 75.2209 36.7663 75.1498 37.5721 75.0708C38.283 74.9997 38.6385 74.2097 38.2514 73.6094C37.106 71.8715 36.1343 69.9124 35.4786 68.4904Z" fill="white"/>
<path d="M1.65225 21.9919C3.69825 21.8339 5.9338 22.0156 7.52952 22.2131C8.32738 22.3079 8.87246 21.4231 8.42218 20.7596C7.53742 19.464 6.36829 17.6234 5.46773 15.7433C5.15965 15.1034 4.29862 15.0007 3.87204 15.5695C3.39016 16.2173 2.77396 17.0941 2.15779 18.1132C1.58111 19.0611 1.10716 19.9459 0.751679 20.649C0.411996 21.2888 0.925483 22.0472 1.65225 21.9919Z" fill="white"/>
<path d="M67.5818 51.7421C65.5042 51.9001 63.3239 51.8053 61.7598 51.6789C60.954 51.6157 60.4564 52.5321 60.9461 53.1719C61.9099 54.4596 63.1817 56.3002 64.0586 58.1566C64.3746 58.8123 65.283 58.8834 65.678 58.2672C66.1046 57.6115 66.6338 56.7583 67.171 55.7867C67.7477 54.7439 68.198 53.7802 68.5218 53.0297C68.8141 52.3899 68.2927 51.6868 67.5818 51.7421Z" fill="white"/>
<path d="M61.0807 22.261C62.6765 22.0635 64.9121 21.8897 66.9581 22.0477C67.6848 22.103 68.1983 21.3446 67.8665 20.6968C67.511 19.9938 67.037 19.1169 66.4604 18.161C65.8442 17.142 65.2359 16.2651 64.7462 15.6174C64.3196 15.0486 63.4585 15.1513 63.1504 15.7912C62.2499 17.6713 61.0728 19.5119 60.1881 20.8074C59.7378 21.471 60.2829 22.3557 61.0807 22.261Z" fill="white"/>
<path d="M6.92898 51.948C5.32536 52.0744 3.08976 52.1534 1.05166 51.9006C0.324897 51.8137 -0.220202 52.5483 0.0878829 53.2119C0.411767 53.9308 0.84625 54.8313 1.37553 55.803C1.9443 56.8536 2.52099 57.7542 2.97126 58.4257C3.36625 59.0102 4.24308 58.947 4.57486 58.323C5.55442 56.4823 6.81047 54.697 7.75053 53.441C8.2403 52.7932 7.73474 51.8848 6.92898 51.948Z" fill="white"/>
<path d="M182.08 19.4006C182.08 20.5206 181.18 21.4206 180.05 21.4206C178.94 21.4206 178.04 20.5206 178.04 19.4006C178.04 18.2906 178.94 17.3906 180.05 17.3906C181.18 17.4006 182.08 18.2906 182.08 19.4006ZM181.8 19.4006C181.8 18.4506 181.02 17.6706 180.05 17.6706C179.1 17.6706 178.32 18.4506 178.32 19.4006C178.32 20.3606 179.1 21.1506 180.05 21.1506C181.01 21.1506 181.8 20.3606 181.8 19.4006ZM180.53 19.7006L181.17 20.4606H180.6L180.04 19.7406H179.68V20.4606H179.2V18.2206H180.14C180.76 18.2206 181.14 18.5106 181.14 18.9806C181.13 19.3506 180.91 19.6006 180.53 19.7006ZM179.67 18.6106V19.3806H180.13C180.46 19.3806 180.65 19.2506 180.65 18.9906C180.65 18.7406 180.45 18.6106 180.13 18.6106H179.67Z" fill="white"/>
<path d="M85.5997 58.9101L83.3497 55.86H81.6097V58.9101H79.9297V49.79H83.6897C86.1397 49.79 87.5997 50.9001 87.5997 52.8401C87.5997 54.3001 86.7797 55.28 85.3097 55.67L87.7297 58.9101H85.5997ZM81.5997 51.2701V54.3801H83.6297C85.0797 54.3801 85.9097 53.99 85.9097 52.86C85.9097 51.75 85.0797 51.2701 83.6397 51.2701H81.5997Z" fill="white"/>
<path d="M91.3592 57.4203H96.9692V58.9003H89.6992V49.7803H96.8392V51.2603H91.3592V53.4503H96.2692V54.9403H91.3592V57.4203Z" fill="white"/>
<path d="M106.329 58.9101L105.609 57.23H100.729L100.009 58.9101H98.2393L102.129 49.79H104.199L108.109 58.9101H106.329ZM101.369 55.73H104.979L103.179 51.48L101.369 55.73Z" fill="white"/>
<path d="M109.92 58.9101V49.79H111.59V57.42H116.58V58.9001H109.92V58.9101Z" fill="white"/>
<path d="M124.13 57.4203H129.74V58.9003H122.47V49.7803H129.61V51.2603H124.13V53.4503H129.04V54.9403H124.13V57.4203Z" fill="white"/>
<path d="M131.33 58.2304L131.49 56.7104C132.55 57.2704 134.04 57.5304 135.1 57.5304C136.21 57.5304 137.18 57.3604 137.18 56.4004C137.18 55.4604 136.41 55.2804 134.98 54.9804C132.74 54.5804 131.54 53.9004 131.54 52.3504C131.54 50.5404 133.25 49.6504 135.23 49.6504C136.35 49.6504 137.4 49.8604 138.39 50.3404L138.1 51.8804C137.03 51.3904 136.16 51.1804 135.22 51.1804C134.14 51.1804 133.32 51.3604 133.32 52.2904C133.32 53.0204 133.92 53.2004 135.4 53.5104C137.67 53.9304 138.96 54.6604 138.96 56.3404C138.96 58.1604 137.14 59.0604 135.12 59.0604C133.62 59.0504 132.26 58.7804 131.33 58.2304Z" fill="white"/>
<path d="M147.69 49.79V51.2701H144.63V58.9001H142.94V51.2701H139.89V49.79H147.69Z" fill="white"/>
<path d="M155.47 58.9101L154.75 57.23H149.87L149.15 58.9101H147.38L151.27 49.79H153.34L157.25 58.9101H155.47ZM150.51 55.73H154.12L152.32 51.48L150.51 55.73Z" fill="white"/>
<path d="M164.76 49.79V51.2701H161.7V58.9001H160.01V51.2701H156.96V49.79H164.76Z" fill="white"/>
<path d="M168.34 57.4203H173.95V58.9003H166.68V49.7803H173.82V51.2603H168.34V53.4503H173.25V54.9403H168.34V57.4203Z" fill="white"/>
<path d="M101.89 38.79H93.9502L88.6002 31.76C88.0002 30.96 86.7302 31.39 86.7302 32.39V38.82H79.9102L79.9402 17.03H86.7202V23.1C86.7202 24.09 87.9802 24.52 88.5802 23.73L93.6902 17H101.63L93.2902 27.68L101.89 38.79Z" fill="white"/>
<path d="M102.95 38.8203V17.0303H109.67V33.2103H120.1V38.8103H102.95V38.8203Z" fill="white"/>
<path d="M128.58 33.4703H140.72V38.8203H121.95V17.0303H140.44V22.3803H128.58V25.3103H138.91V30.2003H128.58V33.4703Z" fill="white"/>
<path d="M142.65 38.8203V17.0303H149.43V38.8203H142.65Z" fill="white"/>
<path d="M152.2 38.8203V17.0303H158.43L165.67 26.0003C166.29 26.7603 167.52 26.3303 167.52 25.3503V17.0303H174.34V38.8203H168.3L160.87 29.6103C160.24 28.8303 158.99 29.2803 158.99 30.2703V38.8203H152.2Z" fill="white"/>
</svg>
