<svg width="77" height="77" viewBox="0 0 77 77" fill="none" xmlns="http://www.w3.org/2000/svg">
<g clip-path="url(#clip0_119_715)">
<path d="M72.1875 38.3574H4.8125C2.15916 38.3574 0 40.5166 0 43.1699C0 45.8233 2.15916 47.9824 4.8125 47.9824H72.1875C74.8408 47.9824 77 45.8233 77 43.1699C77 40.5166 74.8408 38.3574 72.1875 38.3574Z" fill="black"/>
<path d="M72.6305 44.8347C71.7611 44.5909 70.8884 45.085 70.6477 45.9384L70.5226 46.378H6.48103L6.35274 45.9384C6.11212 45.085 5.23308 44.5974 4.36999 44.8347C3.51653 45.0785 3.02565 45.9673 3.26958 46.8175L7.69062 62.2944C9.06053 67.0909 13.501 70.4404 18.4867 70.4404H58.5106C63.4995 70.4404 67.9367 67.0909 69.3067 62.2944L73.7277 46.8175C73.9748 45.9671 73.4807 45.0785 72.6305 44.8347ZM18.4899 64.0236C16.3531 64.0236 14.4474 62.5895 13.8634 60.5329L11.7812 53.2372C11.5375 52.3837 12.0315 51.4982 12.8817 51.2544C13.7414 51.0106 14.6238 51.5078 14.8644 52.3581L16.9466 59.6539C17.1455 60.3373 17.7775 60.8185 18.4897 60.8185C19.3752 60.8185 20.0939 61.5372 20.0939 62.4227C20.0941 63.3082 19.3754 64.0236 18.4899 64.0236Z" fill="black"/>
<path d="M21.5699 67.3989C20.7775 67.0108 19.8182 67.3219 19.4171 68.1176L16.2088 74.5344C15.8142 75.3268 16.135 76.2893 16.9275 76.6872C17.1617 76.8027 17.4056 76.8573 17.6462 76.8573C18.2334 76.8573 18.7981 76.5332 19.0804 75.9686L22.2887 69.5519C22.6833 68.7592 22.3623 67.7967 21.5699 67.3989Z" fill="black"/>
<path d="M60.7916 74.5377L57.5833 68.121C57.1855 67.3252 56.223 67.0076 55.4304 67.4022C54.638 67.8 54.3171 68.7625 54.7117 69.5551L57.92 75.9718C58.2023 76.5332 58.767 76.8573 59.3541 76.8573C59.5947 76.8573 59.8385 76.8027 60.0728 76.6905C60.8654 76.2926 61.1862 75.3301 60.7916 74.5377Z" fill="black"/>
<path d="M64.4392 0.142578C62.8029 0.142578 61.2629 0.780986 60.1048 1.93929L55.0132 7.03092C54.3875 7.65654 54.3875 8.67364 55.0132 9.29926C55.6388 9.92489 56.6559 9.92489 57.2815 9.29926L62.373 4.21079C62.9216 3.65901 63.6563 3.35417 64.4551 3.35417C66.0657 3.35417 67.3747 4.66317 67.3747 6.2737V39.9612C67.3747 40.8467 68.0934 41.5654 68.9789 41.5654C69.8644 41.5654 70.5831 40.8467 70.5863 39.958V6.27054C70.5864 2.89217 67.84 0.142578 64.4392 0.142578Z" fill="black"/>
<path d="M58.8858 8.63529L55.6775 5.42701C55.3117 5.06126 54.8016 4.89117 54.2819 4.97779L46.2611 6.29326C45.6708 6.38951 45.1862 6.80654 44.9971 7.37126C44.8077 7.93598 44.9521 8.56476 45.3693 8.99142L54.9943 18.9052C55.2991 19.2228 55.7193 19.3929 56.1428 19.3929C56.2936 19.3929 56.4477 19.3705 56.5983 19.3255C57.1694 19.1587 57.6025 18.6871 57.718 18.1031L59.3222 10.0824C59.4279 9.55929 59.2643 9.01698 58.8858 8.63529Z" fill="black"/>
<path d="M38.0289 19.5791C37.4032 18.9535 36.3861 18.9535 35.7605 19.5791L32.5522 22.7874C31.9266 23.413 31.9266 24.4301 32.5522 25.0557C32.8667 25.3669 33.2773 25.5242 33.688 25.5242C34.0987 25.5242 34.5093 25.367 34.8206 25.0557L38.0289 21.8474C38.6545 21.2216 38.6545 20.2047 38.0289 19.5791Z" fill="black"/>
<path d="M44.4449 25.9956C43.8192 25.37 42.8022 25.37 42.1765 25.9956L38.9682 29.2039C38.3426 29.8295 38.3426 30.8466 38.9682 31.4722C39.2827 31.7834 39.6933 31.9407 40.104 31.9407C40.5147 31.9407 40.9253 31.7835 41.2366 31.4722L44.4449 28.2639C45.0705 27.6383 45.0705 26.6212 44.4449 25.9956Z" fill="black"/>
<path d="M47.6539 16.3706C47.0282 15.745 46.0111 15.745 45.3855 16.3706L42.1772 19.5789C41.5516 20.2045 41.5516 21.2216 42.1772 21.8472C42.4917 22.1584 42.9023 22.3157 43.313 22.3157C43.7237 22.3157 44.1343 22.1585 44.4456 21.8472L47.6539 18.6389C48.2795 18.0133 48.2795 16.9962 47.6539 16.3706Z" fill="black"/>
</g>
<defs>
<clipPath id="clip0_119_715">
<rect width="77" height="77" fill="white"/>
</clipPath>
</defs>
</svg>
