<svg width="88" height="71" viewBox="0 0 88 71" fill="none" xmlns="http://www.w3.org/2000/svg">
<path d="M87.2711 46.9896L77.7206 31.8694V4.0551L73.833 0.16748H14.2955L10.4079 4.0551V31.8692L0.857422 46.9896H87.2711ZM69.9454 7.94273V27.3502C64.9352 26.0542 56.28 24.456 44.0642 24.456C31.8484 24.456 23.1933 26.0542 18.1831 27.3502V7.94273H69.9454Z" fill="black"/>
<path d="M0.683594 51.7734V59.5487H9.74242V70.2556H17.5177V59.5488L0.856426 59.5487L70.6115 70.2556H78.3867V59.5487H87.4458V51.7734H0.683594Z" fill="black"/>
<path d="M40.9092 20.4107V15.8813C40.9092 13.1929 37.0073 11.0127 32.1942 11.0127C27.3811 11.0127 23.4795 13.1929 23.4795 15.8813V22.68C23.4795 22.68 28.62 21.3858 32.1533 21.0512C35.3343 20.7497 40.9092 20.4107 40.9092 20.4107Z" fill="black"/>
<path d="M64.6496 22.68V15.8813C64.6496 13.1929 60.7478 11.0127 55.9347 11.0127C51.1216 11.0127 47.2197 13.1929 47.2197 15.8813V20.4107C47.2197 20.4107 52.7948 20.7495 55.9758 21.0512C59.5093 21.3858 64.6496 22.68 64.6496 22.68Z" fill="black"/>
</svg>
