<svg width="67" height="79" viewBox="0 0 67 79" fill="none" xmlns="http://www.w3.org/2000/svg">
<path d="M30.5064 0.000558712L31.0876 0.0643714L63.9437 6.63553C65.2874 6.90433 66.3016 7.9703 66.5341 9.2818L66.5846 9.85729V68.9773C66.5846 70.3475 65.7384 71.5511 64.498 72.0367L63.9437 72.1992L31.0876 78.7703C30.1224 78.9635 29.1215 78.7132 28.3603 78.0895C27.7512 77.5901 27.347 76.8935 27.2097 76.1308L27.1577 75.5485V3.28614L27.2097 2.70383C27.347 1.94118 27.7512 1.24452 28.3603 0.745273C28.9692 0.246023 29.7316 -0.013721 30.5064 0.000558712ZM20.5865 6.57172V13.1429H7.4442V65.6917H20.5865V72.2629H4.15862C2.54568 72.2629 1.20418 71.1004 0.925982 69.5678L0.873047 68.9773V9.8573C0.873047 8.24436 2.03533 6.90285 3.56804 6.62466L4.15862 6.57172H20.5865ZM33.7288 7.29396V71.5407L60.0134 66.2838V12.5509L33.7288 7.29396ZM43.5856 36.1315C45.4001 36.1315 46.8711 37.6025 46.8711 39.417C46.8711 41.2317 45.4001 42.7026 43.5856 42.7026C41.771 42.7026 40.3 41.2317 40.3 39.417C40.3 37.6025 41.771 36.1315 43.5856 36.1315Z" fill="black"/>
</svg>
