<svg width="16" height="22" viewBox="0 0 16 22" fill="none" xmlns="http://www.w3.org/2000/svg">
<path d="M1.74805 7.16771C2.07165 10.0034 4.56692 12.4891 7.60027 12.4891C10.8536 12.4891 13.4905 9.63126 13.4905 6.54728C13.4905 6.52092 13.4888 6.49528 13.4884 6.46999C10.1321 6.00022 5.85617 8.51506 1.74805 7.16771Z" fill="#7E7E7E"/>
<path d="M15.1961 6.56934C15.1961 2.50807 13.2247 0.000712317 13.2244 0H1.97135C1.97135 0 0 2.51163 0 6.56934C0 10.4258 3.19671 14.0081 7.21642 14.2228C7.16945 16.4624 6.98468 18.7945 6.45281 19.6022C5.70372 20.7405 3.07824 20.1557 3.07824 21.3695H12.1189C12.1189 20.1554 9.49238 20.7405 8.74328 19.6022C8.21142 18.7945 8.02664 16.4627 7.97968 14.2228C11.9984 14.0084 15.1961 10.4258 15.1961 6.56934ZM7.59805 13.2683C4.21553 13.2683 1.43327 10.4971 1.07271 7.33544C1.04646 7.10607 1.03092 6.876 1.03092 6.64414C1.03092 3.13598 2.73461 0.965546 2.73461 0.965546H12.4611C12.4615 0.966614 14.1348 3.09858 14.1628 6.55795C14.1631 6.58644 14.1652 6.61457 14.1652 6.64414C14.1652 10.0821 11.2251 13.2683 7.59805 13.2683Z" fill="#7E7E7E"/>
</svg>
