<svg width="88" height="101" viewBox="0 0 88 101" fill="none" xmlns="http://www.w3.org/2000/svg">
<path d="M42.1972 4.91262C44.7361 1.92235 48.4573 0 52.6307 0C60.3167 0 66.542 6.37219 66.542 14.2395V21.5373H66.5072C66.4028 25.382 63.3424 28.4434 59.5863 28.4434C55.8303 28.4434 52.7698 25.382 52.6655 21.5373H52.6307V17.9417C52.6307 15.9482 51.0657 14.3463 49.1181 14.3463C47.5879 14.3463 46.3011 15.3431 45.8142 16.7314L44.9099 32.1457C44.9099 34.1035 43.6927 35.7056 42.1625 35.7056C40.6322 35.7056 39.415 34.1035 39.415 32.1457L38.5108 16.6958C38.0239 15.3075 36.7719 14.3107 35.2416 14.3107C33.294 14.3107 31.729 15.9126 31.729 17.906V21.5016C31.6247 25.3463 28.5642 28.4077 24.8082 28.4077C21.0521 28.4077 17.9917 25.3463 17.8873 21.5016H17.8525V14.2395C17.8525 6.37219 24.0778 0 31.7638 0C35.9372 0 39.6584 1.92235 42.1972 4.91262Z" fill="black"/>
<path d="M87.6409 50.9247C87.4218 67.7334 72.9246 81.4477 55.1773 81.4477H54.7391V92.9845H58.0621C60.2531 92.9845 62.006 94.8563 61.9694 97.1102V100.625H25.5619V97.1102C25.5619 94.8563 27.3513 92.9845 29.5058 92.9845H32.8288V81.4477H32.4637C14.7164 81.4477 0.182585 67.7334 0 50.9247V50.3135C0 48.5181 1.53372 47.0664 3.39609 47.0664H84.2449C86.1072 47.0664 87.6409 48.5181 87.6409 50.2753V50.9247ZM7.71149 54.7067C9.79625 65.0734 19.63 73.8074 32.4637 73.8074H55.1773C67.9929 73.8074 77.8149 65.0875 79.9205 54.7067H7.71149Z" fill="black"/>
<path d="M81.1493 21.0989C82.942 21.0989 84.3952 19.6456 84.3952 17.8529C84.3952 16.0602 82.942 14.6069 81.1493 14.6069C79.3565 14.6069 77.9033 16.0602 77.9033 17.8529C77.9033 19.6456 79.3565 21.0989 81.1493 21.0989Z" fill="black"/>
<path d="M9.73704 31.6478C9.73704 33.8887 8.28376 35.7052 6.49108 35.7052C4.6984 35.7052 3.24512 33.8887 3.24512 31.6478C3.24512 29.4069 4.6984 27.5903 6.49108 27.5903C8.28376 27.5903 9.73704 29.4069 9.73704 31.6478Z" fill="black"/>
</svg>
