<svg width="59" height="56" viewBox="0 0 59 56" fill="none" xmlns="http://www.w3.org/2000/svg">
<path d="M27.0944 0.73406C27.6269 0.261176 28.3144 0 29.0265 0C29.7387 0 30.4262 0.261176 30.9587 0.73406L57.1473 24.0129C57.6948 24.5329 58.0186 25.2454 58.0505 25.9998C58.0823 26.7542 57.8197 27.4914 57.3181 28.0557C56.8164 28.6201 56.1151 28.9673 55.3621 29.0242C54.6092 29.081 53.8637 28.8429 53.2831 28.3602L52.3053 27.496V49.4653C52.3053 51.0088 51.6922 52.4891 50.6008 53.5805C49.5094 54.6719 48.0291 55.285 46.4856 55.285H11.5674C10.024 55.285 8.54369 54.6719 7.45229 53.5805C6.36088 52.4891 5.74774 51.0088 5.74774 49.4653V27.496L4.77003 28.3602C4.18939 28.8429 3.44386 29.081 2.69094 29.0242C1.93801 28.9673 1.23664 28.6201 0.735004 28.0557C0.233364 27.4914 -0.029266 26.7542 0.00259398 25.9998C0.034454 25.2454 0.358309 24.5329 0.905745 24.0129L27.0944 0.73406ZM11.5674 22.3164V49.4653H20.297V34.9161C20.297 34.1443 20.6036 33.4042 21.1493 32.8585C21.695 32.3128 22.4351 32.0062 23.2068 32.0062H34.8462C35.618 32.0062 36.3581 32.3128 36.9038 32.8585C37.4495 33.4042 37.7561 34.1443 37.7561 34.9161V49.4653H46.4856V22.3193L29.0265 6.8011L11.5674 22.3164ZM31.9364 49.4653V37.8259H26.1167V49.4653H31.9364Z" fill="white"/>
</svg>
