<svg width="96" height="77" viewBox="0 0 96 77" fill="none" xmlns="http://www.w3.org/2000/svg">
<path d="M74.9158 52.3185H20.2748C19.6208 52.3185 19.0857 52.8536 19.0857 53.5076L19.0708 60.6424C19.0708 61.2965 19.6059 61.8316 20.26 61.8316H74.9158C75.5698 61.8316 76.105 61.2965 76.105 60.6424V53.5076C76.105 52.8536 75.5698 52.3185 74.9158 52.3185ZM74.9158 66.5881H20.2302C19.5762 66.5881 19.0411 67.1233 19.0411 67.7773L19.0262 74.9121C19.0262 75.5661 19.5614 76.1013 20.2154 76.1013H74.9158C75.5698 76.1013 76.105 75.5661 76.105 74.9121V67.7773C76.105 67.1233 75.5698 66.5881 74.9158 66.5881ZM74.9158 38.0488H20.3046C19.6505 38.0488 19.1154 38.5839 19.1154 39.2379L19.1006 46.3728C19.1006 47.0268 19.6357 47.5619 20.2897 47.5619H74.9158C75.5698 47.5619 76.105 47.0268 76.105 46.3728V39.2379C76.105 38.5839 75.5698 38.0488 74.9158 38.0488ZM90.7462 17.3875L50.3006 0.546271C49.4313 0.185633 48.4993 0 47.5582 0C46.617 0 45.6851 0.185633 44.8157 0.546271L4.38495 17.3875C1.73912 18.5023 0 21.0887 0 23.9723V74.9121C0 75.5661 0.535113 76.1013 1.18914 76.1013H13.0805C13.7346 76.1013 14.2697 75.5661 14.2697 74.9121V38.0488C14.2697 35.4327 16.4399 33.2922 19.1154 33.2922H76.0158C78.6913 33.2922 80.8615 35.4327 80.8615 38.0488V74.9121C80.8615 75.5661 81.3966 76.1013 82.0507 76.1013H93.9421C94.5961 76.1013 95.1312 75.5661 95.1312 74.9121V23.9723C95.1312 21.0887 93.3921 18.5023 90.7462 17.3875Z" fill="black"/>
</svg>
