<svg width="85" height="105" viewBox="0 0 85 105" fill="none" xmlns="http://www.w3.org/2000/svg">
<path d="M74.1535 4.08145C73.8878 2.90152 73.2214 1.85014 72.2677 1.10627C71.314 0.362397 70.132 -0.0279886 68.9229 0.00156255H16.6166C15.4075 -0.0279886 14.2255 0.362397 13.2718 1.10627C12.3182 1.85014 11.6517 2.90152 11.386 4.08145L0.92476 51.1571C0.751545 51.929 0.755694 52.7302 0.936897 53.5003C1.1181 54.2704 1.47163 54.9894 1.97088 55.6031C2.47417 56.224 3.11302 56.7212 3.8384 57.0567C4.56378 57.3922 5.3564 57.557 6.15539 57.5385H26.764C26.9744 59.274 27.0792 61.0208 27.0779 62.7691C27.1269 75.0981 22.294 86.9453 13.6352 95.722C12.9154 96.4563 12.428 97.3865 12.2339 98.3962C12.0399 99.406 12.1477 100.451 12.544 101.399C12.9402 102.348 13.6073 103.159 14.4619 103.731C15.3165 104.303 16.3207 104.61 17.3489 104.614H68.1906C69.2188 104.61 70.223 104.303 71.0776 103.731C71.9322 103.159 72.5993 102.348 72.9956 101.399C73.3918 100.451 73.4997 99.406 73.3056 98.3962C73.1115 97.3865 72.6241 96.4563 71.9044 95.722C63.2456 86.9453 58.4127 75.0981 58.4616 62.7691C58.4603 61.0208 58.5651 59.274 58.7755 57.5385H63.6923V67.9997C63.6923 69.387 64.2433 70.7174 65.2243 71.6983C66.2052 72.6793 67.5356 73.2303 68.9229 73.2303C70.3101 73.2303 71.6406 72.6793 72.6215 71.6983C73.6024 70.7174 74.1535 69.387 74.1535 67.9997V57.5385H79.3841C80.1656 57.5411 80.9377 57.3686 81.6437 57.0337C82.3497 56.6988 82.9717 56.21 83.464 55.6031C83.9633 54.9894 84.3168 54.2704 84.498 53.5003C84.6792 52.7302 84.6834 51.929 84.5102 51.1571L74.1535 4.08145ZM28.2286 94.1529C34.3333 84.8266 37.5702 73.9155 37.5391 62.7691C37.5391 61.043 37.5391 59.2646 37.2776 57.5385H48.2619C48.2619 59.2646 48.0004 61.043 48.0004 62.7691C47.9693 73.9155 51.2063 84.8266 57.3109 94.1529H28.2286ZM12.5367 47.0772L20.8011 10.4628H64.7384L72.8459 47.0772H42.6913H12.5367Z" fill="black"/>
</svg>
