<svg width="16" height="17" viewBox="0 0 16 17" fill="none" xmlns="http://www.w3.org/2000/svg">
<path fill-rule="evenodd" clip-rule="evenodd" d="M1.32427 5.46289H2.20713V10.0152H13.6844V5.46289H14.5672V10.0152H15.2294C15.3512 10.0152 15.4501 10.1171 15.4501 10.2428V10.698C15.4501 10.8237 15.3512 10.9256 15.2294 10.9256H0.662122C0.540225 10.9256 0.441406 10.8237 0.441406 10.698V10.2428C0.441406 10.1171 0.540225 10.0152 0.662122 10.0152H1.32427V5.46289ZM1.7657 12.2913V15.4779H14.1258V12.2913H1.7657ZM1.32427 11.3808C1.08048 11.3808 0.882838 11.5846 0.882838 11.8361V15.9331C0.882838 16.1845 1.08048 16.3883 1.32427 16.3883H14.5672C14.811 16.3883 15.0086 16.1845 15.0086 15.9331V11.8361C15.0086 11.5846 14.811 11.3808 14.5672 11.3808H1.32427Z" fill="black"/>
<path fill-rule="evenodd" clip-rule="evenodd" d="M1.84907 0.910453L0.902083 3.60216C0.889388 3.63826 0.882863 3.67645 0.882863 3.71506V4.80309C0.882863 5.17101 1.16868 5.46272 1.51348 5.46272C1.85829 5.46272 2.14408 5.17101 2.14408 4.80309C2.14408 4.55167 2.34175 4.34787 2.58551 4.34787C2.82931 4.34787 3.02694 4.55167 3.02694 4.80309C3.02694 5.17101 3.31277 5.46272 3.65757 5.46272C4.00237 5.46272 4.2882 5.17101 4.2882 4.80309C4.2882 4.55167 4.48583 4.34787 4.72963 4.34787C4.97343 4.34787 5.17106 4.55167 5.17106 4.80309C5.17106 5.17101 5.45689 5.46272 5.80169 5.46272C6.14632 5.46272 6.43201 5.17128 6.43228 4.80364C6.4325 4.5524 6.63008 4.34878 6.87371 4.34878C7.11738 4.34878 7.31496 4.5524 7.31514 4.80364C7.31545 5.17128 7.60114 5.46272 7.94577 5.46272C8.29057 5.46272 8.5764 5.17101 8.5764 4.80309C8.5764 4.55167 8.77403 4.34787 9.01783 4.34787C9.26163 4.34787 9.45926 4.55167 9.45926 4.80309C9.45926 5.17101 9.74504 5.46272 10.0898 5.46272C10.4345 5.46272 10.7202 5.17128 10.7205 4.80364C10.7207 4.5524 10.9182 4.34878 11.1619 4.34878C11.4056 4.34878 11.6032 4.5524 11.6033 4.80364C11.6036 5.17128 11.8893 5.46272 12.234 5.46272C12.5788 5.46272 12.8646 5.17101 12.8646 4.80309C12.8646 4.55167 13.0622 4.34787 13.306 4.34787C13.5498 4.34787 13.7475 4.55167 13.7475 4.80309C13.7475 5.17101 14.0332 5.46272 14.378 5.46272C14.7228 5.46272 15.0087 5.17101 15.0087 4.80309V3.71506C15.0087 3.67645 15.0021 3.63826 14.9895 3.60216L14.0425 0.910453H1.84907ZM14.0271 0.866728C14.0271 0.866692 14.0271 0.866769 14.0271 0.866728ZM13.306 5.91139C13.0325 6.19631 12.6539 6.37317 12.234 6.37317C11.814 6.37317 11.4354 6.19631 11.1619 5.91139C10.8884 6.19631 10.5098 6.37317 10.0898 6.37317C9.66991 6.37317 9.2913 6.19631 9.01783 5.91139C8.74432 6.19631 8.36575 6.37317 7.94577 6.37317C7.52579 6.37317 7.14722 6.19631 6.87371 5.91139C6.60024 6.19631 6.22163 6.37317 5.80169 6.37317C5.38171 6.37317 5.0031 6.19631 4.72963 5.91139C4.45612 6.19631 4.07755 6.37317 3.65757 6.37317C3.23764 6.37317 2.85902 6.19631 2.58551 5.91139C2.31204 6.19631 1.93343 6.37317 1.51348 6.37317C0.674132 6.37317 0 5.66661 0 4.80309V3.71506C0 3.5707 0.0244022 3.4274 0.0721519 3.29165L1.03455 0.5561C1.15138 0.224017 1.45678 0 1.80188 0H14.0897C14.4348 0 14.7402 0.224017 14.857 0.556105L15.8194 3.29165C15.8671 3.4274 15.8915 3.5707 15.8915 3.71506V4.80309C15.8915 5.66661 15.2174 6.37317 14.378 6.37317C13.9581 6.37317 13.5795 6.19631 13.306 5.91139Z" fill="black"/>
</svg>
