<svg width="71" height="69" viewBox="0 0 71 69" fill="none" xmlns="http://www.w3.org/2000/svg">
<path d="M45.9004 30.457H50.0605V34.5H37.5801V30.457H41.7402V26.4141H25.0996V38.543H29.2598V34.5H33.4199V46.6289H29.2598V42.5859H25.0996V50.6719H54.2207V42.5859H41.7402V46.6289H37.5801V38.543H54.2207V26.4141H45.9004V30.457Z" fill="black"/>
<path d="M12.4805 10.2422V54.7148H6.24023C2.78698 54.7148 0 57.4233 0 60.7793C0 64.1353 2.78698 66.8438 6.24023 66.8438H71V10.2422H12.4805ZM62.541 26.4141H58.3809V50.6719H62.541V54.7148H58.3809V58.7578H54.2207V54.7148H25.0996V58.7578H20.9395V54.7148H16.7793V50.6719H20.9395V26.4141H16.7793V22.3711H20.9395V18.3281H25.0996V22.3711H54.2207V18.3281H58.3809V22.3711H62.541V26.4141Z" fill="black"/>
<path d="M8.32031 50.6719V2.52001C7.65458 2.27785 6.98885 2.15625 6.24023 2.15625C2.78698 2.15625 0 4.86472 0 8.2207V52.6934C1.70577 51.4399 3.91044 50.6719 6.24023 50.6719H8.32031Z" fill="black"/>
</svg>
