<svg width="124" height="62" viewBox="0 0 124 62" fill="none" xmlns="http://www.w3.org/2000/svg">
<path d="M36.636 41.4611C37.32 42.091 39.5865 43.2812 43.2808 43.2812C46.9751 43.2812 49.2435 42.091 49.9256 41.4611C53.0209 38.6072 56.5916 37.0982 60.255 37.0982H63.4044C67.0678 37.0982 70.6404 38.6072 73.7339 41.4611C74.4179 42.091 76.6843 43.2812 80.3786 43.2812C84.073 43.2812 86.3413 42.091 87.0234 41.4611C89.8946 38.8121 93.1832 37.3803 96.5664 37.1794L74.7637 21.606L78.2416 19.1212C78.945 18.6227 79.8415 18.4411 80.68 18.6169L100.069 22.7769C105.076 23.8454 110.009 20.6573 111.083 15.651C112.155 10.6428 108.967 5.71191 103.957 4.63762L84.5676 0.477636C78.63 -0.793738 72.391 0.500822 67.4562 4.02898L51.9949 15.0752C49.9893 16.5031 48.2542 18.2517 46.8321 20.2805L33.5716 39.2236C34.6285 39.8477 35.6622 40.5626 36.636 41.4611ZM120.568 49.4642H117.476C112.445 49.4642 108.627 47.8373 106.639 46.0056C104.919 44.4192 102.84 43.2812 100.5 43.2812H97.3509C95.011 43.2812 92.932 44.4192 91.2124 46.0056C89.228 47.8373 85.41 49.4642 80.3786 49.4642C75.3472 49.4642 71.5293 47.8373 69.541 46.0056C67.8214 44.4192 65.7424 43.2812 63.4025 43.2812H60.2531C57.9132 43.2812 55.8342 44.4192 54.1145 46.0056C52.1302 47.8373 48.3122 49.4642 43.2808 49.4642C38.2494 49.4642 34.4314 47.8373 32.4432 46.0056C30.7236 44.4192 28.6445 43.2812 26.3047 43.2812H23.1552C20.8154 43.2812 18.7363 44.4192 17.0167 46.0056C15.0323 47.8373 11.2144 49.4642 6.18297 49.4642H3.09149C1.38344 49.4642 0 50.8476 0 52.5556V58.7386C0 60.4467 1.38344 61.8301 3.09149 61.8301H6.18297C13.645 61.8301 20.2338 59.4748 24.7319 55.678C29.23 59.4767 35.8187 61.8301 43.2808 61.8301C50.7429 61.8301 57.3316 59.4748 61.8297 55.678C66.3278 59.4767 72.9166 61.8301 80.3786 61.8301C87.8407 61.8301 94.4294 59.4748 98.9275 55.678C103.426 59.4767 110.014 61.8301 117.476 61.8301H120.568C122.276 61.8301 123.659 60.4467 123.659 58.7386V52.5556C123.659 50.8476 122.276 49.4642 120.568 49.4642ZM21.6404 30.9152C30.1768 30.9152 37.0978 23.9942 37.0978 15.4578C37.0978 6.92145 30.1768 0.000387578 21.6404 0.000387578C13.104 0.000387578 6.18297 6.92145 6.18297 15.4578C6.18297 23.9942 13.104 30.9152 21.6404 30.9152Z" fill="black"/>
</svg>
