<svg width="83" height="106" viewBox="0 0 83 106" fill="none" xmlns="http://www.w3.org/2000/svg">
<line x1="39.4238" y1="44.2432" x2="39.4238" y2="105.073" stroke="black" stroke-width="4"/>
<path fill-rule="evenodd" clip-rule="evenodd" d="M75.2501 39.1106L41.1922 4.70858L7.13428 39.1106C12.4304 40.2906 22.5214 41.5704 41.1922 41.5704C59.8629 41.5704 69.9539 40.2906 75.2501 39.1106ZM44.5383 1.39587C42.6959 -0.465294 39.6887 -0.465295 37.846 1.39589L0.81309 38.8029C-0.353794 39.9817 -0.307014 41.6349 1.22888 42.2609C5.19609 43.8778 15.4253 46.2789 41.1922 46.2789C66.959 46.2789 77.1884 43.8778 81.1554 42.2609C82.6914 41.6349 82.7382 39.9817 81.5714 38.8029L44.5383 1.39587Z" fill="black"/>
<path fill-rule="evenodd" clip-rule="evenodd" d="M16.3934 23.0644L24.718 14.6558C25.3367 14.9352 25.796 15.5532 25.9766 16.2463C26.5595 18.4865 28.2226 19.7957 29.7237 19.7957C31.2248 19.7957 32.8879 18.4865 33.4708 16.2463C33.7166 15.3025 34.4799 14.498 35.4578 14.498C36.4358 14.498 37.1988 15.3025 37.4446 16.2463C38.0275 18.4865 39.6906 19.7957 41.1917 19.7957C42.6928 19.7957 44.3559 18.4865 44.9388 16.2463C45.1846 15.3025 45.9476 14.498 46.9256 14.498C47.9036 14.498 48.6668 15.3025 48.9126 16.2463C49.4956 18.4865 51.1586 19.7957 52.6597 19.7957C54.1608 19.7957 55.8239 18.4865 56.4068 16.2463C56.5874 15.5532 57.0467 14.9352 57.6654 14.6558L65.99 23.0644C65.4033 23.2356 64.7808 23.3276 64.1278 23.3276C61.712 23.3276 59.7177 22.0692 58.3936 20.2018C57.0698 22.0692 55.0755 23.3276 52.6597 23.3276C50.244 23.3276 48.2497 22.0692 46.9256 20.2018C45.6018 22.0692 43.6075 23.3276 41.1917 23.3276C38.776 23.3276 36.7817 22.0692 35.4578 20.2018C34.1338 22.0692 32.1395 23.3276 29.7237 23.3276C27.308 23.3276 25.3136 22.0692 23.9898 20.2018C22.6658 22.0692 20.6714 23.3276 18.2557 23.3276C17.6026 23.3276 16.9801 23.2356 16.3934 23.0644ZM4.2334 35.3472L12.9945 26.4977C13.5511 26.8056 13.9586 27.3907 14.1114 28.0449C14.6826 30.4884 16.3918 31.9194 17.9327 31.9194C19.4736 31.9194 21.1828 30.4884 21.7539 28.0449C21.979 27.0818 22.7557 26.2686 23.7476 26.2686C24.7392 26.2686 25.5159 27.0818 25.7409 28.0449C26.3121 30.4884 28.0213 31.9194 29.5622 31.9194C31.1031 31.9194 32.8123 30.4884 33.3835 28.0449C33.6085 27.0818 34.3852 26.2686 35.3768 26.2686C36.3687 26.2686 37.1454 27.0818 37.3705 28.0449C37.9416 30.4884 39.6508 31.9194 41.1917 31.9194C42.7326 31.9194 44.4418 30.4884 45.013 28.0449C45.2381 27.0818 46.0147 26.2686 47.0064 26.2686C47.9982 26.2686 48.7749 27.0818 49 28.0449C49.5711 30.4884 51.2804 31.9194 52.8212 31.9194C54.3621 31.9194 56.0714 30.4884 56.6425 28.0449C56.8676 27.0818 57.6443 26.2686 58.6359 26.2686C59.6278 26.2686 60.4044 27.0818 60.6295 28.0449C61.2007 30.4884 62.9099 31.9194 64.4508 31.9194C65.9916 31.9194 67.7009 30.4884 68.272 28.0449C68.4248 27.3907 68.8323 26.8056 69.3887 26.4977L78.1499 35.3472C77.5025 35.5674 76.8103 35.6867 76.0803 35.6867C73.6304 35.6867 71.6081 34.3443 70.2654 32.3523C68.9228 34.3443 66.9006 35.6867 64.4508 35.6867C62.0009 35.6867 59.9785 34.3443 58.6359 32.3523C57.2932 34.3443 55.2711 35.6867 52.8212 35.6867C50.3714 35.6867 48.349 34.3443 47.0064 32.3523C45.6639 34.3443 43.6416 35.6867 41.1917 35.6867C38.7418 35.6867 36.7195 34.3443 35.3771 32.3523C34.0344 34.3443 32.0121 35.6867 29.5622 35.6867C27.1123 35.6867 25.0902 34.3443 23.7476 32.3523C22.4049 34.3443 20.3826 35.6867 17.9327 35.6867C15.4828 35.6867 13.4607 34.3443 12.118 32.3523C10.7754 34.3443 8.75304 35.6867 6.30318 35.6867C5.57307 35.6867 4.8809 35.5674 4.2334 35.3472Z" fill="black"/>
</svg>
