<svg width="73" height="85" viewBox="0 0 73 85" fill="none" xmlns="http://www.w3.org/2000/svg">
<path d="M20.1188 56.709C19.1572 57.6705 13.5403 60.0862 13.083 77.8165V80.1617H9.56507C9.56507 56.8497 17.7735 56.709 20.1188 56.709ZM3.70189 60.2269C4.98833 60.2611 6.24871 60.5974 7.38127 61.2085C8.51382 61.8196 9.48683 62.6884 10.2218 63.7448C9.58572 65.2459 9.14435 66.8222 8.9084 68.4354C7.52468 62.326 4.4172 60.9423 3.70189 60.2269ZM23.6367 64.9174C22.7338 65.8205 18.1019 68.541 17.7735 78.9891V80.1617H14.2556C14.2556 70.2178 17.1872 65.1754 23.6367 64.9174ZM0.183977 64.9174C2.52925 64.9174 8.39244 67.556 8.39244 80.1617H4.87453C4.87453 69.608 1.2159 65.9494 0.183977 64.9174Z" fill="black"/>
<path d="M69.0934 60.5752C68.1319 61.5368 62.5149 63.9524 62.0576 81.6827V84.0279H58.5397C58.5397 60.7159 66.7481 60.5752 69.0934 60.5752ZM52.6765 64.0931C53.9629 64.1274 55.2233 64.4636 56.3559 65.0747C57.4884 65.6858 58.4614 66.5546 59.1964 67.611C58.5603 69.1121 58.119 70.6884 57.883 72.3016C56.4993 66.1922 53.3918 64.8085 52.6765 64.0931ZM72.6113 68.7837C71.7084 69.6867 67.0765 72.4072 66.7481 82.8553V84.0279H63.2302C63.2302 74.084 66.1618 69.0416 72.6113 68.7837ZM49.1586 68.7837C51.5039 68.7837 57.367 71.4222 57.367 84.0279H53.8491C53.8491 73.4742 50.1905 69.8156 49.1586 68.7837Z" fill="black"/>
<path d="M54.2301 33.4044H25.0996C22.0957 33.4044 19.7906 32.2169 18.7427 30.1912C17.6949 28.1304 18.1139 25.5806 19.8603 23.1706L34.4254 2.77246C37.01 -0.929956 42.3541 -0.929949 44.9737 2.80738L59.5388 23.1706C61.2852 25.5806 61.7044 28.1304 60.6565 30.1912C59.5388 32.2169 57.2339 33.4044 54.2301 33.4044ZM39.6646 5.07769C39.3502 5.07769 39.001 5.35715 38.6866 5.77629L24.1216 26.2094C23.423 27.1524 23.3881 27.7112 23.4231 27.8161C23.458 27.8859 23.947 28.1653 25.1345 28.1653H54.2646C55.4173 28.1653 55.9066 27.8509 55.9765 27.7811C55.9765 27.7112 55.9412 27.1524 55.2776 26.2094L40.7125 5.81122C40.3282 5.32222 39.979 5.07769 39.6646 5.07769Z" fill="black"/>
<path d="M59.1874 61.1385H20.1724C15.1776 61.1385 13.1866 58.7284 12.4531 57.2964C11.7196 55.8643 10.9512 52.8605 13.8852 48.8088L27.8216 29.2488C28.3105 28.5502 29.114 28.166 29.9523 28.166H49.4074C50.2457 28.166 51.0491 28.5852 51.5381 29.2488L65.4744 48.8437C68.4084 52.8605 67.6051 55.8643 66.8716 57.2964C66.1381 58.7284 64.1821 61.1385 59.1874 61.1385ZM31.2795 33.4054L18.1115 51.8825C16.9938 53.4193 16.8891 54.4672 17.0986 54.9212C17.3431 55.3753 18.2513 55.8992 20.1374 55.8992H59.1524C61.0386 55.8992 61.9816 55.3753 62.1912 54.9212C62.4357 54.4672 62.296 53.4193 61.1783 51.8825L48.0103 33.3705H31.2795V33.4054Z" fill="black"/>
<path d="M39.6636 75.1095C38.2315 75.1095 37.0439 73.9219 37.0439 72.4899V58.5185C37.0439 57.0865 38.2315 55.8989 39.6636 55.8989C41.0956 55.8989 42.2832 57.0865 42.2832 58.5185V72.4899C42.2832 73.9219 41.0956 75.1095 39.6636 75.1095Z" fill="black"/>
</svg>
