<svg width="100" height="100" viewBox="0 0 100 100" fill="none" xmlns="http://www.w3.org/2000/svg">
<path d="M14.9471 0C19.0327 4.08555 42.8983 14.3493 44.8414 89.6828V99.6476H59.7886C59.7886 0.597886 24.9119 0 14.9471 0ZM84.7005 14.9471C79.2345 15.0927 73.8794 16.5213 69.0673 19.1178C64.2552 21.7142 60.121 25.4057 56.9984 29.8943C59.7008 36.2723 61.5761 42.9698 62.5787 49.8238C68.4579 23.866 81.6612 17.9868 84.7005 14.9471ZM0 34.8767C3.83643 38.7135 23.5168 50.2726 24.9119 94.6652V99.6476H39.859C39.859 57.397 27.4031 35.9728 0 34.8767ZM99.6476 34.8767C89.6828 34.8767 64.7709 46.0874 64.7709 99.6476H79.7181C79.7181 54.8062 95.2631 39.2612 99.6476 34.8767Z" fill="black"/>
</svg>
