<svg width="82" height="110" viewBox="0 0 82 110" fill="none" xmlns="http://www.w3.org/2000/svg">
<path d="M61.93 48.7363H19.4293C15.0467 48.7363 11.6835 47.0037 10.1547 44.0483C8.62595 41.0417 9.23732 37.3216 11.7853 33.8053L33.0354 4.04495C36.8064 -1.35679 44.6032 -1.35678 48.4252 4.09591L69.6754 33.8053C72.2234 37.3216 72.8349 41.0417 71.3061 44.0483C69.6754 47.0037 66.3126 48.7363 61.93 48.7363ZM40.6793 7.40824C40.2207 7.40824 39.7111 7.81597 39.2525 8.42748L18.0024 38.2389C16.9832 39.6148 16.9323 40.4301 16.9833 40.583C17.0342 40.685 17.7476 41.0926 19.4803 41.0926H61.9805C63.6621 41.0926 64.3761 40.6339 64.478 40.532C64.478 40.4301 64.4265 39.6148 63.4583 38.2389L42.2081 8.47844C41.6476 7.76501 41.138 7.40824 40.6793 7.40824Z" fill="white"/>
<path d="M69.1631 89.1996H12.241C4.95379 89.1996 2.04899 85.6834 0.978833 83.5941C-0.0913203 81.5047 -1.21243 77.1222 3.06818 71.2109L23.401 42.6733C24.1145 41.6541 25.2866 41.0935 26.5097 41.0935H54.8944C56.1174 41.0935 57.2895 41.705 58.0029 42.6733L78.3358 71.2618C82.6164 77.1222 81.4444 81.5047 80.3742 83.5941C79.3041 85.6834 76.4503 89.1996 69.1631 89.1996ZM28.4461 48.7377L9.23425 75.6953C7.60354 77.9376 7.45076 79.4664 7.75652 80.1288C8.11324 80.7913 9.43819 81.5557 12.19 81.5557H69.1121C71.8639 81.5557 73.2399 80.7913 73.5456 80.1288C73.9023 79.4664 73.6985 77.9376 72.0678 75.6953L52.856 48.6867H28.4461V48.7377Z" fill="white"/>
<path d="M40.6782 109.583C38.5888 109.583 36.8562 107.851 36.8562 105.761V85.3774C36.8562 83.288 38.5888 81.5554 40.6782 81.5554C42.7675 81.5554 44.5002 83.288 44.5002 85.3774V105.761C44.5002 107.851 42.7675 109.583 40.6782 109.583Z" fill="white"/>
</svg>
