<svg width="97" height="116" viewBox="0 0 97 116" fill="none" xmlns="http://www.w3.org/2000/svg">
<path d="M43.6997 0.000816288L44.5488 0.0940478L92.5521 9.69463C94.5153 10.0874 95.9971 11.6448 96.3368 13.5609L96.4106 14.4017V100.777C96.4106 102.779 95.1743 104.538 93.3621 105.247L92.5521 105.484L44.5488 115.085C43.1386 115.367 41.6763 115.001 40.5641 114.09C39.6743 113.361 39.0837 112.343 38.8831 111.229L38.8071 110.378V4.80111L38.8831 3.95035C39.0837 2.8361 39.6743 1.81827 40.5641 1.08886C41.4538 0.359445 42.5677 -0.0200466 43.6997 0.000816288ZM29.2065 9.60141V19.202H10.0054V95.9769H29.2065V105.577H5.20508C2.84854 105.577 0.888578 103.879 0.482124 101.64L0.404785 100.777V14.4017C0.404785 12.0452 2.10291 10.0852 4.34222 9.67875L5.20508 9.60141H29.2065ZM48.4077 10.6566V104.522L86.81 96.8419V18.3371L48.4077 10.6566ZM62.8086 52.7888C65.4597 52.7888 67.6089 54.938 67.6089 57.5891C67.6089 60.2403 65.4597 62.3893 62.8086 62.3893C60.1575 62.3893 58.0083 60.2403 58.0083 57.5891C58.0083 54.938 60.1575 52.7888 62.8086 52.7888Z" fill="white"/>
</svg>
