<svg width="121" height="139" viewBox="0 0 121 139" fill="none" xmlns="http://www.w3.org/2000/svg">
<path d="M33.3372 93.7449C31.7476 95.3344 22.4623 99.3277 21.7063 128.637V132.514H15.8909C15.8909 93.9775 29.4602 93.7449 33.3372 93.7449ZM6.19848 99.5603C8.3251 99.6169 10.4086 100.173 12.2808 101.183C14.1531 102.193 15.7615 103.629 16.9764 105.376C15.925 107.857 15.1954 110.463 14.8053 113.13C12.5179 103.03 7.38095 100.743 6.19848 99.5603ZM39.1526 107.314C37.66 108.807 30.003 113.304 29.4602 130.576V132.514H23.6448C23.6448 116.076 28.491 107.741 39.1526 107.314ZM0.383049 107.314C4.26 107.314 13.9524 111.676 13.9524 132.514H8.13696C8.13696 115.068 2.08891 109.02 0.383049 107.314Z" fill="white"/>
<path d="M114.298 100.136C112.709 101.726 103.423 105.719 102.667 135.029V138.906H96.852C96.852 100.369 110.421 100.136 114.298 100.136ZM87.1597 105.952C89.2863 106.008 91.3698 106.564 93.242 107.574C95.1142 108.584 96.7227 110.021 97.9376 111.767C96.8862 114.249 96.1566 116.854 95.7665 119.521C93.4791 109.422 88.3421 107.134 87.1597 105.952ZM120.114 113.706C118.621 115.198 110.964 119.696 110.421 136.967V138.906H104.606C104.606 122.467 109.452 114.132 120.114 113.706ZM81.3442 113.706C85.2212 113.706 94.9136 118.067 94.9136 138.906H89.0981C89.0981 121.459 83.0501 115.411 81.3442 113.706Z" fill="white"/>
<path d="M89.7276 55.2206H41.5723C36.6066 55.2206 32.796 53.2574 31.0638 49.9088C29.3316 46.5022 30.0243 42.2871 32.9113 38.3031L56.9886 4.58312C61.2614 -1.5373 70.0956 -1.53729 74.426 4.64086L98.5035 38.3031C101.39 42.2871 102.083 46.5022 100.351 49.9088C98.5035 53.2574 94.6933 55.2206 89.7276 55.2206ZM65.6496 8.39389C65.1299 8.39389 64.5525 8.85586 64.0329 9.54874L39.9556 43.3265C38.8008 44.8854 38.7431 45.8092 38.8009 45.9825C38.8586 46.098 39.6669 46.5598 41.6301 46.5598H89.7848C91.6902 46.5598 92.4991 46.0402 92.6146 45.9247C92.6146 45.8092 92.5563 44.8854 91.4593 43.3265L67.3818 9.60648C66.7467 8.79812 66.1693 8.39389 65.6496 8.39389Z" fill="white"/>
<path d="M97.9236 101.068H33.4282C25.1715 101.068 21.8802 97.0835 20.6677 94.7162C19.4551 92.3489 18.1848 87.3832 23.035 80.6854L46.0731 48.351C46.8814 47.1962 48.2096 46.561 49.5953 46.561H81.7565C83.1423 46.561 84.4703 47.2539 85.2786 48.351L108.317 80.7432C113.167 87.3832 111.839 92.3489 110.626 94.7162C109.414 97.0835 106.18 101.068 97.9236 101.068ZM51.7894 55.2222L30.0214 85.7665C28.1738 88.3071 28.0007 90.0393 28.3471 90.7899C28.7513 91.5405 30.2525 92.4066 33.3705 92.4066H97.8659C100.984 92.4066 102.543 91.5405 102.889 90.7899C103.293 90.0393 103.062 88.3071 101.215 85.7665L79.4469 55.1645H51.7894V55.2222Z" fill="white"/>
<path d="M65.6483 124.163C63.281 124.163 61.3179 122.2 61.3179 119.832V96.7365C61.3179 94.3692 63.281 92.406 65.6483 92.406C68.0157 92.406 69.9788 94.3692 69.9788 96.7365V119.832C69.9788 122.2 68.0157 124.163 65.6483 124.163Z" fill="white"/>
</svg>
