<svg width="81" height="74" viewBox="0 0 81 74" fill="none" xmlns="http://www.w3.org/2000/svg">
<path d="M17.7195 73.4795H63.1604C68.0748 73.4795 70.9476 70.7073 70.9476 65.8213V34.1834L75.4114 38.2724C76.1386 38.9655 76.9345 39.4506 77.9035 39.4506C79.5301 39.4506 80.8449 38.4457 80.8449 36.7823C80.8449 35.7428 80.4643 35.0844 79.8073 34.4954L67.7978 23.5103V3.09998C67.7978 1.57518 66.8288 0.60498 65.3064 0.60498H60.7723C59.2841 0.60498 58.2459 1.57518 58.2459 3.09998V14.8125L44.5756 2.33765C43.3643 1.22877 41.9108 0.60498 40.4226 0.60498C38.9345 0.60498 37.4809 1.22877 36.2696 2.33765L1.03822 34.4954C0.415375 35.0844 0 35.7428 0 36.7823C0 38.4457 1.31508 39.4506 2.94173 39.4506C3.94539 39.4506 4.7413 38.9655 5.43354 38.2724L9.89797 34.218V65.8213C9.89797 70.7073 12.7704 73.4795 17.7195 73.4795ZM50.3898 44.8911C50.3898 43.2971 49.3516 42.2922 47.7597 42.2922H33.0856C31.4936 42.2922 30.4208 43.2971 30.4208 44.8911V67.9005H18.8962C16.6813 67.9005 15.47 66.6877 15.47 64.4352V29.1241L39.2113 7.46618C39.5575 7.11961 39.9727 6.91174 40.4226 6.91174C40.8725 6.91174 41.2878 7.08502 41.6686 7.46618L65.3751 29.1241V64.4352C65.3751 66.6877 64.1638 67.9005 61.9837 67.9005H50.3898V44.8911Z" fill="white"/>
</svg>
