<svg width="372" height="503" viewBox="0 0 372 503" fill="none" xmlns="http://www.w3.org/2000/svg">
<path d="M28.5806 19V4.45455H31.6559V16.4645H37.8917V19H28.5806ZM52.7283 11.7273C52.7283 13.3134 52.4277 14.6629 51.8263 15.7756C51.2298 16.8883 50.4154 17.7382 49.3832 18.3253C48.3557 18.9077 47.2004 19.1989 45.9173 19.1989C44.6246 19.1989 43.4646 18.9053 42.4371 18.3182C41.4097 17.7311 40.5977 16.8812 40.0011 15.7685C39.4045 14.6558 39.1062 13.3087 39.1062 11.7273C39.1062 10.1411 39.4045 8.79167 40.0011 7.67898C40.5977 6.56629 41.4097 5.71875 42.4371 5.13636C43.4646 4.54924 44.6246 4.25568 45.9173 4.25568C47.2004 4.25568 48.3557 4.54924 49.3832 5.13636C50.4154 5.71875 51.2298 6.56629 51.8263 7.67898C52.4277 8.79167 52.7283 10.1411 52.7283 11.7273ZM49.6104 11.7273C49.6104 10.6998 49.4566 9.83333 49.1488 9.12784C48.8458 8.42235 48.4173 7.88731 47.8633 7.52273C47.3093 7.15814 46.6606 6.97585 45.9173 6.97585C45.1739 6.97585 44.5252 7.15814 43.9712 7.52273C43.4173 7.88731 42.9864 8.42235 42.6786 9.12784C42.3756 9.83333 42.2241 10.6998 42.2241 11.7273C42.2241 12.7547 42.3756 13.6212 42.6786 14.3267C42.9864 15.0322 43.4173 15.5672 43.9712 15.9318C44.5252 16.2964 45.1739 16.4787 45.9173 16.4787C46.6606 16.4787 47.3093 16.2964 47.8633 15.9318C48.4173 15.5672 48.8458 15.0322 49.1488 14.3267C49.4566 13.6212 49.6104 12.7547 49.6104 11.7273ZM53.7884 6.99006V4.45455H65.7344V6.99006H61.2812V19H58.2415V6.99006H53.7884ZM67.7017 19V4.45455H77.5028V6.99006H70.777V10.456H76.9986V12.9915H70.777V16.4645H77.5312V19H67.7017Z" fill="black"/>
<path d="M172.731 12.5469H169.62C169.563 12.1444 169.447 11.7869 169.272 11.4744C169.097 11.1572 168.872 10.8873 168.597 10.6648C168.323 10.4422 168.005 10.2718 167.646 10.1534C167.29 10.035 166.905 9.97585 166.488 9.97585C165.735 9.97585 165.079 10.1629 164.521 10.5369C163.962 10.9062 163.529 11.446 163.221 12.1562C162.913 12.8617 162.759 13.7187 162.759 14.7273C162.759 15.7642 162.913 16.6354 163.221 17.3409C163.533 18.0464 163.969 18.5791 164.528 18.9389C165.086 19.2988 165.733 19.4787 166.467 19.4787C166.879 19.4787 167.26 19.4242 167.61 19.3153C167.965 19.2064 168.28 19.0478 168.555 18.8395C168.829 18.6264 169.057 18.3684 169.237 18.0653C169.421 17.7623 169.549 17.4167 169.62 17.0284L172.731 17.0426C172.65 17.7102 172.449 18.3542 172.127 18.9744C171.81 19.59 171.381 20.1416 170.842 20.6293C170.307 21.1122 169.667 21.4957 168.924 21.7798C168.185 22.0592 167.35 22.1989 166.417 22.1989C165.12 22.1989 163.96 21.9053 162.937 21.3182C161.919 20.7311 161.114 19.8812 160.522 18.7685C159.935 17.6558 159.641 16.3087 159.641 14.7273C159.641 13.1411 159.94 11.7917 160.536 10.679C161.133 9.56629 161.942 8.71875 162.965 8.13636C163.988 7.54924 165.138 7.25568 166.417 7.25568C167.26 7.25568 168.041 7.37405 168.761 7.6108C169.485 7.84754 170.127 8.19318 170.685 8.64773C171.244 9.09754 171.699 9.64915 172.049 10.3026C172.404 10.956 172.631 11.7041 172.731 12.5469ZM183.92 7.45455H186.996V16.9006C186.996 17.9612 186.742 18.8892 186.236 19.6847C185.734 20.4801 185.031 21.1004 184.126 21.5455C183.222 21.9858 182.169 22.206 180.966 22.206C179.759 22.206 178.703 21.9858 177.798 21.5455C176.894 21.1004 176.191 20.4801 175.689 19.6847C175.187 18.8892 174.936 17.9612 174.936 16.9006V7.45455H178.011V16.6378C178.011 17.1918 178.132 17.6842 178.374 18.1151C178.62 18.5459 178.965 18.8845 179.411 19.1307C179.856 19.3769 180.374 19.5 180.966 19.5C181.563 19.5 182.081 19.3769 182.521 19.1307C182.966 18.8845 183.31 18.5459 183.551 18.1151C183.797 17.6842 183.92 17.1918 183.92 16.6378V7.45455ZM197.417 11.6378C197.36 11.0649 197.116 10.6198 196.685 10.3026C196.254 9.98532 195.669 9.8267 194.931 9.8267C194.429 9.8267 194.005 9.89773 193.659 10.0398C193.314 10.1771 193.049 10.3688 192.864 10.6151C192.684 10.8613 192.594 11.1406 192.594 11.4531C192.585 11.7135 192.639 11.9408 192.757 12.1349C192.881 12.3291 193.049 12.4972 193.262 12.6392C193.475 12.7765 193.721 12.8973 194 13.0014C194.28 13.1009 194.578 13.1861 194.895 13.2571L196.202 13.5696C196.837 13.7116 197.419 13.901 197.949 14.1378C198.48 14.3745 198.939 14.6657 199.327 15.0114C199.715 15.357 200.016 15.7642 200.229 16.233C200.447 16.7017 200.558 17.2391 200.563 17.8452C200.558 18.7353 200.331 19.5071 199.881 20.1605C199.436 20.8092 198.792 21.3134 197.949 21.6733C197.111 22.0284 196.1 22.206 194.917 22.206C193.742 22.206 192.72 22.026 191.848 21.6662C190.982 21.3063 190.305 20.7737 189.817 20.0682C189.334 19.358 189.081 18.4796 189.057 17.4332H192.033C192.066 17.9209 192.206 18.3281 192.452 18.6548C192.703 18.9768 193.037 19.2206 193.453 19.3864C193.875 19.5473 194.351 19.6278 194.881 19.6278C195.402 19.6278 195.854 19.5521 196.238 19.4006C196.626 19.2491 196.926 19.0384 197.14 18.7685C197.353 18.4986 197.459 18.1884 197.459 17.8381C197.459 17.5114 197.362 17.2367 197.168 17.0142C196.979 16.7917 196.699 16.6023 196.33 16.446C195.965 16.2898 195.518 16.1477 194.988 16.0199L193.404 15.6222C192.177 15.3239 191.209 14.8575 190.499 14.223C189.789 13.5885 189.436 12.7339 189.441 11.6591C189.436 10.7784 189.67 10.009 190.144 9.35085C190.622 8.69271 191.278 8.17898 192.111 7.80966C192.944 7.44034 193.891 7.25568 194.952 7.25568C196.032 7.25568 196.974 7.44034 197.779 7.80966C198.588 8.17898 199.218 8.69271 199.668 9.35085C200.118 10.009 200.35 10.7713 200.364 11.6378H197.417Z" fill="black"/>
<path d="M307.203 12.5469H304.093C304.036 12.1444 303.92 11.7869 303.745 11.4744C303.569 11.1572 303.345 10.8873 303.07 10.6648C302.795 10.4422 302.478 10.2718 302.118 10.1534C301.763 10.035 301.377 9.97585 300.961 9.97585C300.208 9.97585 299.552 10.1629 298.993 10.5369C298.435 10.9062 298.001 11.446 297.694 12.1562C297.386 12.8617 297.232 13.7187 297.232 14.7273C297.232 15.7642 297.386 16.6354 297.694 17.3409C298.006 18.0464 298.442 18.5791 299 18.9389C299.559 19.2988 300.205 19.4787 300.939 19.4787C301.351 19.4787 301.732 19.4242 302.083 19.3153C302.438 19.2064 302.753 19.0478 303.027 18.8395C303.302 18.6264 303.529 18.3684 303.709 18.0653C303.894 17.7623 304.022 17.4167 304.093 17.0284L307.203 17.0426C307.123 17.7102 306.922 18.3542 306.6 18.9744C306.283 19.59 305.854 20.1416 305.314 20.6293C304.779 21.1122 304.14 21.4957 303.397 21.7798C302.658 22.0592 301.822 22.1989 300.89 22.1989C299.592 22.1989 298.432 21.9053 297.409 21.3182C296.391 20.7311 295.587 19.8812 294.995 18.7685C294.408 17.6558 294.114 16.3087 294.114 14.7273C294.114 13.1411 294.412 11.7917 295.009 10.679C295.605 9.56629 296.415 8.71875 297.438 8.13636C298.461 7.54924 299.611 7.25568 300.89 7.25568C301.732 7.25568 302.514 7.37405 303.233 7.6108C303.958 7.84754 304.599 8.19318 305.158 8.64773C305.717 9.09754 306.171 9.64915 306.522 10.3026C306.877 10.956 307.104 11.7041 307.203 12.5469ZM322.775 14.7273C322.775 16.3134 322.475 17.6629 321.873 18.7756C321.277 19.8883 320.462 20.7382 319.43 21.3253C318.403 21.9077 317.247 22.1989 315.964 22.1989C314.672 22.1989 313.511 21.9053 312.484 21.3182C311.457 20.7311 310.645 19.8812 310.048 18.7685C309.451 17.6558 309.153 16.3087 309.153 14.7273C309.153 13.1411 309.451 11.7917 310.048 10.679C310.645 9.56629 311.457 8.71875 312.484 8.13636C313.511 7.54924 314.672 7.25568 315.964 7.25568C317.247 7.25568 318.403 7.54924 319.43 8.13636C320.462 8.71875 321.277 9.56629 321.873 10.679C322.475 11.7917 322.775 13.1411 322.775 14.7273ZM319.657 14.7273C319.657 13.6998 319.503 12.8333 319.196 12.1278C318.893 11.4223 318.464 10.8873 317.91 10.5227C317.356 10.1581 316.708 9.97585 315.964 9.97585C315.221 9.97585 314.572 10.1581 314.018 10.5227C313.464 10.8873 313.033 11.4223 312.725 12.1278C312.422 12.8333 312.271 13.6998 312.271 14.7273C312.271 15.7547 312.422 16.6212 312.725 17.3267C313.033 18.0322 313.464 18.5672 314.018 18.9318C314.572 19.2964 315.221 19.4787 315.964 19.4787C316.708 19.4787 317.356 19.2964 317.91 18.9318C318.464 18.5672 318.893 18.0322 319.196 17.3267C319.503 16.6212 319.657 15.7547 319.657 14.7273ZM332.944 11.6378C332.887 11.0649 332.643 10.6198 332.212 10.3026C331.781 9.98532 331.197 9.8267 330.458 9.8267C329.956 9.8267 329.532 9.89773 329.187 10.0398C328.841 10.1771 328.576 10.3688 328.391 10.6151C328.211 10.8613 328.121 11.1406 328.121 11.4531C328.112 11.7135 328.166 11.9408 328.285 12.1349C328.408 12.3291 328.576 12.4972 328.789 12.6392C329.002 12.7765 329.248 12.8973 329.528 13.0014C329.807 13.1009 330.105 13.1861 330.423 13.2571L331.729 13.5696C332.364 13.7116 332.946 13.901 333.477 14.1378C334.007 14.3745 334.466 14.6657 334.854 15.0114C335.243 15.357 335.543 15.7642 335.756 16.233C335.974 16.7017 336.085 17.2391 336.09 17.8452C336.085 18.7353 335.858 19.5071 335.408 20.1605C334.963 20.8092 334.319 21.3134 333.477 21.6733C332.638 22.0284 331.628 22.206 330.444 22.206C329.27 22.206 328.247 22.026 327.376 21.6662C326.509 21.3063 325.832 20.7737 325.344 20.0682C324.862 19.358 324.608 18.4796 324.585 17.4332H327.56C327.594 17.9209 327.733 18.3281 327.979 18.6548C328.23 18.9768 328.564 19.2206 328.981 19.3864C329.402 19.5473 329.878 19.6278 330.408 19.6278C330.929 19.6278 331.381 19.5521 331.765 19.4006C332.153 19.2491 332.454 19.0384 332.667 18.7685C332.88 18.4986 332.987 18.1884 332.987 17.8381C332.987 17.5114 332.889 17.2367 332.695 17.0142C332.506 16.7917 332.227 16.6023 331.857 16.446C331.493 16.2898 331.045 16.1477 330.515 16.0199L328.931 15.6222C327.705 15.3239 326.737 14.8575 326.026 14.223C325.316 13.5885 324.963 12.7339 324.968 11.6591C324.963 10.7784 325.198 10.009 325.671 9.35085C326.149 8.69271 326.805 8.17898 327.638 7.80966C328.472 7.44034 329.419 7.25568 330.479 7.25568C331.559 7.25568 332.501 7.44034 333.306 7.80966C334.116 8.17898 334.746 8.69271 335.195 9.35085C335.645 10.009 335.877 10.7713 335.891 11.6378H332.944Z" fill="black"/>
<line x1="1" y1="38.5" x2="372" y2="38.5" stroke="black"/>
<path d="M58.6145 57.4545V72H55.5392V60.3736H55.454L52.123 62.4616V59.7344L55.7239 57.4545H58.6145Z" fill="black"/>
<path d="M50.8801 106V103.784L56.0577 98.9901C56.498 98.5639 56.8674 98.1804 57.1657 97.8395C57.4687 97.4986 57.6983 97.1648 57.8546 96.8381C58.0108 96.5066 58.089 96.1491 58.089 95.7656C58.089 95.3395 57.9919 94.9725 57.7978 94.6648C57.6036 94.3523 57.3385 94.1132 57.0023 93.9474C56.6661 93.777 56.285 93.6918 55.8588 93.6918C55.4138 93.6918 55.0255 93.7817 54.6941 93.9616C54.3626 94.1416 54.1069 94.3996 53.927 94.7358C53.7471 95.072 53.6571 95.4721 53.6571 95.9361H50.7381C50.7381 94.9844 50.9535 94.1581 51.3844 93.4574C51.8153 92.7566 52.419 92.2145 53.1955 91.831C53.972 91.4474 54.8669 91.2557 55.8801 91.2557C56.9218 91.2557 57.8285 91.4403 58.6003 91.8097C59.3768 92.1742 59.9805 92.6809 60.4114 93.3295C60.8423 93.9782 61.0577 94.7216 61.0577 95.5597C61.0577 96.1089 60.9488 96.651 60.731 97.1861C60.5179 97.7211 60.1368 98.3153 59.5875 98.9688C59.0383 99.6174 58.2641 100.396 57.2651 101.305L55.1415 103.386V103.486H61.2495V106H50.8801Z" fill="black"/>
<path d="M55.9636 145.199C54.903 145.199 53.9584 145.017 53.1298 144.652C52.3059 144.283 51.6549 143.776 51.1767 143.132C50.7032 142.483 50.4593 141.735 50.4451 140.888H53.5417C53.5607 141.243 53.6767 141.555 53.8897 141.825C54.1075 142.09 54.3964 142.296 54.7562 142.443C55.1161 142.59 55.5209 142.663 55.9707 142.663C56.4395 142.663 56.8538 142.58 57.2136 142.415C57.5734 142.249 57.8552 142.019 58.0588 141.726C58.2624 141.432 58.3642 141.094 58.3642 140.71C58.3642 140.322 58.2553 139.979 58.0375 139.68C57.8244 139.377 57.5166 139.141 57.1142 138.97C56.7164 138.8 56.243 138.714 55.6937 138.714H54.3372V136.456H55.6937C56.1577 136.456 56.5673 136.375 56.9224 136.214C57.2823 136.054 57.5616 135.831 57.7605 135.547C57.9593 135.258 58.0588 134.922 58.0588 134.538C58.0588 134.174 57.9712 133.854 57.796 133.58C57.6255 133.3 57.3841 133.082 57.0716 132.926C56.7638 132.77 56.4039 132.692 55.992 132.692C55.5753 132.692 55.1942 132.768 54.8485 132.919C54.5029 133.066 54.2259 133.277 54.0176 133.551C53.8092 133.826 53.698 134.148 53.6838 134.517H50.7363C50.7505 133.679 50.9896 132.94 51.4537 132.301C51.9177 131.662 52.5427 131.162 53.3287 130.803C54.1194 130.438 55.0119 130.256 56.0062 130.256C57.01 130.256 57.8883 130.438 58.6412 130.803C59.394 131.167 59.9788 131.66 60.3954 132.28C60.8168 132.895 61.0252 133.587 61.0204 134.354C61.0252 135.168 60.7718 135.848 60.2605 136.392C59.7538 136.937 59.0933 137.282 58.2789 137.429V137.543C59.349 137.68 60.1634 138.052 60.7221 138.658C61.2856 139.259 61.5649 140.012 61.5602 140.916C61.5649 141.745 61.3258 142.481 60.8429 143.125C60.3646 143.769 59.7041 144.276 58.8613 144.645C58.0185 145.014 57.0526 145.199 55.9636 145.199Z" fill="black"/>
<path d="M50.1815 177.443V175.021L56.2539 165.455H58.342V168.807H57.1062L53.2781 174.865V174.979H61.9073V177.443H50.1815ZM57.163 180V176.705L57.2198 175.632V165.455H60.1033V180H57.163Z" fill="black"/>
<path d="M56.0462 214.199C55.0424 214.199 54.1475 214.014 53.3615 213.645C52.5803 213.276 51.96 212.767 51.5007 212.118C51.0414 211.469 50.8023 210.726 50.7834 209.888H53.7663C53.7995 210.451 54.0362 210.908 54.4766 211.259C54.9169 211.609 55.4401 211.784 56.0462 211.784C56.5291 211.784 56.9553 211.678 57.3246 211.464C57.6986 211.247 57.9898 210.946 58.1982 210.562C58.4112 210.174 58.5178 209.729 58.5178 209.227C58.5178 208.716 58.4089 208.266 58.1911 207.878C57.978 207.49 57.6821 207.187 57.3033 206.969C56.9245 206.751 56.4912 206.64 56.0036 206.635C55.5774 206.635 55.1631 206.723 54.7607 206.898C54.3629 207.073 54.0528 207.312 53.8303 207.615L51.0959 207.125L51.7848 199.455H60.6768V201.969H54.3203L53.9439 205.612H54.0291C54.2848 205.252 54.6707 204.954 55.1868 204.717C55.7029 204.481 56.2805 204.362 56.9197 204.362C57.7957 204.362 58.5769 204.568 59.2635 204.98C59.95 205.392 60.4922 205.958 60.8899 206.678C61.2876 207.393 61.4841 208.216 61.4794 209.149C61.4841 210.129 61.2569 211 60.7976 211.763C60.343 212.52 59.7062 213.117 58.8871 213.553C58.0727 213.983 57.1257 214.199 56.0462 214.199Z" fill="black"/>
<path d="M56.1598 249.199C55.4117 249.194 54.6896 249.069 53.9936 248.822C53.3023 248.576 52.6821 248.176 52.1328 247.622C51.5836 247.068 51.148 246.334 50.826 245.42C50.5088 244.507 50.3501 243.384 50.3501 242.054C50.3549 240.832 50.4946 239.741 50.7692 238.78C51.0485 237.814 51.4463 236.995 51.9624 236.322C52.4832 235.65 53.1058 235.139 53.8303 234.788C54.5547 234.433 55.3667 234.256 56.2663 234.256C57.237 234.256 58.094 234.445 58.8374 234.824C59.5807 235.198 60.1773 235.707 60.6271 236.351C61.0817 236.995 61.3563 237.717 61.451 238.517H58.4183C58.3 238.01 58.0514 237.613 57.6726 237.324C57.2938 237.035 56.825 236.891 56.2663 236.891C55.3194 236.891 54.5997 237.303 54.1072 238.126C53.6196 238.95 53.371 240.07 53.3615 241.486H53.4609C53.6787 241.055 53.9723 240.688 54.3416 240.385C54.7157 240.077 55.1394 239.843 55.6129 239.682C56.0911 239.516 56.5954 239.433 57.1257 239.433C57.9875 239.433 58.7545 239.637 59.4268 240.044C60.0992 240.446 60.6295 241 61.0178 241.706C61.406 242.411 61.6001 243.219 61.6001 244.128C61.6001 245.113 61.3705 245.989 60.9112 246.756C60.4567 247.523 59.8198 248.124 59.0007 248.56C58.1863 248.991 57.2393 249.204 56.1598 249.199ZM56.1456 246.784C56.6191 246.784 57.0429 246.67 57.4169 246.443C57.791 246.216 58.0845 245.908 58.2976 245.52C58.5107 245.132 58.6172 244.696 58.6172 244.213C58.6172 243.73 58.5107 243.297 58.2976 242.913C58.0893 242.53 57.8004 242.224 57.4311 241.997C57.0618 241.77 56.6404 241.656 56.1669 241.656C55.8118 241.656 55.4827 241.723 55.1797 241.855C54.8814 241.988 54.6186 242.172 54.3913 242.409C54.1688 242.646 53.9936 242.92 53.8658 243.233C53.7379 243.541 53.674 243.87 53.674 244.22C53.674 244.689 53.7805 245.117 53.9936 245.506C54.2114 245.894 54.505 246.204 54.8743 246.436C55.2483 246.668 55.6721 246.784 56.1456 246.784Z" fill="black"/>
<path d="M51.807 284L57.8368 272.068V271.969H50.8127V269.455H61.0186V272.004L54.9817 284H51.807Z" fill="black"/>
<path d="M55.9938 319.199C54.9 319.199 53.927 319.021 53.0748 318.666C52.2272 318.306 51.562 317.816 51.079 317.196C50.5961 316.576 50.3546 315.873 50.3546 315.087C50.3546 314.481 50.4919 313.924 50.7665 313.418C51.0459 312.906 51.4247 312.482 51.9029 312.146C52.3811 311.805 52.9161 311.588 53.508 311.493V311.393C52.7315 311.237 52.1017 310.861 51.6188 310.264C51.1358 309.663 50.8944 308.964 50.8944 308.169C50.8944 307.416 51.1145 306.746 51.5549 306.159C51.9952 305.567 52.5989 305.103 53.3659 304.767C54.1377 304.426 55.0137 304.256 55.9938 304.256C56.9739 304.256 57.8475 304.426 58.6145 304.767C59.3863 305.108 59.9924 305.574 60.4327 306.166C60.873 306.753 61.0956 307.421 61.1003 308.169C61.0956 308.969 60.8494 309.668 60.3617 310.264C59.874 310.861 59.249 311.237 58.4867 311.393V311.493C59.0691 311.588 59.597 311.805 60.0705 312.146C60.5487 312.482 60.9275 312.906 61.2069 313.418C61.4909 313.924 61.6354 314.481 61.6401 315.087C61.6354 315.873 61.3915 316.576 60.9086 317.196C60.4256 317.816 59.758 318.306 58.9057 318.666C58.0582 319.021 57.0875 319.199 55.9938 319.199ZM55.9938 316.94C56.4815 316.94 56.9076 316.853 57.2722 316.678C57.6368 316.498 57.9209 316.251 58.1245 315.939C58.3328 315.622 58.437 315.257 58.437 314.845C58.437 314.424 58.3304 314.052 58.1174 313.73C57.9043 313.403 57.6155 313.148 57.2509 312.963C56.8863 312.774 56.4673 312.679 55.9938 312.679C55.525 312.679 55.106 312.774 54.7367 312.963C54.3674 313.148 54.0762 313.403 53.8631 313.73C53.6548 314.052 53.5506 314.424 53.5506 314.845C53.5506 315.257 53.6524 315.622 53.856 315.939C54.0596 316.251 54.3461 316.498 54.7154 316.678C55.0847 316.853 55.5108 316.94 55.9938 316.94ZM55.9938 310.442C56.401 310.442 56.7632 310.359 57.0804 310.193C57.3977 310.027 57.6462 309.798 57.8262 309.504C58.0061 309.211 58.0961 308.872 58.0961 308.489C58.0961 308.11 58.0061 307.778 57.8262 307.494C57.6462 307.205 57.4 306.981 57.0875 306.82C56.775 306.654 56.4105 306.571 55.9938 306.571C55.5819 306.571 55.2173 306.654 54.9 306.82C54.5828 306.981 54.3342 307.205 54.1543 307.494C53.9791 307.778 53.8915 308.11 53.8915 308.489C53.8915 308.872 53.9815 309.211 54.1614 309.504C54.3413 309.798 54.5899 310.027 54.9071 310.193C55.2244 310.359 55.5866 310.442 55.9938 310.442Z" fill="black"/>
<path d="M55.8402 336.256C56.5883 336.256 57.308 336.381 57.9993 336.632C58.6953 336.883 59.3156 337.283 59.8601 337.832C60.4093 338.382 60.8426 339.111 61.1598 340.02C61.4818 340.924 61.6451 342.035 61.6499 343.351C61.6499 344.587 61.5102 345.69 61.2308 346.661C60.9562 347.626 60.5608 348.448 60.0447 349.125C59.5286 349.802 58.906 350.318 58.1768 350.673C57.4477 351.024 56.6333 351.199 55.7337 351.199C54.763 351.199 53.906 351.012 53.1626 350.638C52.4193 350.259 51.8203 349.745 51.3658 349.097C50.916 348.443 50.6437 347.709 50.549 346.895H53.5817C53.7 347.425 53.9486 347.837 54.3274 348.131C54.7062 348.42 55.175 348.564 55.7337 348.564C56.6806 348.564 57.4003 348.152 57.8928 347.328C58.3852 346.5 58.6338 345.366 58.6385 343.926H58.5391C58.3213 344.352 58.0277 344.719 57.6584 345.027C57.2891 345.33 56.8653 345.564 56.3871 345.73C55.9136 345.896 55.4093 345.979 54.8743 345.979C54.0173 345.979 53.2526 345.777 52.5803 345.375C51.9079 344.973 51.3776 344.419 50.9893 343.713C50.6011 343.008 50.407 342.203 50.407 341.298C50.4022 340.323 50.6271 339.454 51.0817 338.692C51.5362 337.929 52.1707 337.333 52.9851 336.902C53.8042 336.466 54.7559 336.251 55.8402 336.256ZM55.8615 338.67C55.3833 338.67 54.9571 338.784 54.5831 339.011C54.2138 339.239 53.9202 339.544 53.7024 339.928C53.4893 340.311 53.3852 340.74 53.3899 341.213C53.3899 341.691 53.4941 342.122 53.7024 342.506C53.9155 342.884 54.2043 343.187 54.5689 343.415C54.9382 343.637 55.3596 343.749 55.8331 343.749C56.1882 343.749 56.5173 343.682 56.8203 343.55C57.1233 343.417 57.3861 343.235 57.6087 343.003C57.8359 342.766 58.0135 342.494 58.1413 342.186C58.2692 341.878 58.3331 341.552 58.3331 341.206C58.3284 340.747 58.2195 340.325 58.0064 339.942C57.7933 339.558 57.4998 339.25 57.1257 339.018C56.7517 338.786 56.3303 338.67 55.8615 338.67Z" fill="black"/>
<path d="M51.7298 374.455V389H48.6545V377.374H48.5692L45.2383 379.462V376.734L48.8391 374.455H51.7298ZM60.8899 389.32C59.6683 389.315 58.6172 389.014 57.7365 388.418C56.8606 387.821 56.1858 386.957 55.7124 385.825C55.2436 384.694 55.0116 383.332 55.0163 381.741C55.0163 380.155 55.2507 378.804 55.7195 377.686C56.1929 376.569 56.8677 375.719 57.7436 375.136C58.6243 374.549 59.6731 374.256 60.8899 374.256C62.1068 374.256 63.1532 374.549 64.0291 375.136C64.9098 375.723 65.5869 376.576 66.0604 377.693C66.5339 378.806 66.7682 380.155 66.7635 381.741C66.7635 383.337 66.5268 384.701 66.0533 385.832C65.5845 386.964 64.9122 387.828 64.0362 388.425C63.1603 389.021 62.1115 389.32 60.8899 389.32ZM60.8899 386.77C61.7232 386.77 62.3885 386.351 62.8857 385.513C63.3828 384.675 63.629 383.418 63.6243 381.741C63.6243 380.638 63.5107 379.72 63.2834 378.986C63.0608 378.252 62.7436 377.7 62.3317 377.331C61.9245 376.962 61.4439 376.777 60.8899 376.777C60.0613 376.777 59.3984 377.191 58.9013 378.02C58.4041 378.848 58.1532 380.089 58.1484 381.741C58.1484 382.859 58.2597 383.792 58.4822 384.54C58.7095 385.283 59.0291 385.842 59.4411 386.216C59.853 386.585 60.3359 386.77 60.8899 386.77Z" fill="black"/>
<path d="M53.7219 408.455V423H50.6467V411.374H50.5614L47.2305 413.462V410.734L50.8313 408.455H53.7219ZM63.5071 408.455V423H60.4318V411.374H60.3466L57.0156 413.462V410.734L60.6165 408.455H63.5071Z" fill="black"/>
<path d="M52.3157 443.455V458H49.2404V446.374H49.1552L45.8242 448.462V445.734L49.4251 443.455H52.3157ZM55.7727 458V455.784L60.9503 450.99C61.3906 450.564 61.7599 450.18 62.0582 449.839C62.3613 449.499 62.5909 449.165 62.7472 448.838C62.9034 448.507 62.9815 448.149 62.9815 447.766C62.9815 447.339 62.8845 446.973 62.6903 446.665C62.4962 446.352 62.2311 446.113 61.8949 445.947C61.5587 445.777 61.1776 445.692 60.7514 445.692C60.3063 445.692 59.9181 445.782 59.5866 445.962C59.2552 446.142 58.9995 446.4 58.8196 446.736C58.6397 447.072 58.5497 447.472 58.5497 447.936H55.6307C55.6307 446.984 55.8461 446.158 56.277 445.457C56.7079 444.757 57.3116 444.214 58.0881 443.831C58.8646 443.447 59.7595 443.256 60.7727 443.256C61.8144 443.256 62.7211 443.44 63.4929 443.81C64.2694 444.174 64.8731 444.681 65.304 445.33C65.7348 445.978 65.9503 446.722 65.9503 447.56C65.9503 448.109 65.8414 448.651 65.6236 449.186C65.4105 449.721 65.0294 450.315 64.4801 450.969C63.9309 451.617 63.1567 452.396 62.1577 453.305L60.0341 455.386V455.486H66.142V458H55.7727Z" fill="black"/>
<path d="M52.0227 479.455V494H48.9474V482.374H48.8622L45.5312 484.462V481.734L49.1321 479.455H52.0227ZM60.8562 494.199C59.7956 494.199 58.851 494.017 58.0224 493.652C57.1985 493.283 56.5475 492.776 56.0692 492.132C55.5958 491.483 55.3519 490.735 55.3377 489.888H58.4343C58.4532 490.243 58.5692 490.555 58.7823 490.825C59.0001 491.09 59.2889 491.296 59.6488 491.443C60.0086 491.59 60.4135 491.663 60.8633 491.663C61.332 491.663 61.7463 491.58 62.1062 491.415C62.466 491.249 62.7478 491.019 62.9513 490.726C63.1549 490.432 63.2567 490.094 63.2567 489.71C63.2567 489.322 63.1478 488.979 62.93 488.68C62.717 488.377 62.4092 488.141 62.0067 487.97C61.609 487.8 61.1355 487.714 60.5863 487.714H59.2298V485.456H60.5863C61.0503 485.456 61.4599 485.375 61.815 485.214C62.1748 485.054 62.4542 484.831 62.6531 484.547C62.8519 484.258 62.9513 483.922 62.9513 483.538C62.9513 483.174 62.8638 482.854 62.6886 482.58C62.5181 482.3 62.2766 482.082 61.9641 481.926C61.6564 481.77 61.2965 481.692 60.8846 481.692C60.4679 481.692 60.0868 481.768 59.7411 481.919C59.3955 482.066 59.1185 482.277 58.9102 482.551C58.7018 482.826 58.5906 483.148 58.5763 483.517H55.6289C55.6431 482.679 55.8822 481.94 56.3462 481.301C56.8103 480.662 57.4353 480.162 58.2212 479.803C59.012 479.438 59.9045 479.256 60.8988 479.256C61.9026 479.256 62.7809 479.438 63.5337 479.803C64.2866 480.167 64.8713 480.66 65.288 481.28C65.7094 481.895 65.9177 482.587 65.913 483.354C65.9177 484.168 65.6644 484.848 65.1531 485.392C64.6464 485.937 63.9859 486.282 63.1715 486.429V486.543C64.2416 486.68 65.056 487.052 65.6147 487.658C66.1781 488.259 66.4575 489.012 66.4528 489.916C66.4575 490.745 66.2184 491.481 65.7354 492.125C65.2572 492.769 64.5967 493.276 63.7539 493.645C62.9111 494.014 61.9452 494.199 60.8562 494.199Z" fill="black"/>
<path d="M173.708 56.4545V71H170.633V59.3736H170.548L167.217 61.4616V58.7344L170.818 56.4545H173.708ZM178.181 71.1847C177.712 71.1847 177.31 71.0189 176.974 70.6875C176.642 70.3513 176.476 69.9489 176.476 69.4801C176.476 69.0161 176.642 68.6184 176.974 68.2869C177.31 67.9555 177.712 67.7898 178.181 67.7898C178.635 67.7898 179.033 67.9555 179.374 68.2869C179.715 68.6184 179.885 69.0161 179.885 69.4801C179.885 69.7926 179.805 70.0791 179.644 70.3395C179.488 70.5952 179.282 70.8011 179.026 70.9574C178.77 71.1089 178.489 71.1847 178.181 71.1847ZM187.181 71.1989C186.088 71.1989 185.115 71.0213 184.262 70.6662C183.415 70.3063 182.749 69.8163 182.267 69.196C181.784 68.5758 181.542 67.8726 181.542 67.0866C181.542 66.4806 181.679 65.9242 181.954 65.4176C182.233 64.9062 182.612 64.4825 183.09 64.1463C183.569 63.8054 184.104 63.5876 184.695 63.4929V63.3935C183.919 63.2372 183.289 62.8608 182.806 62.2642C182.323 61.6629 182.082 60.9645 182.082 60.169C182.082 59.4162 182.302 58.7462 182.742 58.1591C183.183 57.5672 183.786 57.1032 184.553 56.767C185.325 56.4261 186.201 56.2557 187.181 56.2557C188.161 56.2557 189.035 56.4261 189.802 56.767C190.574 57.108 191.18 57.5743 191.62 58.1662C192.061 58.7533 192.283 59.4209 192.288 60.169C192.283 60.9692 192.037 61.6676 191.549 62.2642C191.061 62.8608 190.436 63.2372 189.674 63.3935V63.4929C190.257 63.5876 190.785 63.8054 191.258 64.1463C191.736 64.4825 192.115 64.9062 192.394 65.4176C192.678 65.9242 192.823 66.4806 192.828 67.0866C192.823 67.8726 192.579 68.5758 192.096 69.196C191.613 69.8163 190.945 70.3063 190.093 70.6662C189.246 71.0213 188.275 71.1989 187.181 71.1989ZM187.181 68.9403C187.669 68.9403 188.095 68.8527 188.46 68.6776C188.824 68.4976 189.108 68.2514 189.312 67.9389C189.52 67.6217 189.624 67.2571 189.624 66.8452C189.624 66.4238 189.518 66.0521 189.305 65.7301C189.092 65.4034 188.803 65.1477 188.438 64.9631C188.074 64.7737 187.655 64.679 187.181 64.679C186.713 64.679 186.294 64.7737 185.924 64.9631C185.555 65.1477 185.264 65.4034 185.051 65.7301C184.842 66.0521 184.738 66.4238 184.738 66.8452C184.738 67.2571 184.84 67.6217 185.044 67.9389C185.247 68.2514 185.534 68.4976 185.903 68.6776C186.272 68.8527 186.698 68.9403 187.181 68.9403ZM187.181 62.4418C187.588 62.4418 187.951 62.3589 188.268 62.1932C188.585 62.0275 188.834 61.7978 189.014 61.5043C189.194 61.2107 189.284 60.8722 189.284 60.4886C189.284 60.1098 189.194 59.7784 189.014 59.4943C188.834 59.2055 188.588 58.9806 188.275 58.8196C187.963 58.6539 187.598 58.571 187.181 58.571C186.769 58.571 186.405 58.6539 186.088 58.8196C185.77 58.9806 185.522 59.2055 185.342 59.4943C185.167 59.7784 185.079 60.1098 185.079 60.4886C185.079 60.8722 185.169 61.2107 185.349 61.5043C185.529 61.7978 185.777 62.0275 186.095 62.1932C186.412 62.3589 186.774 62.4418 187.181 62.4418Z" fill="black"/>
<path d="M173.708 96.4545V111H170.633V99.3736H170.548L167.217 101.462V98.7344L170.818 96.4545H173.708ZM178.181 111.185C177.712 111.185 177.31 111.019 176.974 110.688C176.642 110.351 176.476 109.949 176.476 109.48C176.476 109.016 176.642 108.618 176.974 108.287C177.31 107.955 177.712 107.79 178.181 107.79C178.635 107.79 179.033 107.955 179.374 108.287C179.715 108.618 179.885 109.016 179.885 109.48C179.885 109.793 179.805 110.079 179.644 110.339C179.488 110.595 179.282 110.801 179.026 110.957C178.77 111.109 178.489 111.185 178.181 111.185ZM187.181 111.199C186.088 111.199 185.115 111.021 184.262 110.666C183.415 110.306 182.749 109.816 182.267 109.196C181.784 108.576 181.542 107.873 181.542 107.087C181.542 106.481 181.679 105.924 181.954 105.418C182.233 104.906 182.612 104.482 183.09 104.146C183.569 103.805 184.104 103.588 184.695 103.493V103.393C183.919 103.237 183.289 102.861 182.806 102.264C182.323 101.663 182.082 100.964 182.082 100.169C182.082 99.4162 182.302 98.7462 182.742 98.1591C183.183 97.5672 183.786 97.1032 184.553 96.767C185.325 96.4261 186.201 96.2557 187.181 96.2557C188.161 96.2557 189.035 96.4261 189.802 96.767C190.574 97.108 191.18 97.5743 191.62 98.1662C192.061 98.7533 192.283 99.4209 192.288 100.169C192.283 100.969 192.037 101.668 191.549 102.264C191.061 102.861 190.436 103.237 189.674 103.393V103.493C190.257 103.588 190.785 103.805 191.258 104.146C191.736 104.482 192.115 104.906 192.394 105.418C192.678 105.924 192.823 106.481 192.828 107.087C192.823 107.873 192.579 108.576 192.096 109.196C191.613 109.816 190.945 110.306 190.093 110.666C189.246 111.021 188.275 111.199 187.181 111.199ZM187.181 108.94C187.669 108.94 188.095 108.853 188.46 108.678C188.824 108.498 189.108 108.251 189.312 107.939C189.52 107.622 189.624 107.257 189.624 106.845C189.624 106.424 189.518 106.052 189.305 105.73C189.092 105.403 188.803 105.148 188.438 104.963C188.074 104.774 187.655 104.679 187.181 104.679C186.713 104.679 186.294 104.774 185.924 104.963C185.555 105.148 185.264 105.403 185.051 105.73C184.842 106.052 184.738 106.424 184.738 106.845C184.738 107.257 184.84 107.622 185.044 107.939C185.247 108.251 185.534 108.498 185.903 108.678C186.272 108.853 186.698 108.94 187.181 108.94ZM187.181 102.442C187.588 102.442 187.951 102.359 188.268 102.193C188.585 102.027 188.834 101.798 189.014 101.504C189.194 101.211 189.284 100.872 189.284 100.489C189.284 100.11 189.194 99.7784 189.014 99.4943C188.834 99.2055 188.588 98.9806 188.275 98.8196C187.963 98.6539 187.598 98.571 187.181 98.571C186.769 98.571 186.405 98.6539 186.088 98.8196C185.77 98.9806 185.522 99.2055 185.342 99.4943C185.167 99.7784 185.079 100.11 185.079 100.489C185.079 100.872 185.169 101.211 185.349 101.504C185.529 101.798 185.777 102.027 186.095 102.193C186.412 102.359 186.774 102.442 187.181 102.442Z" fill="black"/>
<path d="M173.718 131.455V146H170.643V134.374H170.558L167.227 136.462V133.734L170.827 131.455H173.718ZM178.191 146.185C177.722 146.185 177.319 146.019 176.983 145.688C176.652 145.351 176.486 144.949 176.486 144.48C176.486 144.016 176.652 143.618 176.983 143.287C177.319 142.955 177.722 142.79 178.191 142.79C178.645 142.79 179.043 142.955 179.384 143.287C179.725 143.618 179.895 144.016 179.895 144.48C179.895 144.793 179.815 145.079 179.654 145.339C179.498 145.595 179.292 145.801 179.036 145.957C178.78 146.109 178.498 146.185 178.191 146.185ZM187.347 146.199C186.599 146.194 185.877 146.069 185.181 145.822C184.49 145.576 183.87 145.176 183.32 144.622C182.771 144.068 182.335 143.334 182.013 142.42C181.696 141.507 181.538 140.384 181.538 139.054C181.542 137.832 181.682 136.741 181.957 135.78C182.236 134.814 182.634 133.995 183.15 133.322C183.671 132.65 184.293 132.139 185.018 131.788C185.742 131.433 186.554 131.256 187.454 131.256C188.424 131.256 189.281 131.445 190.025 131.824C190.768 132.198 191.365 132.707 191.815 133.351C192.269 133.995 192.544 134.717 192.638 135.517H189.606C189.487 135.01 189.239 134.613 188.86 134.324C188.481 134.035 188.013 133.891 187.454 133.891C186.507 133.891 185.787 134.303 185.295 135.126C184.807 135.95 184.558 137.07 184.549 138.486H184.648C184.866 138.055 185.16 137.688 185.529 137.385C185.903 137.077 186.327 136.843 186.8 136.682C187.279 136.516 187.783 136.433 188.313 136.433C189.175 136.433 189.942 136.637 190.614 137.044C191.287 137.446 191.817 138 192.205 138.706C192.594 139.411 192.788 140.219 192.788 141.128C192.788 142.113 192.558 142.989 192.099 143.756C191.644 144.523 191.007 145.124 190.188 145.56C189.374 145.991 188.427 146.204 187.347 146.199ZM187.333 143.784C187.807 143.784 188.23 143.67 188.604 143.443C188.978 143.216 189.272 142.908 189.485 142.52C189.698 142.132 189.805 141.696 189.805 141.213C189.805 140.73 189.698 140.297 189.485 139.913C189.277 139.53 188.988 139.224 188.619 138.997C188.249 138.77 187.828 138.656 187.354 138.656C186.999 138.656 186.67 138.723 186.367 138.855C186.069 138.988 185.806 139.172 185.579 139.409C185.356 139.646 185.181 139.92 185.053 140.233C184.925 140.541 184.862 140.87 184.862 141.22C184.862 141.689 184.968 142.117 185.181 142.506C185.399 142.894 185.692 143.204 186.062 143.436C186.436 143.668 186.86 143.784 187.333 143.784Z" fill="black"/>
<path d="M173.718 164.455V179H170.643V167.374H170.558L167.227 169.462V166.734L170.827 164.455H173.718ZM178.191 179.185C177.722 179.185 177.319 179.019 176.983 178.688C176.652 178.351 176.486 177.949 176.486 177.48C176.486 177.016 176.652 176.618 176.983 176.287C177.319 175.955 177.722 175.79 178.191 175.79C178.645 175.79 179.043 175.955 179.384 176.287C179.725 176.618 179.895 177.016 179.895 177.48C179.895 177.793 179.815 178.079 179.654 178.339C179.498 178.595 179.292 178.801 179.036 178.957C178.78 179.109 178.498 179.185 178.191 179.185ZM187.347 179.199C186.599 179.194 185.877 179.069 185.181 178.822C184.49 178.576 183.87 178.176 183.32 177.622C182.771 177.068 182.335 176.334 182.013 175.42C181.696 174.507 181.538 173.384 181.538 172.054C181.542 170.832 181.682 169.741 181.957 168.78C182.236 167.814 182.634 166.995 183.15 166.322C183.671 165.65 184.293 165.139 185.018 164.788C185.742 164.433 186.554 164.256 187.454 164.256C188.424 164.256 189.281 164.445 190.025 164.824C190.768 165.198 191.365 165.707 191.815 166.351C192.269 166.995 192.544 167.717 192.638 168.517H189.606C189.487 168.01 189.239 167.613 188.86 167.324C188.481 167.035 188.013 166.891 187.454 166.891C186.507 166.891 185.787 167.303 185.295 168.126C184.807 168.95 184.558 170.07 184.549 171.486H184.648C184.866 171.055 185.16 170.688 185.529 170.385C185.903 170.077 186.327 169.843 186.8 169.682C187.279 169.516 187.783 169.433 188.313 169.433C189.175 169.433 189.942 169.637 190.614 170.044C191.287 170.446 191.817 171 192.205 171.706C192.594 172.411 192.788 173.219 192.788 174.128C192.788 175.113 192.558 175.989 192.099 176.756C191.644 177.523 191.007 178.124 190.188 178.56C189.374 178.991 188.427 179.204 187.347 179.199ZM187.333 176.784C187.807 176.784 188.23 176.67 188.604 176.443C188.978 176.216 189.272 175.908 189.485 175.52C189.698 175.132 189.805 174.696 189.805 174.213C189.805 173.73 189.698 173.297 189.485 172.913C189.277 172.53 188.988 172.224 188.619 171.997C188.249 171.77 187.828 171.656 187.354 171.656C186.999 171.656 186.67 171.723 186.367 171.855C186.069 171.988 185.806 172.172 185.579 172.409C185.356 172.646 185.181 172.92 185.053 173.233C184.925 173.541 184.862 173.87 184.862 174.22C184.862 174.689 184.968 175.117 185.181 175.506C185.399 175.894 185.692 176.204 186.062 176.436C186.436 176.668 186.86 176.784 187.333 176.784Z" fill="black"/>
<path d="M173.718 198.455V213H170.643V201.374H170.558L167.227 203.462V200.734L170.827 198.455H173.718ZM178.191 213.185C177.722 213.185 177.319 213.019 176.983 212.688C176.652 212.351 176.486 211.949 176.486 211.48C176.486 211.016 176.652 210.618 176.983 210.287C177.319 209.955 177.722 209.79 178.191 209.79C178.645 209.79 179.043 209.955 179.384 210.287C179.725 210.618 179.895 211.016 179.895 211.48C179.895 211.793 179.815 212.079 179.654 212.339C179.498 212.595 179.292 212.801 179.036 212.957C178.78 213.109 178.498 213.185 178.191 213.185ZM187.347 213.199C186.599 213.194 185.877 213.069 185.181 212.822C184.49 212.576 183.87 212.176 183.32 211.622C182.771 211.068 182.335 210.334 182.013 209.42C181.696 208.507 181.538 207.384 181.538 206.054C181.542 204.832 181.682 203.741 181.957 202.78C182.236 201.814 182.634 200.995 183.15 200.322C183.671 199.65 184.293 199.139 185.018 198.788C185.742 198.433 186.554 198.256 187.454 198.256C188.424 198.256 189.281 198.445 190.025 198.824C190.768 199.198 191.365 199.707 191.815 200.351C192.269 200.995 192.544 201.717 192.638 202.517H189.606C189.487 202.01 189.239 201.613 188.86 201.324C188.481 201.035 188.013 200.891 187.454 200.891C186.507 200.891 185.787 201.303 185.295 202.126C184.807 202.95 184.558 204.07 184.549 205.486H184.648C184.866 205.055 185.16 204.688 185.529 204.385C185.903 204.077 186.327 203.843 186.8 203.682C187.279 203.516 187.783 203.433 188.313 203.433C189.175 203.433 189.942 203.637 190.614 204.044C191.287 204.446 191.817 205 192.205 205.706C192.594 206.411 192.788 207.219 192.788 208.128C192.788 209.113 192.558 209.989 192.099 210.756C191.644 211.523 191.007 212.124 190.188 212.56C189.374 212.991 188.427 213.204 187.347 213.199ZM187.333 210.784C187.807 210.784 188.23 210.67 188.604 210.443C188.978 210.216 189.272 209.908 189.485 209.52C189.698 209.132 189.805 208.696 189.805 208.213C189.805 207.73 189.698 207.297 189.485 206.913C189.277 206.53 188.988 206.224 188.619 205.997C188.249 205.77 187.828 205.656 187.354 205.656C186.999 205.656 186.67 205.723 186.367 205.855C186.069 205.988 185.806 206.172 185.579 206.409C185.356 206.646 185.181 206.92 185.053 207.233C184.925 207.541 184.862 207.87 184.862 208.22C184.862 208.689 184.968 209.117 185.181 209.506C185.399 209.894 185.692 210.204 186.062 210.436C186.436 210.668 186.86 210.784 187.333 210.784Z" fill="black"/>
<path d="M173.718 233.455V248H170.643V236.374H170.558L167.227 238.462V235.734L170.827 233.455H173.718ZM178.191 248.185C177.722 248.185 177.319 248.019 176.983 247.688C176.652 247.351 176.486 246.949 176.486 246.48C176.486 246.016 176.652 245.618 176.983 245.287C177.319 244.955 177.722 244.79 178.191 244.79C178.645 244.79 179.043 244.955 179.384 245.287C179.725 245.618 179.895 246.016 179.895 246.48C179.895 246.793 179.815 247.079 179.654 247.339C179.498 247.595 179.292 247.801 179.036 247.957C178.78 248.109 178.498 248.185 178.191 248.185ZM187.347 248.199C186.599 248.194 185.877 248.069 185.181 247.822C184.49 247.576 183.87 247.176 183.32 246.622C182.771 246.068 182.335 245.334 182.013 244.42C181.696 243.507 181.538 242.384 181.538 241.054C181.542 239.832 181.682 238.741 181.957 237.78C182.236 236.814 182.634 235.995 183.15 235.322C183.671 234.65 184.293 234.139 185.018 233.788C185.742 233.433 186.554 233.256 187.454 233.256C188.424 233.256 189.281 233.445 190.025 233.824C190.768 234.198 191.365 234.707 191.815 235.351C192.269 235.995 192.544 236.717 192.638 237.517H189.606C189.487 237.01 189.239 236.613 188.86 236.324C188.481 236.035 188.013 235.891 187.454 235.891C186.507 235.891 185.787 236.303 185.295 237.126C184.807 237.95 184.558 239.07 184.549 240.486H184.648C184.866 240.055 185.16 239.688 185.529 239.385C185.903 239.077 186.327 238.843 186.8 238.682C187.279 238.516 187.783 238.433 188.313 238.433C189.175 238.433 189.942 238.637 190.614 239.044C191.287 239.446 191.817 240 192.205 240.706C192.594 241.411 192.788 242.219 192.788 243.128C192.788 244.113 192.558 244.989 192.099 245.756C191.644 246.523 191.007 247.124 190.188 247.56C189.374 247.991 188.427 248.204 187.347 248.199ZM187.333 245.784C187.807 245.784 188.23 245.67 188.604 245.443C188.978 245.216 189.272 244.908 189.485 244.52C189.698 244.132 189.805 243.696 189.805 243.213C189.805 242.73 189.698 242.297 189.485 241.913C189.277 241.53 188.988 241.224 188.619 240.997C188.249 240.77 187.828 240.656 187.354 240.656C186.999 240.656 186.67 240.723 186.367 240.855C186.069 240.988 185.806 241.172 185.579 241.409C185.356 241.646 185.181 241.92 185.053 242.233C184.925 242.541 184.862 242.87 184.862 243.22C184.862 243.689 184.968 244.117 185.181 244.506C185.399 244.894 185.692 245.204 186.062 245.436C186.436 245.668 186.86 245.784 187.333 245.784Z" fill="black"/>
<path d="M173.718 268.455V283H170.643V271.374H170.558L167.227 273.462V270.734L170.827 268.455H173.718ZM178.191 283.185C177.722 283.185 177.319 283.019 176.983 282.688C176.652 282.351 176.486 281.949 176.486 281.48C176.486 281.016 176.652 280.618 176.983 280.287C177.319 279.955 177.722 279.79 178.191 279.79C178.645 279.79 179.043 279.955 179.384 280.287C179.725 280.618 179.895 281.016 179.895 281.48C179.895 281.793 179.815 282.079 179.654 282.339C179.498 282.595 179.292 282.801 179.036 282.957C178.78 283.109 178.498 283.185 178.191 283.185ZM187.347 283.199C186.599 283.194 185.877 283.069 185.181 282.822C184.49 282.576 183.87 282.176 183.32 281.622C182.771 281.068 182.335 280.334 182.013 279.42C181.696 278.507 181.538 277.384 181.538 276.054C181.542 274.832 181.682 273.741 181.957 272.78C182.236 271.814 182.634 270.995 183.15 270.322C183.671 269.65 184.293 269.139 185.018 268.788C185.742 268.433 186.554 268.256 187.454 268.256C188.424 268.256 189.281 268.445 190.025 268.824C190.768 269.198 191.365 269.707 191.815 270.351C192.269 270.995 192.544 271.717 192.638 272.517H189.606C189.487 272.01 189.239 271.613 188.86 271.324C188.481 271.035 188.013 270.891 187.454 270.891C186.507 270.891 185.787 271.303 185.295 272.126C184.807 272.95 184.558 274.07 184.549 275.486H184.648C184.866 275.055 185.16 274.688 185.529 274.385C185.903 274.077 186.327 273.843 186.8 273.682C187.279 273.516 187.783 273.433 188.313 273.433C189.175 273.433 189.942 273.637 190.614 274.044C191.287 274.446 191.817 275 192.205 275.706C192.594 276.411 192.788 277.219 192.788 278.128C192.788 279.113 192.558 279.989 192.099 280.756C191.644 281.523 191.007 282.124 190.188 282.56C189.374 282.991 188.427 283.204 187.347 283.199ZM187.333 280.784C187.807 280.784 188.23 280.67 188.604 280.443C188.978 280.216 189.272 279.908 189.485 279.52C189.698 279.132 189.805 278.696 189.805 278.213C189.805 277.73 189.698 277.297 189.485 276.913C189.277 276.53 188.988 276.224 188.619 275.997C188.249 275.77 187.828 275.656 187.354 275.656C186.999 275.656 186.67 275.723 186.367 275.855C186.069 275.988 185.806 276.172 185.579 276.409C185.356 276.646 185.181 276.92 185.053 277.233C184.925 277.541 184.862 277.87 184.862 278.22C184.862 278.689 184.968 279.117 185.181 279.506C185.399 279.894 185.692 280.204 186.062 280.436C186.436 280.668 186.86 280.784 187.333 280.784Z" fill="black"/>
<path d="M173.718 303.455V318H170.643V306.374H170.558L167.227 308.462V305.734L170.827 303.455H173.718ZM178.191 318.185C177.722 318.185 177.319 318.019 176.983 317.688C176.652 317.351 176.486 316.949 176.486 316.48C176.486 316.016 176.652 315.618 176.983 315.287C177.319 314.955 177.722 314.79 178.191 314.79C178.645 314.79 179.043 314.955 179.384 315.287C179.725 315.618 179.895 316.016 179.895 316.48C179.895 316.793 179.815 317.079 179.654 317.339C179.498 317.595 179.292 317.801 179.036 317.957C178.78 318.109 178.498 318.185 178.191 318.185ZM187.347 318.199C186.599 318.194 185.877 318.069 185.181 317.822C184.49 317.576 183.87 317.176 183.32 316.622C182.771 316.068 182.335 315.334 182.013 314.42C181.696 313.507 181.538 312.384 181.538 311.054C181.542 309.832 181.682 308.741 181.957 307.78C182.236 306.814 182.634 305.995 183.15 305.322C183.671 304.65 184.293 304.139 185.018 303.788C185.742 303.433 186.554 303.256 187.454 303.256C188.424 303.256 189.281 303.445 190.025 303.824C190.768 304.198 191.365 304.707 191.815 305.351C192.269 305.995 192.544 306.717 192.638 307.517H189.606C189.487 307.01 189.239 306.613 188.86 306.324C188.481 306.035 188.013 305.891 187.454 305.891C186.507 305.891 185.787 306.303 185.295 307.126C184.807 307.95 184.558 309.07 184.549 310.486H184.648C184.866 310.055 185.16 309.688 185.529 309.385C185.903 309.077 186.327 308.843 186.8 308.682C187.279 308.516 187.783 308.433 188.313 308.433C189.175 308.433 189.942 308.637 190.614 309.044C191.287 309.446 191.817 310 192.205 310.706C192.594 311.411 192.788 312.219 192.788 313.128C192.788 314.113 192.558 314.989 192.099 315.756C191.644 316.523 191.007 317.124 190.188 317.56C189.374 317.991 188.427 318.204 187.347 318.199ZM187.333 315.784C187.807 315.784 188.23 315.67 188.604 315.443C188.978 315.216 189.272 314.908 189.485 314.52C189.698 314.132 189.805 313.696 189.805 313.213C189.805 312.73 189.698 312.297 189.485 311.913C189.277 311.53 188.988 311.224 188.619 310.997C188.249 310.77 187.828 310.656 187.354 310.656C186.999 310.656 186.67 310.723 186.367 310.855C186.069 310.988 185.806 311.172 185.579 311.409C185.356 311.646 185.181 311.92 185.053 312.233C184.925 312.541 184.862 312.87 184.862 313.22C184.862 313.689 184.968 314.117 185.181 314.506C185.399 314.894 185.692 315.204 186.062 315.436C186.436 315.668 186.86 315.784 187.333 315.784Z" fill="black"/>
<path d="M173.718 335.455V350H170.643V338.374H170.558L167.227 340.462V337.734L170.827 335.455H173.718ZM178.191 350.185C177.722 350.185 177.319 350.019 176.983 349.688C176.652 349.351 176.486 348.949 176.486 348.48C176.486 348.016 176.652 347.618 176.983 347.287C177.319 346.955 177.722 346.79 178.191 346.79C178.645 346.79 179.043 346.955 179.384 347.287C179.725 347.618 179.895 348.016 179.895 348.48C179.895 348.793 179.815 349.079 179.654 349.339C179.498 349.595 179.292 349.801 179.036 349.957C178.78 350.109 178.498 350.185 178.191 350.185ZM187.347 350.199C186.599 350.194 185.877 350.069 185.181 349.822C184.49 349.576 183.87 349.176 183.32 348.622C182.771 348.068 182.335 347.334 182.013 346.42C181.696 345.507 181.538 344.384 181.538 343.054C181.542 341.832 181.682 340.741 181.957 339.78C182.236 338.814 182.634 337.995 183.15 337.322C183.671 336.65 184.293 336.139 185.018 335.788C185.742 335.433 186.554 335.256 187.454 335.256C188.424 335.256 189.281 335.445 190.025 335.824C190.768 336.198 191.365 336.707 191.815 337.351C192.269 337.995 192.544 338.717 192.638 339.517H189.606C189.487 339.01 189.239 338.613 188.86 338.324C188.481 338.035 188.013 337.891 187.454 337.891C186.507 337.891 185.787 338.303 185.295 339.126C184.807 339.95 184.558 341.07 184.549 342.486H184.648C184.866 342.055 185.16 341.688 185.529 341.385C185.903 341.077 186.327 340.843 186.8 340.682C187.279 340.516 187.783 340.433 188.313 340.433C189.175 340.433 189.942 340.637 190.614 341.044C191.287 341.446 191.817 342 192.205 342.706C192.594 343.411 192.788 344.219 192.788 345.128C192.788 346.113 192.558 346.989 192.099 347.756C191.644 348.523 191.007 349.124 190.188 349.56C189.374 349.991 188.427 350.204 187.347 350.199ZM187.333 347.784C187.807 347.784 188.23 347.67 188.604 347.443C188.978 347.216 189.272 346.908 189.485 346.52C189.698 346.132 189.805 345.696 189.805 345.213C189.805 344.73 189.698 344.297 189.485 343.913C189.277 343.53 188.988 343.224 188.619 342.997C188.249 342.77 187.828 342.656 187.354 342.656C186.999 342.656 186.67 342.723 186.367 342.855C186.069 342.988 185.806 343.172 185.579 343.409C185.356 343.646 185.181 343.92 185.053 344.233C184.925 344.541 184.862 344.87 184.862 345.22C184.862 345.689 184.968 346.117 185.181 346.506C185.399 346.894 185.692 347.204 186.062 347.436C186.436 347.668 186.86 347.784 187.333 347.784Z" fill="black"/>
<path d="M173.718 373.455V388H170.643V376.374H170.558L167.227 378.462V375.734L170.827 373.455H173.718ZM178.191 388.185C177.722 388.185 177.319 388.019 176.983 387.688C176.652 387.351 176.486 386.949 176.486 386.48C176.486 386.016 176.652 385.618 176.983 385.287C177.319 384.955 177.722 384.79 178.191 384.79C178.645 384.79 179.043 384.955 179.384 385.287C179.725 385.618 179.895 386.016 179.895 386.48C179.895 386.793 179.815 387.079 179.654 387.339C179.498 387.595 179.292 387.801 179.036 387.957C178.78 388.109 178.498 388.185 178.191 388.185ZM187.347 388.199C186.599 388.194 185.877 388.069 185.181 387.822C184.49 387.576 183.87 387.176 183.32 386.622C182.771 386.068 182.335 385.334 182.013 384.42C181.696 383.507 181.538 382.384 181.538 381.054C181.542 379.832 181.682 378.741 181.957 377.78C182.236 376.814 182.634 375.995 183.15 375.322C183.671 374.65 184.293 374.139 185.018 373.788C185.742 373.433 186.554 373.256 187.454 373.256C188.424 373.256 189.281 373.445 190.025 373.824C190.768 374.198 191.365 374.707 191.815 375.351C192.269 375.995 192.544 376.717 192.638 377.517H189.606C189.487 377.01 189.239 376.613 188.86 376.324C188.481 376.035 188.013 375.891 187.454 375.891C186.507 375.891 185.787 376.303 185.295 377.126C184.807 377.95 184.558 379.07 184.549 380.486H184.648C184.866 380.055 185.16 379.688 185.529 379.385C185.903 379.077 186.327 378.843 186.8 378.682C187.279 378.516 187.783 378.433 188.313 378.433C189.175 378.433 189.942 378.637 190.614 379.044C191.287 379.446 191.817 380 192.205 380.706C192.594 381.411 192.788 382.219 192.788 383.128C192.788 384.113 192.558 384.989 192.099 385.756C191.644 386.523 191.007 387.124 190.188 387.56C189.374 387.991 188.427 388.204 187.347 388.199ZM187.333 385.784C187.807 385.784 188.23 385.67 188.604 385.443C188.978 385.216 189.272 384.908 189.485 384.52C189.698 384.132 189.805 383.696 189.805 383.213C189.805 382.73 189.698 382.297 189.485 381.913C189.277 381.53 188.988 381.224 188.619 380.997C188.249 380.77 187.828 380.656 187.354 380.656C186.999 380.656 186.67 380.723 186.367 380.855C186.069 380.988 185.806 381.172 185.579 381.409C185.356 381.646 185.181 381.92 185.053 382.233C184.925 382.541 184.862 382.87 184.862 383.22C184.862 383.689 184.968 384.117 185.181 384.506C185.399 384.894 185.692 385.204 186.062 385.436C186.436 385.668 186.86 385.784 187.333 385.784Z" fill="black"/>
<path d="M173.718 407.455V422H170.643V410.374H170.558L167.227 412.462V409.734L170.827 407.455H173.718ZM178.191 422.185C177.722 422.185 177.319 422.019 176.983 421.688C176.652 421.351 176.486 420.949 176.486 420.48C176.486 420.016 176.652 419.618 176.983 419.287C177.319 418.955 177.722 418.79 178.191 418.79C178.645 418.79 179.043 418.955 179.384 419.287C179.725 419.618 179.895 420.016 179.895 420.48C179.895 420.793 179.815 421.079 179.654 421.339C179.498 421.595 179.292 421.801 179.036 421.957C178.78 422.109 178.498 422.185 178.191 422.185ZM187.347 422.199C186.599 422.194 185.877 422.069 185.181 421.822C184.49 421.576 183.87 421.176 183.32 420.622C182.771 420.068 182.335 419.334 182.013 418.42C181.696 417.507 181.538 416.384 181.538 415.054C181.542 413.832 181.682 412.741 181.957 411.78C182.236 410.814 182.634 409.995 183.15 409.322C183.671 408.65 184.293 408.139 185.018 407.788C185.742 407.433 186.554 407.256 187.454 407.256C188.424 407.256 189.281 407.445 190.025 407.824C190.768 408.198 191.365 408.707 191.815 409.351C192.269 409.995 192.544 410.717 192.638 411.517H189.606C189.487 411.01 189.239 410.613 188.86 410.324C188.481 410.035 188.013 409.891 187.454 409.891C186.507 409.891 185.787 410.303 185.295 411.126C184.807 411.95 184.558 413.07 184.549 414.486H184.648C184.866 414.055 185.16 413.688 185.529 413.385C185.903 413.077 186.327 412.843 186.8 412.682C187.279 412.516 187.783 412.433 188.313 412.433C189.175 412.433 189.942 412.637 190.614 413.044C191.287 413.446 191.817 414 192.205 414.706C192.594 415.411 192.788 416.219 192.788 417.128C192.788 418.113 192.558 418.989 192.099 419.756C191.644 420.523 191.007 421.124 190.188 421.56C189.374 421.991 188.427 422.204 187.347 422.199ZM187.333 419.784C187.807 419.784 188.23 419.67 188.604 419.443C188.978 419.216 189.272 418.908 189.485 418.52C189.698 418.132 189.805 417.696 189.805 417.213C189.805 416.73 189.698 416.297 189.485 415.913C189.277 415.53 188.988 415.224 188.619 414.997C188.249 414.77 187.828 414.656 187.354 414.656C186.999 414.656 186.67 414.723 186.367 414.855C186.069 414.988 185.806 415.172 185.579 415.409C185.356 415.646 185.181 415.92 185.053 416.233C184.925 416.541 184.862 416.87 184.862 417.22C184.862 417.689 184.968 418.117 185.181 418.506C185.399 418.894 185.692 419.204 186.062 419.436C186.436 419.668 186.86 419.784 187.333 419.784Z" fill="black"/>
<path d="M173.718 442.455V457H170.643V445.374H170.558L167.227 447.462V444.734L170.827 442.455H173.718ZM178.191 457.185C177.722 457.185 177.319 457.019 176.983 456.688C176.652 456.351 176.486 455.949 176.486 455.48C176.486 455.016 176.652 454.618 176.983 454.287C177.319 453.955 177.722 453.79 178.191 453.79C178.645 453.79 179.043 453.955 179.384 454.287C179.725 454.618 179.895 455.016 179.895 455.48C179.895 455.793 179.815 456.079 179.654 456.339C179.498 456.595 179.292 456.801 179.036 456.957C178.78 457.109 178.498 457.185 178.191 457.185ZM187.347 457.199C186.599 457.194 185.877 457.069 185.181 456.822C184.49 456.576 183.87 456.176 183.32 455.622C182.771 455.068 182.335 454.334 182.013 453.42C181.696 452.507 181.538 451.384 181.538 450.054C181.542 448.832 181.682 447.741 181.957 446.78C182.236 445.814 182.634 444.995 183.15 444.322C183.671 443.65 184.293 443.139 185.018 442.788C185.742 442.433 186.554 442.256 187.454 442.256C188.424 442.256 189.281 442.445 190.025 442.824C190.768 443.198 191.365 443.707 191.815 444.351C192.269 444.995 192.544 445.717 192.638 446.517H189.606C189.487 446.01 189.239 445.613 188.86 445.324C188.481 445.035 188.013 444.891 187.454 444.891C186.507 444.891 185.787 445.303 185.295 446.126C184.807 446.95 184.558 448.07 184.549 449.486H184.648C184.866 449.055 185.16 448.688 185.529 448.385C185.903 448.077 186.327 447.843 186.8 447.682C187.279 447.516 187.783 447.433 188.313 447.433C189.175 447.433 189.942 447.637 190.614 448.044C191.287 448.446 191.817 449 192.205 449.706C192.594 450.411 192.788 451.219 192.788 452.128C192.788 453.113 192.558 453.989 192.099 454.756C191.644 455.523 191.007 456.124 190.188 456.56C189.374 456.991 188.427 457.204 187.347 457.199ZM187.333 454.784C187.807 454.784 188.23 454.67 188.604 454.443C188.978 454.216 189.272 453.908 189.485 453.52C189.698 453.132 189.805 452.696 189.805 452.213C189.805 451.73 189.698 451.297 189.485 450.913C189.277 450.53 188.988 450.224 188.619 449.997C188.249 449.77 187.828 449.656 187.354 449.656C186.999 449.656 186.67 449.723 186.367 449.855C186.069 449.988 185.806 450.172 185.579 450.409C185.356 450.646 185.181 450.92 185.053 451.233C184.925 451.541 184.862 451.87 184.862 452.22C184.862 452.689 184.968 453.117 185.181 453.506C185.399 453.894 185.692 454.204 186.062 454.436C186.436 454.668 186.86 454.784 187.333 454.784Z" fill="black"/>
<path d="M173.718 478.455V493H170.643V481.374H170.558L167.227 483.462V480.734L170.827 478.455H173.718ZM178.191 493.185C177.722 493.185 177.319 493.019 176.983 492.688C176.652 492.351 176.486 491.949 176.486 491.48C176.486 491.016 176.652 490.618 176.983 490.287C177.319 489.955 177.722 489.79 178.191 489.79C178.645 489.79 179.043 489.955 179.384 490.287C179.725 490.618 179.895 491.016 179.895 491.48C179.895 491.793 179.815 492.079 179.654 492.339C179.498 492.595 179.292 492.801 179.036 492.957C178.78 493.109 178.498 493.185 178.191 493.185ZM187.347 493.199C186.599 493.194 185.877 493.069 185.181 492.822C184.49 492.576 183.87 492.176 183.32 491.622C182.771 491.068 182.335 490.334 182.013 489.42C181.696 488.507 181.538 487.384 181.538 486.054C181.542 484.832 181.682 483.741 181.957 482.78C182.236 481.814 182.634 480.995 183.15 480.322C183.671 479.65 184.293 479.139 185.018 478.788C185.742 478.433 186.554 478.256 187.454 478.256C188.424 478.256 189.281 478.445 190.025 478.824C190.768 479.198 191.365 479.707 191.815 480.351C192.269 480.995 192.544 481.717 192.638 482.517H189.606C189.487 482.01 189.239 481.613 188.86 481.324C188.481 481.035 188.013 480.891 187.454 480.891C186.507 480.891 185.787 481.303 185.295 482.126C184.807 482.95 184.558 484.07 184.549 485.486H184.648C184.866 485.055 185.16 484.688 185.529 484.385C185.903 484.077 186.327 483.843 186.8 483.682C187.279 483.516 187.783 483.433 188.313 483.433C189.175 483.433 189.942 483.637 190.614 484.044C191.287 484.446 191.817 485 192.205 485.706C192.594 486.411 192.788 487.219 192.788 488.128C192.788 489.113 192.558 489.989 192.099 490.756C191.644 491.523 191.007 492.124 190.188 492.56C189.374 492.991 188.427 493.204 187.347 493.199ZM187.333 490.784C187.807 490.784 188.23 490.67 188.604 490.443C188.978 490.216 189.272 489.908 189.485 489.52C189.698 489.132 189.805 488.696 189.805 488.213C189.805 487.73 189.698 487.297 189.485 486.913C189.277 486.53 188.988 486.224 188.619 485.997C188.249 485.77 187.828 485.656 187.354 485.656C186.999 485.656 186.67 485.723 186.367 485.855C186.069 485.988 185.806 486.172 185.579 486.409C185.356 486.646 185.181 486.92 185.053 487.233C184.925 487.541 184.862 487.87 184.862 488.22C184.862 488.689 184.968 489.117 185.181 489.506C185.399 489.894 185.692 490.204 186.062 490.436C186.436 490.668 186.86 490.784 187.333 490.784Z" fill="black"/>
<path d="M306.003 72.3196C304.782 72.3149 303.73 72.0142 302.85 71.4176C301.974 70.821 301.299 69.9569 300.826 68.8253C300.357 67.6937 300.125 66.3324 300.13 64.7415C300.13 63.1553 300.364 61.8035 300.833 60.6861C301.306 59.5687 301.981 58.7187 302.857 58.1364C303.738 57.5492 304.786 57.2557 306.003 57.2557C307.22 57.2557 308.266 57.5492 309.142 58.1364C310.023 58.7235 310.7 59.5758 311.174 60.6932C311.647 61.8059 311.882 63.1553 311.877 64.7415C311.877 66.3371 311.64 67.7008 311.167 68.8324C310.698 69.964 310.025 70.8281 309.15 71.4247C308.274 72.0213 307.225 72.3196 306.003 72.3196ZM306.003 69.7699C306.837 69.7699 307.502 69.3509 307.999 68.5128C308.496 67.6747 308.742 66.4176 308.738 64.7415C308.738 63.6383 308.624 62.7197 308.397 61.9858C308.174 61.2519 307.857 60.7003 307.445 60.331C307.038 59.9616 306.557 59.777 306.003 59.777C305.175 59.777 304.512 60.1913 304.015 61.0199C303.517 61.8485 303.266 63.089 303.262 64.7415C303.262 65.8589 303.373 66.7917 303.596 67.5398C303.823 68.2831 304.142 68.8419 304.554 69.2159C304.966 69.5852 305.449 69.7699 306.003 69.7699ZM315.281 72.1847C314.812 72.1847 314.409 72.0189 314.073 71.6875C313.742 71.3513 313.576 70.9489 313.576 70.4801C313.576 70.0161 313.742 69.6184 314.073 69.2869C314.409 68.9555 314.812 68.7898 315.281 68.7898C315.735 68.7898 316.133 68.9555 316.474 69.2869C316.815 69.6184 316.985 70.0161 316.985 70.4801C316.985 70.7926 316.905 71.0791 316.744 71.3395C316.587 71.5952 316.381 71.8011 316.126 71.9574C315.87 72.1089 315.588 72.1847 315.281 72.1847ZM324.437 72.1989C323.689 72.1941 322.967 72.0687 322.271 71.8224C321.58 71.5762 320.959 71.1761 320.41 70.6222C319.861 70.0682 319.425 69.3343 319.103 68.4205C318.786 67.5066 318.627 66.3845 318.627 65.054C318.632 63.8324 318.772 62.741 319.047 61.7798C319.326 60.8139 319.724 59.9948 320.24 59.3224C320.761 58.6501 321.383 58.1387 322.108 57.7884C322.832 57.4332 323.644 57.2557 324.544 57.2557C325.514 57.2557 326.371 57.4451 327.115 57.8239C327.858 58.1979 328.455 58.7069 328.904 59.3509C329.359 59.9948 329.634 60.7169 329.728 61.517H326.696C326.577 61.0104 326.329 60.6127 325.95 60.3239C325.571 60.035 325.102 59.8906 324.544 59.8906C323.597 59.8906 322.877 60.3026 322.385 61.1264C321.897 61.9503 321.648 63.0701 321.639 64.4858H321.738C321.956 64.0549 322.25 63.688 322.619 63.3849C322.993 63.0772 323.417 62.8428 323.89 62.6818C324.368 62.5161 324.873 62.4332 325.403 62.4332C326.265 62.4332 327.032 62.6368 327.704 63.044C328.377 63.4465 328.907 64.0005 329.295 64.706C329.683 65.4115 329.877 66.2187 329.877 67.1278C329.877 68.1127 329.648 68.9886 329.189 69.7557C328.734 70.5227 328.097 71.1241 327.278 71.5597C326.464 71.9905 325.517 72.2036 324.437 72.1989ZM324.423 69.7841C324.896 69.7841 325.32 69.6705 325.694 69.4432C326.068 69.2159 326.362 68.9081 326.575 68.5199C326.788 68.1316 326.895 67.696 326.895 67.2131C326.895 66.7301 326.788 66.2969 326.575 65.9134C326.367 65.5298 326.078 65.2244 325.708 64.9972C325.339 64.7699 324.918 64.6562 324.444 64.6562C324.089 64.6562 323.76 64.7225 323.457 64.8551C323.159 64.9877 322.896 65.1723 322.669 65.4091C322.446 65.6458 322.271 65.9205 322.143 66.233C322.015 66.5407 321.951 66.8698 321.951 67.2202C321.951 67.6889 322.058 68.1174 322.271 68.5057C322.489 68.8939 322.782 69.2041 323.152 69.4361C323.526 69.6681 323.949 69.7841 324.423 69.7841Z" fill="black"/>
<path d="M306.003 106.32C304.782 106.315 303.73 106.014 302.85 105.418C301.974 104.821 301.299 103.957 300.826 102.825C300.357 101.694 300.125 100.332 300.13 98.7415C300.13 97.1553 300.364 95.8035 300.833 94.6861C301.306 93.5687 301.981 92.7187 302.857 92.1364C303.738 91.5492 304.786 91.2557 306.003 91.2557C307.22 91.2557 308.266 91.5492 309.142 92.1364C310.023 92.7235 310.7 93.5758 311.174 94.6932C311.647 95.8059 311.882 97.1553 311.877 98.7415C311.877 100.337 311.64 101.701 311.167 102.832C310.698 103.964 310.025 104.828 309.15 105.425C308.274 106.021 307.225 106.32 306.003 106.32ZM306.003 103.77C306.837 103.77 307.502 103.351 307.999 102.513C308.496 101.675 308.742 100.418 308.738 98.7415C308.738 97.6383 308.624 96.7197 308.397 95.9858C308.174 95.2519 307.857 94.7003 307.445 94.331C307.038 93.9616 306.557 93.777 306.003 93.777C305.175 93.777 304.512 94.1913 304.015 95.0199C303.517 95.8485 303.266 97.089 303.262 98.7415C303.262 99.8589 303.373 100.792 303.596 101.54C303.823 102.283 304.142 102.842 304.554 103.216C304.966 103.585 305.449 103.77 306.003 103.77ZM315.281 106.185C314.812 106.185 314.409 106.019 314.073 105.688C313.742 105.351 313.576 104.949 313.576 104.48C313.576 104.016 313.742 103.618 314.073 103.287C314.409 102.955 314.812 102.79 315.281 102.79C315.735 102.79 316.133 102.955 316.474 103.287C316.815 103.618 316.985 104.016 316.985 104.48C316.985 104.793 316.905 105.079 316.744 105.339C316.587 105.595 316.381 105.801 316.126 105.957C315.87 106.109 315.588 106.185 315.281 106.185ZM324.437 106.199C323.689 106.194 322.967 106.069 322.271 105.822C321.58 105.576 320.959 105.176 320.41 104.622C319.861 104.068 319.425 103.334 319.103 102.42C318.786 101.507 318.627 100.384 318.627 99.054C318.632 97.8324 318.772 96.741 319.047 95.7798C319.326 94.8139 319.724 93.9948 320.24 93.3224C320.761 92.6501 321.383 92.1387 322.108 91.7884C322.832 91.4332 323.644 91.2557 324.544 91.2557C325.514 91.2557 326.371 91.4451 327.115 91.8239C327.858 92.1979 328.455 92.7069 328.904 93.3509C329.359 93.9948 329.634 94.7169 329.728 95.517H326.696C326.577 95.0104 326.329 94.6127 325.95 94.3239C325.571 94.035 325.102 93.8906 324.544 93.8906C323.597 93.8906 322.877 94.3026 322.385 95.1264C321.897 95.9503 321.648 97.0701 321.639 98.4858H321.738C321.956 98.0549 322.25 97.688 322.619 97.3849C322.993 97.0772 323.417 96.8428 323.89 96.6818C324.368 96.5161 324.873 96.4332 325.403 96.4332C326.265 96.4332 327.032 96.6368 327.704 97.044C328.377 97.4465 328.907 98.0005 329.295 98.706C329.683 99.4115 329.877 100.219 329.877 101.128C329.877 102.113 329.648 102.989 329.189 103.756C328.734 104.523 328.097 105.124 327.278 105.56C326.464 105.991 325.517 106.204 324.437 106.199ZM324.423 103.784C324.896 103.784 325.32 103.67 325.694 103.443C326.068 103.216 326.362 102.908 326.575 102.52C326.788 102.132 326.895 101.696 326.895 101.213C326.895 100.73 326.788 100.297 326.575 99.9134C326.367 99.5298 326.078 99.2244 325.708 98.9972C325.339 98.7699 324.918 98.6562 324.444 98.6562C324.089 98.6562 323.76 98.7225 323.457 98.8551C323.159 98.9877 322.896 99.1723 322.669 99.4091C322.446 99.6458 322.271 99.9205 322.143 100.233C322.015 100.541 321.951 100.87 321.951 101.22C321.951 101.689 322.058 102.117 322.271 102.506C322.489 102.894 322.782 103.204 323.152 103.436C323.526 103.668 323.949 103.784 324.423 103.784Z" fill="black"/>
<path d="M306.034 147.32C304.813 147.315 303.762 147.014 302.881 146.418C302.005 145.821 301.33 144.957 300.857 143.825C300.388 142.694 300.156 141.332 300.161 139.741C300.161 138.155 300.395 136.804 300.864 135.686C301.337 134.569 302.012 133.719 302.888 133.136C303.769 132.549 304.818 132.256 306.034 132.256C307.251 132.256 308.298 132.549 309.174 133.136C310.054 133.723 310.731 134.576 311.205 135.693C311.678 136.806 311.913 138.155 311.908 139.741C311.908 141.337 311.671 142.701 311.198 143.832C310.729 144.964 310.057 145.828 309.181 146.425C308.305 147.021 307.256 147.32 306.034 147.32ZM306.034 144.77C306.868 144.77 307.533 144.351 308.03 143.513C308.527 142.675 308.774 141.418 308.769 139.741C308.769 138.638 308.655 137.72 308.428 136.986C308.205 136.252 307.888 135.7 307.476 135.331C307.069 134.962 306.588 134.777 306.034 134.777C305.206 134.777 304.543 135.191 304.046 136.02C303.549 136.848 303.298 138.089 303.293 139.741C303.293 140.859 303.404 141.792 303.627 142.54C303.854 143.283 304.174 143.842 304.586 144.216C304.998 144.585 305.48 144.77 306.034 144.77ZM315.312 147.185C314.843 147.185 314.441 147.019 314.104 146.688C313.773 146.351 313.607 145.949 313.607 145.48C313.607 145.016 313.773 144.618 314.104 144.287C314.441 143.955 314.843 143.79 315.312 143.79C315.766 143.79 316.164 143.955 316.505 144.287C316.846 144.618 317.016 145.016 317.016 145.48C317.016 145.793 316.936 146.079 316.775 146.339C316.619 146.595 316.413 146.801 316.157 146.957C315.901 147.109 315.62 147.185 315.312 147.185ZM319.252 144.443V142.021L325.324 132.455H327.412V135.807H326.176L322.348 141.865V141.979H330.978V144.443H319.252ZM326.233 147V143.705L326.29 142.632V132.455H329.174V147H326.233Z" fill="black"/>
<path d="M306.034 180.32C304.813 180.315 303.762 180.014 302.881 179.418C302.005 178.821 301.33 177.957 300.857 176.825C300.388 175.694 300.156 174.332 300.161 172.741C300.161 171.155 300.395 169.804 300.864 168.686C301.337 167.569 302.012 166.719 302.888 166.136C303.769 165.549 304.818 165.256 306.034 165.256C307.251 165.256 308.298 165.549 309.174 166.136C310.054 166.723 310.731 167.576 311.205 168.693C311.678 169.806 311.913 171.155 311.908 172.741C311.908 174.337 311.671 175.701 311.198 176.832C310.729 177.964 310.057 178.828 309.181 179.425C308.305 180.021 307.256 180.32 306.034 180.32ZM306.034 177.77C306.868 177.77 307.533 177.351 308.03 176.513C308.527 175.675 308.774 174.418 308.769 172.741C308.769 171.638 308.655 170.72 308.428 169.986C308.205 169.252 307.888 168.7 307.476 168.331C307.069 167.962 306.588 167.777 306.034 167.777C305.206 167.777 304.543 168.191 304.046 169.02C303.549 169.848 303.298 171.089 303.293 172.741C303.293 173.859 303.404 174.792 303.627 175.54C303.854 176.283 304.174 176.842 304.586 177.216C304.998 177.585 305.48 177.77 306.034 177.77ZM315.312 180.185C314.843 180.185 314.441 180.019 314.104 179.688C313.773 179.351 313.607 178.949 313.607 178.48C313.607 178.016 313.773 177.618 314.104 177.287C314.441 176.955 314.843 176.79 315.312 176.79C315.766 176.79 316.164 176.955 316.505 177.287C316.846 177.618 317.016 178.016 317.016 178.48C317.016 178.793 316.936 179.079 316.775 179.339C316.619 179.595 316.413 179.801 316.157 179.957C315.901 180.109 315.62 180.185 315.312 180.185ZM319.252 177.443V175.021L325.324 165.455H327.412V168.807H326.176L322.348 174.865V174.979H330.978V177.443H319.252ZM326.233 180V176.705L326.29 175.632V165.455H329.174V180H326.233Z" fill="black"/>
<path d="M306.034 214.32C304.813 214.315 303.762 214.014 302.881 213.418C302.005 212.821 301.33 211.957 300.857 210.825C300.388 209.694 300.156 208.332 300.161 206.741C300.161 205.155 300.395 203.804 300.864 202.686C301.337 201.569 302.012 200.719 302.888 200.136C303.769 199.549 304.818 199.256 306.034 199.256C307.251 199.256 308.298 199.549 309.174 200.136C310.054 200.723 310.731 201.576 311.205 202.693C311.678 203.806 311.913 205.155 311.908 206.741C311.908 208.337 311.671 209.701 311.198 210.832C310.729 211.964 310.057 212.828 309.181 213.425C308.305 214.021 307.256 214.32 306.034 214.32ZM306.034 211.77C306.868 211.77 307.533 211.351 308.03 210.513C308.527 209.675 308.774 208.418 308.769 206.741C308.769 205.638 308.655 204.72 308.428 203.986C308.205 203.252 307.888 202.7 307.476 202.331C307.069 201.962 306.588 201.777 306.034 201.777C305.206 201.777 304.543 202.191 304.046 203.02C303.549 203.848 303.298 205.089 303.293 206.741C303.293 207.859 303.404 208.792 303.627 209.54C303.854 210.283 304.174 210.842 304.586 211.216C304.998 211.585 305.48 211.77 306.034 211.77ZM315.312 214.185C314.843 214.185 314.441 214.019 314.104 213.688C313.773 213.351 313.607 212.949 313.607 212.48C313.607 212.016 313.773 211.618 314.104 211.287C314.441 210.955 314.843 210.79 315.312 210.79C315.766 210.79 316.164 210.955 316.505 211.287C316.846 211.618 317.016 212.016 317.016 212.48C317.016 212.793 316.936 213.079 316.775 213.339C316.619 213.595 316.413 213.801 316.157 213.957C315.901 214.109 315.62 214.185 315.312 214.185ZM319.252 211.443V209.021L325.324 199.455H327.412V202.807H326.176L322.348 208.865V208.979H330.978V211.443H319.252ZM326.233 214V210.705L326.29 209.632V199.455H329.174V214H326.233Z" fill="black"/>
<path d="M306.034 249.32C304.813 249.315 303.762 249.014 302.881 248.418C302.005 247.821 301.33 246.957 300.857 245.825C300.388 244.694 300.156 243.332 300.161 241.741C300.161 240.155 300.395 238.804 300.864 237.686C301.337 236.569 302.012 235.719 302.888 235.136C303.769 234.549 304.818 234.256 306.034 234.256C307.251 234.256 308.298 234.549 309.174 235.136C310.054 235.723 310.731 236.576 311.205 237.693C311.678 238.806 311.913 240.155 311.908 241.741C311.908 243.337 311.671 244.701 311.198 245.832C310.729 246.964 310.057 247.828 309.181 248.425C308.305 249.021 307.256 249.32 306.034 249.32ZM306.034 246.77C306.868 246.77 307.533 246.351 308.03 245.513C308.527 244.675 308.774 243.418 308.769 241.741C308.769 240.638 308.655 239.72 308.428 238.986C308.205 238.252 307.888 237.7 307.476 237.331C307.069 236.962 306.588 236.777 306.034 236.777C305.206 236.777 304.543 237.191 304.046 238.02C303.549 238.848 303.298 240.089 303.293 241.741C303.293 242.859 303.404 243.792 303.627 244.54C303.854 245.283 304.174 245.842 304.586 246.216C304.998 246.585 305.48 246.77 306.034 246.77ZM315.312 249.185C314.843 249.185 314.441 249.019 314.104 248.688C313.773 248.351 313.607 247.949 313.607 247.48C313.607 247.016 313.773 246.618 314.104 246.287C314.441 245.955 314.843 245.79 315.312 245.79C315.766 245.79 316.164 245.955 316.505 246.287C316.846 246.618 317.016 247.016 317.016 247.48C317.016 247.793 316.936 248.079 316.775 248.339C316.619 248.595 316.413 248.801 316.157 248.957C315.901 249.109 315.62 249.185 315.312 249.185ZM319.252 246.443V244.021L325.324 234.455H327.412V237.807H326.176L322.348 243.865V243.979H330.978V246.443H319.252ZM326.233 249V245.705L326.29 244.632V234.455H329.174V249H326.233Z" fill="black"/>
<path d="M306.034 284.32C304.813 284.315 303.762 284.014 302.881 283.418C302.005 282.821 301.33 281.957 300.857 280.825C300.388 279.694 300.156 278.332 300.161 276.741C300.161 275.155 300.395 273.804 300.864 272.686C301.337 271.569 302.012 270.719 302.888 270.136C303.769 269.549 304.818 269.256 306.034 269.256C307.251 269.256 308.298 269.549 309.174 270.136C310.054 270.723 310.731 271.576 311.205 272.693C311.678 273.806 311.913 275.155 311.908 276.741C311.908 278.337 311.671 279.701 311.198 280.832C310.729 281.964 310.057 282.828 309.181 283.425C308.305 284.021 307.256 284.32 306.034 284.32ZM306.034 281.77C306.868 281.77 307.533 281.351 308.03 280.513C308.527 279.675 308.774 278.418 308.769 276.741C308.769 275.638 308.655 274.72 308.428 273.986C308.205 273.252 307.888 272.7 307.476 272.331C307.069 271.962 306.588 271.777 306.034 271.777C305.206 271.777 304.543 272.191 304.046 273.02C303.549 273.848 303.298 275.089 303.293 276.741C303.293 277.859 303.404 278.792 303.627 279.54C303.854 280.283 304.174 280.842 304.586 281.216C304.998 281.585 305.48 281.77 306.034 281.77ZM315.312 284.185C314.843 284.185 314.441 284.019 314.104 283.688C313.773 283.351 313.607 282.949 313.607 282.48C313.607 282.016 313.773 281.618 314.104 281.287C314.441 280.955 314.843 280.79 315.312 280.79C315.766 280.79 316.164 280.955 316.505 281.287C316.846 281.618 317.016 282.016 317.016 282.48C317.016 282.793 316.936 283.079 316.775 283.339C316.619 283.595 316.413 283.801 316.157 283.957C315.901 284.109 315.62 284.185 315.312 284.185ZM319.252 281.443V279.021L325.324 269.455H327.412V272.807H326.176L322.348 278.865V278.979H330.978V281.443H319.252ZM326.233 284V280.705L326.29 279.632V269.455H329.174V284H326.233Z" fill="black"/>
<path d="M306.034 319.32C304.813 319.315 303.762 319.014 302.881 318.418C302.005 317.821 301.33 316.957 300.857 315.825C300.388 314.694 300.156 313.332 300.161 311.741C300.161 310.155 300.395 308.804 300.864 307.686C301.337 306.569 302.012 305.719 302.888 305.136C303.769 304.549 304.818 304.256 306.034 304.256C307.251 304.256 308.298 304.549 309.174 305.136C310.054 305.723 310.731 306.576 311.205 307.693C311.678 308.806 311.913 310.155 311.908 311.741C311.908 313.337 311.671 314.701 311.198 315.832C310.729 316.964 310.057 317.828 309.181 318.425C308.305 319.021 307.256 319.32 306.034 319.32ZM306.034 316.77C306.868 316.77 307.533 316.351 308.03 315.513C308.527 314.675 308.774 313.418 308.769 311.741C308.769 310.638 308.655 309.72 308.428 308.986C308.205 308.252 307.888 307.7 307.476 307.331C307.069 306.962 306.588 306.777 306.034 306.777C305.206 306.777 304.543 307.191 304.046 308.02C303.549 308.848 303.298 310.089 303.293 311.741C303.293 312.859 303.404 313.792 303.627 314.54C303.854 315.283 304.174 315.842 304.586 316.216C304.998 316.585 305.48 316.77 306.034 316.77ZM315.312 319.185C314.843 319.185 314.441 319.019 314.104 318.688C313.773 318.351 313.607 317.949 313.607 317.48C313.607 317.016 313.773 316.618 314.104 316.287C314.441 315.955 314.843 315.79 315.312 315.79C315.766 315.79 316.164 315.955 316.505 316.287C316.846 316.618 317.016 317.016 317.016 317.48C317.016 317.793 316.936 318.079 316.775 318.339C316.619 318.595 316.413 318.801 316.157 318.957C315.901 319.109 315.62 319.185 315.312 319.185ZM319.252 316.443V314.021L325.324 304.455H327.412V307.807H326.176L322.348 313.865V313.979H330.978V316.443H319.252ZM326.233 319V315.705L326.29 314.632V304.455H329.174V319H326.233Z" fill="black"/>
<path d="M306.034 351.32C304.813 351.315 303.762 351.014 302.881 350.418C302.005 349.821 301.33 348.957 300.857 347.825C300.388 346.694 300.156 345.332 300.161 343.741C300.161 342.155 300.395 340.804 300.864 339.686C301.337 338.569 302.012 337.719 302.888 337.136C303.769 336.549 304.818 336.256 306.034 336.256C307.251 336.256 308.298 336.549 309.174 337.136C310.054 337.723 310.731 338.576 311.205 339.693C311.678 340.806 311.913 342.155 311.908 343.741C311.908 345.337 311.671 346.701 311.198 347.832C310.729 348.964 310.057 349.828 309.181 350.425C308.305 351.021 307.256 351.32 306.034 351.32ZM306.034 348.77C306.868 348.77 307.533 348.351 308.03 347.513C308.527 346.675 308.774 345.418 308.769 343.741C308.769 342.638 308.655 341.72 308.428 340.986C308.205 340.252 307.888 339.7 307.476 339.331C307.069 338.962 306.588 338.777 306.034 338.777C305.206 338.777 304.543 339.191 304.046 340.02C303.549 340.848 303.298 342.089 303.293 343.741C303.293 344.859 303.404 345.792 303.627 346.54C303.854 347.283 304.174 347.842 304.586 348.216C304.998 348.585 305.48 348.77 306.034 348.77ZM315.312 351.185C314.843 351.185 314.441 351.019 314.104 350.688C313.773 350.351 313.607 349.949 313.607 349.48C313.607 349.016 313.773 348.618 314.104 348.287C314.441 347.955 314.843 347.79 315.312 347.79C315.766 347.79 316.164 347.955 316.505 348.287C316.846 348.618 317.016 349.016 317.016 349.48C317.016 349.793 316.936 350.079 316.775 350.339C316.619 350.595 316.413 350.801 316.157 350.957C315.901 351.109 315.62 351.185 315.312 351.185ZM319.252 348.443V346.021L325.324 336.455H327.412V339.807H326.176L322.348 345.865V345.979H330.978V348.443H319.252ZM326.233 351V347.705L326.29 346.632V336.455H329.174V351H326.233Z" fill="black"/>
<path d="M305.034 389.32C303.813 389.315 302.762 389.014 301.881 388.418C301.005 387.821 300.33 386.957 299.857 385.825C299.388 384.694 299.156 383.332 299.161 381.741C299.161 380.155 299.395 378.804 299.864 377.686C300.337 376.569 301.012 375.719 301.888 375.136C302.769 374.549 303.818 374.256 305.034 374.256C306.251 374.256 307.298 374.549 308.174 375.136C309.054 375.723 309.731 376.576 310.205 377.693C310.678 378.806 310.913 380.155 310.908 381.741C310.908 383.337 310.671 384.701 310.198 385.832C309.729 386.964 309.057 387.828 308.181 388.425C307.305 389.021 306.256 389.32 305.034 389.32ZM305.034 386.77C305.868 386.77 306.533 386.351 307.03 385.513C307.527 384.675 307.774 383.418 307.769 381.741C307.769 380.638 307.655 379.72 307.428 378.986C307.205 378.252 306.888 377.7 306.476 377.331C306.069 376.962 305.588 376.777 305.034 376.777C304.206 376.777 303.543 377.191 303.046 378.02C302.549 378.848 302.298 380.089 302.293 381.741C302.293 382.859 302.404 383.792 302.627 384.54C302.854 385.283 303.174 385.842 303.586 386.216C303.998 386.585 304.48 386.77 305.034 386.77ZM314.312 389.185C313.843 389.185 313.441 389.019 313.104 388.688C312.773 388.351 312.607 387.949 312.607 387.48C312.607 387.016 312.773 386.618 313.104 386.287C313.441 385.955 313.843 385.79 314.312 385.79C314.766 385.79 315.164 385.955 315.505 386.287C315.846 386.618 316.016 387.016 316.016 387.48C316.016 387.793 315.936 388.079 315.775 388.339C315.619 388.595 315.413 388.801 315.157 388.957C314.901 389.109 314.62 389.185 314.312 389.185ZM318.252 386.443V384.021L324.324 374.455H326.412V377.807H325.176L321.348 383.865V383.979H329.978V386.443H318.252ZM325.233 389V385.705L325.29 384.632V374.455H328.174V389H325.233Z" fill="black"/>
<path d="M306.034 423.32C304.813 423.315 303.762 423.014 302.881 422.418C302.005 421.821 301.33 420.957 300.857 419.825C300.388 418.694 300.156 417.332 300.161 415.741C300.161 414.155 300.395 412.804 300.864 411.686C301.337 410.569 302.012 409.719 302.888 409.136C303.769 408.549 304.818 408.256 306.034 408.256C307.251 408.256 308.298 408.549 309.174 409.136C310.054 409.723 310.731 410.576 311.205 411.693C311.678 412.806 311.913 414.155 311.908 415.741C311.908 417.337 311.671 418.701 311.198 419.832C310.729 420.964 310.057 421.828 309.181 422.425C308.305 423.021 307.256 423.32 306.034 423.32ZM306.034 420.77C306.868 420.77 307.533 420.351 308.03 419.513C308.527 418.675 308.774 417.418 308.769 415.741C308.769 414.638 308.655 413.72 308.428 412.986C308.205 412.252 307.888 411.7 307.476 411.331C307.069 410.962 306.588 410.777 306.034 410.777C305.206 410.777 304.543 411.191 304.046 412.02C303.549 412.848 303.298 414.089 303.293 415.741C303.293 416.859 303.404 417.792 303.627 418.54C303.854 419.283 304.174 419.842 304.586 420.216C304.998 420.585 305.48 420.77 306.034 420.77ZM315.312 423.185C314.843 423.185 314.441 423.019 314.104 422.688C313.773 422.351 313.607 421.949 313.607 421.48C313.607 421.016 313.773 420.618 314.104 420.287C314.441 419.955 314.843 419.79 315.312 419.79C315.766 419.79 316.164 419.955 316.505 420.287C316.846 420.618 317.016 421.016 317.016 421.48C317.016 421.793 316.936 422.079 316.775 422.339C316.619 422.595 316.413 422.801 316.157 422.957C315.901 423.109 315.62 423.185 315.312 423.185ZM319.252 420.443V418.021L325.324 408.455H327.412V411.807H326.176L322.348 417.865V417.979H330.978V420.443H319.252ZM326.233 423V419.705L326.29 418.632V408.455H329.174V423H326.233Z" fill="black"/>
<path d="M306.034 458.32C304.813 458.315 303.762 458.014 302.881 457.418C302.005 456.821 301.33 455.957 300.857 454.825C300.388 453.694 300.156 452.332 300.161 450.741C300.161 449.155 300.395 447.804 300.864 446.686C301.337 445.569 302.012 444.719 302.888 444.136C303.769 443.549 304.818 443.256 306.034 443.256C307.251 443.256 308.298 443.549 309.174 444.136C310.054 444.723 310.731 445.576 311.205 446.693C311.678 447.806 311.913 449.155 311.908 450.741C311.908 452.337 311.671 453.701 311.198 454.832C310.729 455.964 310.057 456.828 309.181 457.425C308.305 458.021 307.256 458.32 306.034 458.32ZM306.034 455.77C306.868 455.77 307.533 455.351 308.03 454.513C308.527 453.675 308.774 452.418 308.769 450.741C308.769 449.638 308.655 448.72 308.428 447.986C308.205 447.252 307.888 446.7 307.476 446.331C307.069 445.962 306.588 445.777 306.034 445.777C305.206 445.777 304.543 446.191 304.046 447.02C303.549 447.848 303.298 449.089 303.293 450.741C303.293 451.859 303.404 452.792 303.627 453.54C303.854 454.283 304.174 454.842 304.586 455.216C304.998 455.585 305.48 455.77 306.034 455.77ZM315.312 458.185C314.843 458.185 314.441 458.019 314.104 457.688C313.773 457.351 313.607 456.949 313.607 456.48C313.607 456.016 313.773 455.618 314.104 455.287C314.441 454.955 314.843 454.79 315.312 454.79C315.766 454.79 316.164 454.955 316.505 455.287C316.846 455.618 317.016 456.016 317.016 456.48C317.016 456.793 316.936 457.079 316.775 457.339C316.619 457.595 316.413 457.801 316.157 457.957C315.901 458.109 315.62 458.185 315.312 458.185ZM319.252 455.443V453.021L325.324 443.455H327.412V446.807H326.176L322.348 452.865V452.979H330.978V455.443H319.252ZM326.233 458V454.705L326.29 453.632V443.455H329.174V458H326.233Z" fill="black"/>
<path d="M306.034 494.32C304.813 494.315 303.762 494.014 302.881 493.418C302.005 492.821 301.33 491.957 300.857 490.825C300.388 489.694 300.156 488.332 300.161 486.741C300.161 485.155 300.395 483.804 300.864 482.686C301.337 481.569 302.012 480.719 302.888 480.136C303.769 479.549 304.818 479.256 306.034 479.256C307.251 479.256 308.298 479.549 309.174 480.136C310.054 480.723 310.731 481.576 311.205 482.693C311.678 483.806 311.913 485.155 311.908 486.741C311.908 488.337 311.671 489.701 311.198 490.832C310.729 491.964 310.057 492.828 309.181 493.425C308.305 494.021 307.256 494.32 306.034 494.32ZM306.034 491.77C306.868 491.77 307.533 491.351 308.03 490.513C308.527 489.675 308.774 488.418 308.769 486.741C308.769 485.638 308.655 484.72 308.428 483.986C308.205 483.252 307.888 482.7 307.476 482.331C307.069 481.962 306.588 481.777 306.034 481.777C305.206 481.777 304.543 482.191 304.046 483.02C303.549 483.848 303.298 485.089 303.293 486.741C303.293 487.859 303.404 488.792 303.627 489.54C303.854 490.283 304.174 490.842 304.586 491.216C304.998 491.585 305.48 491.77 306.034 491.77ZM315.312 494.185C314.843 494.185 314.441 494.019 314.104 493.688C313.773 493.351 313.607 492.949 313.607 492.48C313.607 492.016 313.773 491.618 314.104 491.287C314.441 490.955 314.843 490.79 315.312 490.79C315.766 490.79 316.164 490.955 316.505 491.287C316.846 491.618 317.016 492.016 317.016 492.48C317.016 492.793 316.936 493.079 316.775 493.339C316.619 493.595 316.413 493.801 316.157 493.957C315.901 494.109 315.62 494.185 315.312 494.185ZM319.252 491.443V489.021L325.324 479.455H327.412V482.807H326.176L322.348 488.865V488.979H330.978V491.443H319.252ZM326.233 494V490.705L326.29 489.632V479.455H329.174V494H326.233Z" fill="black"/>
<line x1="107.5" y1="38" x2="107.5" y2="503" stroke="black"/>
<line x1="255.5" y1="39" x2="255.5" y2="503" stroke="black"/>
<line y1="87.5" x2="370" y2="87.5" stroke="black"/>
<line y1="121.5" x2="370" y2="121.5" stroke="black"/>
<line y1="155.5" x2="370" y2="155.5" stroke="black"/>
<line y1="189.5" x2="370" y2="189.5" stroke="black"/>
<line y1="223.5" x2="370" y2="223.5" stroke="black"/>
<line y1="260.5" x2="370" y2="260.5" stroke="black"/>
<line y1="294.5" x2="370" y2="294.5" stroke="black"/>
<line y1="328.5" x2="370" y2="328.5" stroke="black"/>
<line y1="363.5" x2="370" y2="363.5" stroke="black"/>
<line y1="400.5" x2="370" y2="400.5" stroke="black"/>
<line y1="434.5" x2="370" y2="434.5" stroke="black"/>
<line y1="468.5" x2="370" y2="468.5" stroke="black"/>
<line y1="502.5" x2="370" y2="502.5" stroke="black"/>
</svg>
