<svg width="159" height="80" viewBox="0 0 159 80" fill="none" xmlns="http://www.w3.org/2000/svg">
<path d="M47.4413 53.8887C48.3181 54.6961 51.2236 56.2219 55.9595 56.2219C60.6954 56.2219 63.6033 54.6961 64.4777 53.8887C68.4457 50.2302 73.0231 48.2957 77.7194 48.2957H81.7568C86.453 48.2957 91.0329 50.2302 94.9985 53.8887C95.8753 54.6961 98.7808 56.2219 103.517 56.2219C108.253 56.2219 111.161 54.6961 112.035 53.8887C115.716 50.4928 119.931 48.6574 124.268 48.3998L96.3187 28.4357L100.777 25.2503C101.679 24.6113 102.828 24.3784 103.903 24.6038L128.759 29.9367C135.177 31.3064 141.501 27.2195 142.878 20.8017C144.252 14.3815 140.165 8.06036 133.743 6.68318L108.887 1.35034C101.275 -0.279487 93.277 1.38006 86.9509 5.90295L67.1305 20.0636C64.5594 21.8941 62.3351 24.1357 60.5121 26.7365L43.5129 51.0204C44.8677 51.8204 46.1929 52.7369 47.4413 53.8887ZM155.037 64.1481H151.074C144.624 64.1481 139.729 62.0626 137.181 59.7144C134.976 57.6809 132.311 56.2219 129.312 56.2219H125.274C122.275 56.2219 119.609 57.6809 117.405 59.7144C114.861 62.0626 109.967 64.1481 103.517 64.1481C97.0667 64.1481 92.1723 62.0626 89.6235 59.7144C87.4191 57.6809 84.7539 56.2219 81.7543 56.2219H77.7169C74.7173 56.2219 72.0521 57.6809 69.8477 59.7144C67.3038 62.0626 62.4094 64.1481 55.9595 64.1481C49.5095 64.1481 44.6151 62.0626 42.0663 59.7144C39.8619 57.6809 37.1967 56.2219 34.1971 56.2219H30.1597C27.1601 56.2219 24.4949 57.6809 22.2905 59.7144C19.7466 62.0626 14.8522 64.1481 8.40227 64.1481H4.43917C2.24956 64.1481 0.476074 65.9216 0.476074 68.1112V76.0374C0.476074 78.2271 2.24956 80.0005 4.43917 80.0005H8.40227C17.9682 80.0005 26.4146 76.9812 32.1809 72.114C37.9472 76.9836 46.3935 80.0005 55.9595 80.0005C65.5254 80.0005 73.9718 76.9812 79.7381 72.114C85.5044 76.9836 93.9507 80.0005 103.517 80.0005C113.083 80.0005 121.529 76.9812 127.295 72.114C133.062 76.9836 141.508 80.0005 151.074 80.0005H155.037C157.227 80.0005 159 78.2271 159 76.0374V68.1112C159 65.9216 157.227 64.1481 155.037 64.1481ZM28.2178 40.3695C39.1609 40.3695 48.0333 31.4971 48.0333 20.554C48.0333 9.61092 39.1609 0.738534 28.2178 0.738534C17.2747 0.738534 8.40227 9.61092 8.40227 20.554C8.40227 31.4971 17.2747 40.3695 28.2178 40.3695Z" fill="white"/>
</svg>
