<svg width="58" height="59" viewBox="0 0 58 59" fill="none" xmlns="http://www.w3.org/2000/svg">
<path fill-rule="evenodd" clip-rule="evenodd" d="M54.7822 0.96735C56.3839 0.96735 57.6827 2.2676 57.6827 3.87156V29.6867C57.6827 31.2906 56.3839 32.5909 54.7822 32.5909C53.1805 32.5909 51.8817 31.2906 51.8817 29.6867V10.8829L10.2201 52.5978H28.9999C30.6018 52.5978 31.9004 53.8982 31.9004 55.502C31.9004 57.1057 30.6018 58.4062 28.9999 58.4062H3.21776C2.44848 58.4062 1.71072 58.1003 1.16678 57.5556C0.622845 57.0109 0.317261 56.2719 0.317261 55.502V29.6867C0.317261 28.0827 1.61584 26.7825 3.21776 26.7825C4.81967 26.7825 6.11825 28.0828 6.11825 29.6867V48.4906L47.7797 6.77576L28.9999 6.7757C27.398 6.7757 26.0994 5.47545 26.0994 3.87149C26.0994 2.26753 27.398 0.967285 28.9999 0.967285L54.7822 0.96735Z" fill="white"/>
</svg>
