<svg width="90" height="91" viewBox="0 0 90 91" fill="none" xmlns="http://www.w3.org/2000/svg">
<path d="M83.9801 30.5552L78.3814 13.7377C78.1867 13.1575 77.8076 12.6572 77.3021 12.313C76.7966 11.9688 76.1925 11.7998 75.5821 11.8317H13.9967C13.3863 11.7998 12.7822 11.9688 12.2767 12.313C11.7713 12.6572 11.3922 13.1575 11.1974 13.7377L5.59873 30.5552C5.5584 30.8528 5.5584 31.1545 5.59873 31.4521V48.2696C5.59873 49.013 5.89366 49.7259 6.41864 50.2516C6.94361 50.7772 7.65563 51.0725 8.39806 51.0725H11.1974V79.1017H16.7961V51.0725H33.5921V79.1017H78.3814V51.0725H81.1808C81.9232 51.0725 82.6352 50.7772 83.1602 50.2516C83.6852 49.7259 83.9801 49.013 83.9801 48.2696V31.4521C84.0204 31.1545 84.0204 30.8528 83.9801 30.5552ZM72.7828 73.4959H39.1908V51.0725H72.7828V73.4959ZM78.3814 45.4667H67.1841V34.255H61.5854V45.4667H47.5888V34.255H41.9901V45.4667H27.9934V34.255H22.3947V45.4667H11.1974V31.9006L16.0123 17.4375H73.5666L78.3814 31.9006V45.4667Z" fill="white"/>
</svg>
